<svg width="3840" height="521" viewBox="0 0 3840 521" fill="none" xmlns="http://www.w3.org/2000/svg">
<path fill-rule="evenodd" clip-rule="evenodd" d="M210.22 257.158L230.602 266.658C232.682 267.484 235.177 267.071 236.426 265.832C236.828 265.433 237.273 265.034 237.734 264.621C238.724 263.732 239.749 262.809 240.585 261.701C242.25 260.049 242.665 257.571 241.417 255.918L231.85 235.678C235.177 230.309 237.673 224.113 239.338 217.917L260.969 210.482C263.048 209.655 264.296 208.003 264.712 205.525V202.633V199.742C264.712 197.677 263.048 195.611 260.969 194.785L239.754 186.937C238.089 180.741 235.595 174.545 232.267 169.175L234.303 164.867C275.326 177.219 305 214.881 305 259.69C305 276.944 300.559 293.138 292.762 307.236C292.263 306.074 290.677 305.309 289.476 305.309L272.334 306.142C269.407 302.394 266.063 299.061 262.301 296.146L263.136 279.07C263.136 277.82 262.301 276.155 261.046 275.738C259.374 274.905 258.119 274.488 256.447 274.072C255.192 273.656 253.521 274.072 252.684 274.905L241.395 287.4C236.796 286.567 231.779 286.567 227.18 287.4L215.892 274.905C215.056 273.656 213.384 273.239 212.129 274.072C211.762 274.255 211.395 274.357 211.064 274.45C210.641 274.569 210.273 274.671 210.038 274.905C209.202 275.321 208.366 275.738 207.947 275.738C206.694 276.155 205.857 277.82 205.857 279.07L206.694 296.146C202.93 299.061 199.167 302.394 196.659 306.142L179.518 305.309C178.263 305.309 176.591 306.142 176.172 307.391C175.336 309.057 174.919 310.307 174.5 311.973C174.081 313.222 174.5 314.888 175.336 315.721L187.879 326.966C187.043 331.548 187.043 336.546 187.879 341.127L175.336 352.372C174.737 352.769 174.328 353.357 174.157 353.998C133.934 341.085 105 303.604 105 259.69C105 244.577 108.408 230.276 114.493 217.485C116.21 223.7 118.706 229.896 122.034 235.265L112.05 255.918C111.219 257.984 111.635 260.462 112.882 261.701C113.284 262.101 113.687 262.543 114.103 263.001C114.979 263.963 115.915 264.992 117.043 265.832C118.706 267.484 121.202 267.898 122.865 266.658L143.249 257.158C148.657 260.462 154.895 262.94 161.135 264.593L168.623 286.072C169.455 288.138 171.119 289.377 173.614 289.79H176.526H179.438C181.518 289.79 183.597 288.138 184.43 286.072L191.917 264.593C198.988 262.94 204.812 260.462 210.22 257.158ZM233.778 352.926C244.506 352.926 253.203 344.379 253.203 333.838C253.203 323.296 244.506 314.75 233.778 314.75C223.051 314.75 214.354 323.296 214.354 333.838C214.354 344.379 223.051 352.926 233.778 352.926ZM204.279 202.425C204.279 217.427 192.04 229.588 176.941 229.588C161.843 229.588 149.603 217.427 149.603 202.425C149.603 187.423 161.843 175.262 176.941 175.262C192.04 175.262 204.279 187.423 204.279 202.425Z" fill="#0F0E1C"/>
<path d="M423.26 317C422.153 317 421.212 316.668 420.438 316.004C419.774 315.229 419.442 314.289 419.442 313.182V204.786C419.442 203.569 419.774 202.629 420.438 201.965C421.212 201.19 422.153 200.803 423.26 200.803H431.725C432.943 200.803 433.883 201.19 434.547 201.965C435.322 202.629 435.709 203.569 435.709 204.786V250.601H492.812V204.786C492.812 203.569 493.144 202.629 493.808 201.965C494.583 201.19 495.523 200.803 496.63 200.803H505.096C506.313 200.803 507.254 201.19 507.918 201.965C508.692 202.629 509.08 203.569 509.08 204.786V313.182C509.08 314.289 508.692 315.229 507.918 316.004C507.143 316.668 506.202 317 505.096 317H496.63C495.523 317 494.583 316.668 493.808 316.004C493.144 315.229 492.812 314.289 492.812 313.182V265.541H435.709V313.182C435.709 314.289 435.322 315.229 434.547 316.004C433.773 316.668 432.832 317 431.725 317H423.26ZM559.853 318.66C554.43 318.66 549.395 317.553 544.747 315.34C540.099 313.127 536.392 310.139 533.625 306.376C530.969 302.503 529.641 298.242 529.641 293.595C529.641 286.291 532.629 280.315 538.605 275.667C544.692 270.908 552.881 267.81 563.172 266.371L587.906 262.885V258.071C587.906 246.784 581.432 241.14 568.484 241.14C563.615 241.14 559.631 242.191 556.533 244.294C553.434 246.286 551.11 248.665 549.561 251.431C549.229 252.427 548.786 253.147 548.233 253.589C547.79 254.032 547.126 254.253 546.241 254.253H539.103C538.107 254.253 537.222 253.921 536.447 253.257C535.783 252.483 535.451 251.597 535.451 250.601C535.562 247.946 536.779 244.958 539.103 241.638C541.538 238.207 545.245 235.274 550.225 232.84C555.205 230.295 561.346 229.022 568.65 229.022C581.045 229.022 589.953 231.955 595.376 237.82C600.798 243.574 603.51 250.767 603.51 259.399V313.182C603.51 314.289 603.122 315.229 602.348 316.004C601.684 316.668 600.798 317 599.692 317H592.056C590.949 317 590.009 316.668 589.234 316.004C588.57 315.229 588.238 314.289 588.238 313.182V306.044C585.803 309.585 582.262 312.573 577.614 315.008C572.966 317.443 567.046 318.66 559.853 318.66ZM563.338 306.21C570.532 306.21 576.397 303.886 580.934 299.238C585.582 294.48 587.906 287.674 587.906 278.821V274.173L568.65 276.995C560.793 278.102 554.873 279.983 550.889 282.639C546.905 285.184 544.913 288.449 544.913 292.433C544.913 296.859 546.739 300.29 550.391 302.724C554.043 305.048 558.359 306.21 563.338 306.21ZM662.232 318.66C650.391 318.66 641.095 315.34 634.345 308.7C627.705 301.95 624.164 292.543 623.721 280.481L623.555 273.841L623.721 267.201C624.164 255.139 627.705 245.788 634.345 239.148C641.095 232.397 650.391 229.022 662.232 229.022C670.2 229.022 676.95 230.461 682.484 233.338C688.017 236.215 692.111 239.756 694.767 243.962C697.534 248.167 699.028 252.372 699.249 256.577C699.36 257.684 699.028 258.569 698.253 259.233C697.479 259.897 696.538 260.229 695.431 260.229H687.463C686.357 260.229 685.527 260.008 684.974 259.565C684.42 259.123 683.867 258.237 683.314 256.909C681.432 251.597 678.776 247.835 675.346 245.622C671.915 243.298 667.599 242.136 662.398 242.136C655.537 242.136 650.059 244.294 645.964 248.61C641.981 252.815 639.823 259.289 639.491 268.031L639.325 274.007L639.491 279.651C639.823 288.504 641.981 295.033 645.964 299.238C649.948 303.444 655.426 305.546 662.398 305.546C667.599 305.546 671.915 304.44 675.346 302.226C678.776 299.902 681.432 296.084 683.314 290.773C683.867 289.445 684.42 288.559 684.974 288.117C685.527 287.563 686.357 287.287 687.463 287.287H695.431C696.538 287.287 697.479 287.674 698.253 288.449C699.028 289.113 699.36 289.998 699.249 291.105C699.028 295.199 697.534 299.404 694.767 303.72C692.111 307.926 688.017 311.467 682.484 314.344C677.061 317.221 670.311 318.66 662.232 318.66ZM722.947 317C721.84 317 720.899 316.668 720.125 316.004C719.461 315.229 719.129 314.289 719.129 313.182V202.961C719.129 201.854 719.461 200.969 720.125 200.305C720.899 199.53 721.84 199.143 722.947 199.143H730.748C731.855 199.143 732.74 199.53 733.404 200.305C734.179 200.969 734.566 201.854 734.566 202.961V260.727L767.268 233.504C767.6 233.283 768.153 232.84 768.927 232.176C769.702 231.623 770.421 231.235 771.085 231.014C771.86 230.793 772.801 230.682 773.907 230.682H782.705C783.701 230.682 784.531 231.014 785.195 231.678C785.859 232.342 786.191 233.172 786.191 234.168C786.191 235.385 785.527 236.436 784.199 237.322L745.854 269.193L788.349 310.526C789.677 311.633 790.341 312.629 790.341 313.514C790.341 314.51 790.009 315.34 789.345 316.004C788.681 316.668 787.851 317 786.855 317H778.223C776.563 317 775.346 316.834 774.571 316.502C773.907 316.17 772.911 315.395 771.583 314.178L734.566 278.821V313.182C734.566 314.289 734.179 315.229 733.404 316.004C732.74 316.668 731.855 317 730.748 317H722.947ZM873.753 317C856.268 317 847.525 307.262 847.525 287.785V243.962H834.578C833.471 243.962 832.53 243.63 831.756 242.966C831.092 242.191 830.76 241.25 830.76 240.144V234.5C830.76 233.393 831.092 232.508 831.756 231.844C832.53 231.069 833.471 230.682 834.578 230.682H847.525V202.961C847.525 201.854 847.857 200.969 848.521 200.305C849.296 199.53 850.237 199.143 851.343 199.143H859.145C860.252 199.143 861.137 199.53 861.801 200.305C862.576 200.969 862.963 201.854 862.963 202.961V230.682H883.547C884.653 230.682 885.539 231.069 886.203 231.844C886.977 232.508 887.365 233.393 887.365 234.5V240.144C887.365 241.25 886.977 242.191 886.203 242.966C885.539 243.63 884.653 243.962 883.547 243.962H862.963V286.623C862.963 292.156 863.904 296.361 865.785 299.238C867.666 302.005 870.765 303.388 875.081 303.388H885.207C886.313 303.388 887.199 303.776 887.863 304.55C888.637 305.214 889.025 306.1 889.025 307.206V313.182C889.025 314.289 888.637 315.229 887.863 316.004C887.199 316.668 886.313 317 885.207 317H873.753ZM908.882 317C907.775 317 906.835 316.668 906.06 316.004C905.396 315.229 905.064 314.289 905.064 313.182V202.961C905.064 201.854 905.396 200.969 906.06 200.305C906.835 199.53 907.775 199.143 908.882 199.143H917.182C918.288 199.143 919.174 199.53 919.838 200.305C920.612 200.969 921 201.854 921 202.961V241.638C924.209 237.543 927.971 234.444 932.287 232.342C936.603 230.129 941.97 229.022 948.389 229.022C959.013 229.022 967.257 232.453 973.122 239.314C979.098 246.064 982.086 255.083 982.086 266.371V313.182C982.086 314.289 981.699 315.229 980.924 316.004C980.26 316.668 979.375 317 978.268 317H969.968C968.862 317 967.921 316.668 967.147 316.004C966.483 315.229 966.151 314.289 966.151 313.182V267.201C966.151 259.344 964.214 253.257 960.341 248.942C956.578 244.626 951.1 242.468 943.907 242.468C936.935 242.468 931.347 244.681 927.141 249.108C923.047 253.423 921 259.455 921 267.201V313.182C921 314.289 920.612 315.229 919.838 316.004C919.174 316.668 918.288 317 917.182 317H908.882ZM1040.58 318.66C1029.18 318.66 1020.05 315.174 1013.19 308.202C1006.44 301.12 1002.73 291.492 1002.07 279.319L1001.9 273.675L1002.07 268.197C1002.84 256.245 1006.61 246.728 1013.36 239.646C1020.22 232.563 1029.24 229.022 1040.41 229.022C1052.7 229.022 1062.21 232.951 1068.96 240.808C1075.72 248.554 1079.09 259.067 1079.09 272.347V275.169C1079.09 276.276 1078.7 277.216 1077.93 277.991C1077.26 278.655 1076.38 278.987 1075.27 278.987H1017.84V280.481C1018.17 287.674 1020.33 293.816 1024.31 298.906C1028.41 303.886 1033.77 306.376 1040.41 306.376C1045.5 306.376 1049.65 305.38 1052.86 303.388C1056.18 301.286 1058.62 299.128 1060.17 296.914C1061.16 295.586 1061.88 294.812 1062.32 294.59C1062.88 294.259 1063.82 294.093 1065.15 294.093H1073.28C1074.28 294.093 1075.11 294.369 1075.77 294.922C1076.43 295.476 1076.77 296.25 1076.77 297.246C1076.77 299.681 1075.22 302.614 1072.12 306.044C1069.13 309.475 1064.87 312.463 1059.34 315.008C1053.91 317.443 1047.66 318.66 1040.58 318.66ZM1063.32 267.533V267.035C1063.32 259.399 1061.22 253.202 1057.01 248.444C1052.92 243.574 1047.39 241.14 1040.41 241.14C1033.44 241.14 1027.91 243.574 1023.81 248.444C1019.83 253.202 1017.84 259.399 1017.84 267.035V267.533H1063.32ZM1145.6 317C1144.5 317 1143.56 316.668 1142.78 316.004C1142.12 315.229 1141.79 314.289 1141.79 313.182V204.786C1141.79 203.569 1142.12 202.629 1142.78 201.965C1143.56 201.19 1144.5 200.803 1145.6 200.803H1153.24C1155.23 200.803 1156.61 201.577 1157.39 203.127L1212.5 287.785V204.786C1212.5 203.569 1212.83 202.629 1213.5 201.965C1214.27 201.19 1215.21 200.803 1216.32 200.803H1224.29C1225.5 200.803 1226.44 201.19 1227.11 201.965C1227.88 202.629 1228.27 203.569 1228.27 204.786V313.016C1228.27 314.123 1227.88 315.063 1227.11 315.838C1226.44 316.613 1225.56 317 1224.45 317H1216.48C1214.82 317 1213.5 316.225 1212.5 314.676L1157.55 230.848V313.182C1157.55 314.289 1157.17 315.229 1156.39 316.004C1155.62 316.668 1154.68 317 1153.57 317H1145.6ZM1290.4 318.66C1278.23 318.66 1268.77 315.229 1262.02 308.368C1255.38 301.507 1251.84 292.377 1251.39 280.979L1251.23 273.841L1251.39 266.703C1251.84 255.415 1255.43 246.341 1262.18 239.48C1268.93 232.508 1278.34 229.022 1290.4 229.022C1302.47 229.022 1311.87 232.508 1318.62 239.48C1325.37 246.341 1328.97 255.415 1329.41 266.703C1329.52 267.92 1329.58 270.3 1329.58 273.841C1329.58 277.382 1329.52 279.761 1329.41 280.979C1328.97 292.377 1325.37 301.507 1318.62 308.368C1311.98 315.229 1302.58 318.66 1290.4 318.66ZM1290.4 305.878C1297.38 305.878 1302.85 303.665 1306.84 299.238C1310.93 294.812 1313.15 288.449 1313.48 280.149C1313.59 279.042 1313.64 276.94 1313.64 273.841C1313.64 270.742 1313.59 268.64 1313.48 267.533C1313.15 259.233 1310.93 252.87 1306.84 248.444C1302.85 244.017 1297.38 241.804 1290.4 241.804C1283.43 241.804 1277.9 244.017 1273.8 248.444C1269.71 252.87 1267.55 259.233 1267.33 267.533L1267.16 273.841L1267.33 280.149C1267.55 288.449 1269.71 294.812 1273.8 299.238C1277.9 303.665 1283.43 305.878 1290.4 305.878ZM1354.18 317C1353.08 317 1352.14 316.668 1351.36 316.004C1350.7 315.229 1350.36 314.289 1350.36 313.182V234.666C1350.36 233.559 1350.7 232.619 1351.36 231.844C1352.14 231.069 1353.08 230.682 1354.18 230.682H1361.82C1362.92 230.682 1363.87 231.069 1364.64 231.844C1365.41 232.619 1365.8 233.559 1365.8 234.666V241.97C1370.34 234.444 1378.09 230.682 1389.04 230.682H1395.52C1396.62 230.682 1397.51 231.069 1398.17 231.844C1398.95 232.508 1399.33 233.393 1399.33 234.5V241.306C1399.33 242.412 1398.95 243.298 1398.17 243.962C1397.51 244.626 1396.62 244.958 1395.52 244.958H1385.56C1379.58 244.958 1374.88 246.728 1371.45 250.269C1368.02 253.7 1366.3 258.403 1366.3 264.379V313.182C1366.3 314.289 1365.91 315.229 1365.14 316.004C1364.36 316.668 1363.42 317 1362.32 317H1354.18ZM1447.12 317C1429.64 317 1420.89 307.262 1420.89 287.785V243.962H1407.95C1406.84 243.962 1405.9 243.63 1405.12 242.966C1404.46 242.191 1404.13 241.25 1404.13 240.144V234.5C1404.13 233.393 1404.46 232.508 1405.12 231.844C1405.9 231.069 1406.84 230.682 1407.95 230.682H1420.89V202.961C1420.89 201.854 1421.23 200.969 1421.89 200.305C1422.66 199.53 1423.6 199.143 1424.71 199.143H1432.51C1433.62 199.143 1434.51 199.53 1435.17 200.305C1435.94 200.969 1436.33 201.854 1436.33 202.961V230.682H1456.91C1458.02 230.682 1458.91 231.069 1459.57 231.844C1460.35 232.508 1460.73 233.393 1460.73 234.5V240.144C1460.73 241.25 1460.35 242.191 1459.57 242.966C1458.91 243.63 1458.02 243.962 1456.91 243.962H1436.33V286.623C1436.33 292.156 1437.27 296.361 1439.15 299.238C1441.03 302.005 1444.13 303.388 1448.45 303.388H1458.57C1459.68 303.388 1460.57 303.776 1461.23 304.55C1462.01 305.214 1462.39 306.1 1462.39 307.206V313.182C1462.39 314.289 1462.01 315.229 1461.23 316.004C1460.57 316.668 1459.68 317 1458.57 317H1447.12ZM1482.25 317C1481.14 317 1480.2 316.668 1479.43 316.004C1478.76 315.229 1478.43 314.289 1478.43 313.182V202.961C1478.43 201.854 1478.76 200.969 1479.43 200.305C1480.2 199.53 1481.14 199.143 1482.25 199.143H1490.55C1491.66 199.143 1492.54 199.53 1493.21 200.305C1493.98 200.969 1494.37 201.854 1494.37 202.961V241.638C1497.58 237.543 1501.34 234.444 1505.66 232.342C1509.97 230.129 1515.34 229.022 1521.76 229.022C1532.38 229.022 1540.63 232.453 1546.49 239.314C1552.47 246.064 1555.45 255.083 1555.45 266.371V313.182C1555.45 314.289 1555.07 315.229 1554.29 316.004C1553.63 316.668 1552.74 317 1551.64 317H1543.34C1542.23 317 1541.29 316.668 1540.51 316.004C1539.85 315.229 1539.52 314.289 1539.52 313.182V267.201C1539.52 259.344 1537.58 253.257 1533.71 248.942C1529.95 244.626 1524.47 242.468 1517.28 242.468C1510.3 242.468 1504.71 244.681 1500.51 249.108C1496.41 253.423 1494.37 259.455 1494.37 267.201V313.182C1494.37 314.289 1493.98 315.229 1493.21 316.004C1492.54 316.668 1491.66 317 1490.55 317H1482.25Z" fill="#0F0E1C"/>
<path d="M1935.6 268.596C1938.13 266.058 1938.13 261.942 1935.6 259.404L1894.23 218.038C1891.69 215.5 1887.58 215.5 1885.04 218.038C1882.5 220.576 1882.5 224.692 1885.04 227.23L1921.81 264L1885.04 300.77C1882.5 303.308 1882.5 307.424 1885.04 309.962C1887.58 312.5 1891.69 312.5 1894.23 309.962L1935.6 268.596ZM1828 270.5H1931V257.5H1828V270.5Z" fill="black"/>
</svg>
