<svg version="1" xmlns="http://www.w3.org/2000/svg" width="341.333" height="341.333" viewBox="0 0 256.000000 256.000000"><path d="M153.2 33c-24.6 6.5-40.1 26.6-40.2 52.1-.1 24.4 13.2 40.2 45.1 53.8 18.3 7.9 27.5 12.8 33.4 18.3 6.4 5.8 7.9 9.6 7.3 18.8-.4 8.2-3.7 13.2-10.7 16.3-13.6 6-34.3 1.6-48.6-10.3-6.7-5.7-10.2-7.3-15.5-7.4-9.7-.2-14.4 4.2-14.4 13.5-.1 12.5 11.5 22.9 33.8 30.6 11.5 3.9 20.5 5.5 31.1 5.5 19-.1 32.7-4.8 43.8-15.2 6.9-6.4 10.7-12.6 13-21 5.7-20.5 1-39.9-12.8-52.8-7.9-7.5-15.3-11.9-30.9-18.4-32.3-13.5-39.6-19.5-39.6-32.6 0-9 3.7-15.4 11.5-19.5 3.4-1.9 5.7-2.2 14.5-2.2 9.7 0 11 .2 17 3.1 3.6 1.7 9.5 5.1 13.2 7.7 7.7 5.2 13.2 6.5 19.3 4.5 8.3-2.7 11.2-13.5 6-22.4-5.5-9.4-19.7-18.5-35-22.4-10.7-2.7-30.8-2.7-41.3 0z"/></svg>