<svg xmlns="http://www.w3.org/2000/svg" style="display: block;" viewBox="0 0 191 33">
  <path fill-rule="evenodd" d="M23.768,46.48 C23.2879976,46.48 22.6960035,46.4240006 21.992,46.312 C21.2879965,46.1999994 20.5520038,46.0320011 19.784,45.808 C19.0159962,45.5839989 18.2560038,45.3120016 17.504,44.992 C16.7519962,44.6719984 16.072003,44.2960022 15.464,43.864 C14.855997,43.4319978 14.3600019,42.9440027 13.976,42.4 C13.5919981,41.8559973 13.4,41.2480034 13.4,40.576 C13.4,39.0719925 14.2319917,38.32 15.896,38.32 C16.4400027,38.3520002 16.9199979,38.5039986 17.336,38.776 C17.7520021,39.0480014 18.1359982,39.3439984 18.488,39.664 C19.0320027,40.1760026 19.799995,40.631998 20.792,41.032 C21.784005,41.432002 22.8399944,41.632 23.96,41.632 C25.2400064,41.632 26.2479963,41.3520028 26.984,40.792 C27.7200037,40.2319972 28.088,39.3440061 28.088,38.128 C28.088,37.1039949 27.7440034,36.2640033 27.056,35.608 C26.3679966,34.9519967 25.4960053,34.3680026 24.44,33.856 C23.3839947,33.3439974 22.256006,32.8480024 21.056,32.368 C19.855994,31.8879976 18.7280053,31.2880036 17.672,30.568 C16.6159947,29.8479964 15.7440034,28.9520054 15.056,27.88 C14.3679966,26.8079946 14.024,25.4400083 14.024,23.776 C14.024,22.4319933 14.2479978,21.2160054 14.696,20.128 C15.1440022,19.0399946 15.7839958,18.096004 16.616,17.296 C17.4480042,16.495996 18.4719939,15.8800022 19.688,15.448 C20.9040061,15.0159978 22.2799923,14.8 23.816,14.8 C25.416008,14.8 26.815994,14.999998 28.016,15.4 C29.216006,15.800002 30.2239959,16.2879971 31.04,16.864 C31.8560041,17.4400029 32.4719979,18.0399969 32.888,18.664 C33.3040021,19.2880031 33.512,19.8079979 33.512,20.224 C33.512,20.9600037 33.3280018,21.5599977 32.96,22.024 C32.5919982,22.4880023 31.9760043,22.72 31.112,22.72 C30.5999974,22.72 30.144002,22.6080011 29.744,22.384 C29.343998,22.1599989 28.9680018,21.9040014 28.616,21.616 C28.2319981,21.2959984 27.640004,20.9280021 26.84,20.512 C26.039996,20.0959979 24.9680067,19.888 23.624,19.888 C22.4719942,19.888 21.5280037,20.1999969 20.792,20.824 C20.0559963,21.4480031 19.688,22.3519941 19.688,23.536 C19.688,24.5600051 20.0319966,25.375997 20.72,25.984 C21.4080034,26.592003 22.2719948,27.1359976 23.312,27.616 C24.3520052,28.0960024 25.4799939,28.5759976 26.696,29.056 C27.9120061,29.5360024 29.0399948,30.1359964 30.08,30.856 C31.1200052,31.5760036 31.9839966,32.4799946 32.672,33.568 C33.3600034,34.6560054 33.704,36.0639914 33.704,37.792 C33.704,40.4800134 32.8240088,42.5999922 31.064,44.152 C29.3039912,45.7040078 26.8720155,46.48 23.768,46.48 Z M58.636,15.28 C59.5640046,15.28 60.2599977,15.5119977 60.724,15.976 C61.1880023,16.4400023 61.42,17.071996 61.42,17.872 C61.42,18.6080037 61.1880023,19.2079977 60.724,19.672 C60.2599977,20.1360023 59.5640046,20.368 58.636,20.368 L52.348,20.368 L52.348,44.224 C52.348,44.8000029 52.1000025,45.3199977 51.604,45.784 C51.1079975,46.2480023 50.4440042,46.48 49.612,46.48 C48.7159955,46.48 48.0120026,46.2480023 47.5,45.784 C46.9879974,45.3199977 46.732,44.8000029 46.732,44.224 L46.732,20.368 L41.068,20.368 C40.2359958,20.368 39.5720025,20.1360023 39.076,19.672 C38.5799975,19.2079977 38.332,18.6080037 38.332,17.872 C38.332,17.071996 38.5799975,16.4400023 39.076,15.976 C39.5720025,15.5119977 40.2359958,15.28 41.068,15.28 L58.636,15.28 Z M89.46,43.36 C89.652001,43.8720026 89.5560019,44.431997 89.172,45.04 C88.7879981,45.6800032 88.1800042,46.095999 87.348,46.288 C86.6119963,46.4480008 85.9080034,46.3840014 85.236,46.096 C84.627997,45.8399987 84.228001,45.408003 84.036,44.8 L77.076,22.336 L76.98,22.336 L70.068,44.848 C69.9079992,45.3920027 69.5080032,45.8239984 68.868,46.144 C68.2279968,46.4640016 67.5240038,46.528001 66.756,46.336 C65.8919957,46.1119989 65.2840018,45.7120029 64.932,45.136 C64.5159979,44.4959968 64.403999,43.9200026 64.596,43.408 L74.004,16.816 C74.196001,16.2399971 74.5639973,15.7600019 75.108,15.376 C75.6520027,14.9919981 76.323996,14.8 77.124,14.8 C77.8920038,14.8 78.5639971,14.9919981 79.14,15.376 C79.6840027,15.7600019 80.051999,16.2399971 80.244,16.816 L89.46,43.36 Z M96.836,17.056 C96.836,16.4799971 97.0999974,15.9600023 97.628,15.496 C98.1560026,15.0319977 98.8519957,14.8 99.716,14.8 C100.420004,14.8 101.011998,14.9839982 101.492,15.352 C101.972002,15.7200018 102.275999,16.1439976 102.404,16.624 L115.316,35.488 L115.316,17.056 C115.316,16.4799971 115.571997,15.9600023 116.084,15.496 C116.596003,15.0319977 117.299996,14.8 118.196,14.8 C118.996004,14.8 119.643998,15.0319977 120.14,15.496 C120.636002,15.9600023 120.884,16.4799971 120.884,17.056 L120.884,44.224 C120.884,44.8000029 120.636002,45.3199977 120.14,45.784 C119.643998,46.2480023 118.996004,46.48 118.196,46.48 C117.491996,46.48 116.908002,46.3440014 116.444,46.072 C115.979998,45.7999986 115.652001,45.4400022 115.46,44.992 L115.316,44.752 L102.452,26.08 L102.452,44.224 C102.452,44.8000029 102.204002,45.3199977 101.708,45.784 C101.211998,46.2480023 100.548004,46.48 99.716,46.48 C98.8519957,46.48 98.1560026,46.2480023 97.628,45.784 C97.0999974,45.3199977 96.836,44.8000029 96.836,44.224 L96.836,17.056 Z M130.084,17.056 C130.084,16.4799971 130.339997,15.9600023 130.852,15.496 C131.364003,15.0319977 132.067996,14.8 132.964,14.8 C133.764004,14.8 134.419997,15.0319977 134.932,15.496 C135.444003,15.9600023 135.7,16.4799971 135.7,17.056 L135.7,40.912 L145.924,40.912 C146.820004,40.912 147.499998,41.1439977 147.964,41.608 C148.428002,42.0720023 148.66,42.703996 148.66,43.504 C148.66,44.2400037 148.428002,44.8399977 147.964,45.304 C147.499998,45.7680023 146.820004,46 145.924,46 L132.676,46 C131.843996,45.9359997 131.204002,45.6800022 130.756,45.232 C130.307998,44.7839978 130.084,44.2880027 130.084,43.744 L130.084,17.056 Z M171.156,15.28 C172.052004,15.28 172.731998,15.5119977 173.196,15.976 C173.660002,16.4400023 173.892,17.071996 173.892,17.872 C173.892,18.6080037 173.660002,19.2079977 173.196,19.672 C172.731998,20.1360023 172.052004,20.368 171.156,20.368 L160.404,20.368 L160.404,27.904 L167.604,27.904 C168.532005,27.904 169.227998,28.1359977 169.692,28.6 C170.156002,29.0640023 170.388,29.695996 170.388,30.496 C170.388,31.2320037 170.156002,31.8319977 169.692,32.296 C169.227998,32.7600023 168.532005,32.992 167.604,32.992 L160.404,32.992 L160.404,40.912 L171.156,40.912 C172.052004,40.912 172.731998,41.1439977 173.196,41.608 C173.660002,42.0720023 173.892,42.703996 173.892,43.504 C173.892,44.2400037 173.660002,44.8399977 173.196,45.304 C172.731998,45.7680023 172.052004,46 171.156,46 L157.668,46 C156.803996,46 156.108003,45.7680023 155.58,45.304 C155.051997,44.8399977 154.788,44.3200029 154.788,43.744 L154.788,17.536 C154.788,16.9599971 155.051997,16.4400023 155.58,15.976 C156.108003,15.5119977 156.803996,15.28 157.668,15.28 L171.156,15.28 Z M188.42,34.528 L179.732,18.64 C179.411998,18.0639971 179.315999,17.5200026 179.444,17.008 C179.604001,16.3359966 180.019997,15.7920021 180.692,15.376 C181.428004,14.9279978 182.147996,14.7679994 182.852,14.896 C183.684004,15.0240006 184.211999,15.2959979 184.436,15.712 L191.348,29.296 L198.308,15.712 C198.532001,15.2959979 199.059996,15.0240006 199.892,14.896 C200.596004,14.7679994 201.315996,14.9279978 202.052,15.376 C202.724003,15.7920021 203.139999,16.3359966 203.3,17.008 C203.396,17.5520027 203.300001,18.0959973 203.012,18.64 L193.988,35.056 L189.188,44.368 C188.739998,45.360005 188.484,45.8719998 188.42,45.904 C187.939998,46.3840024 187.300004,46.624 186.5,46.624 C185.603996,46.624 184.900003,46.3840024 184.388,45.904 C183.683996,45.2639968 183.427999,44.7520019 183.62,44.368 L188.42,34.528 Z" transform="translate(-13 -14)"/>
</svg>
