<svg xmlns="http://www.w3.org/2000/svg" style="display: block;" viewBox="0 0 140 33" text="Huang">
  <path fill-rule="evenodd" d="M89.64,81.36 C89.832001,81.8720026 89.7360019,82.431997 89.352,83.04 C88.9679981,83.6800032 88.3600042,84.095999 87.528,84.288 C86.7919963,84.4480008 86.0880034,84.3840014 85.416,84.096 C84.807997,83.8399987 84.408001,83.408003 84.216,82.8 L77.256,60.336 L77.16,60.336 L70.248,82.848 C70.0879992,83.3920027 69.6880032,83.8239984 69.048,84.144 C68.4079968,84.4640016 67.7040038,84.528001 66.936,84.336 C66.0719957,84.1119989 65.4640018,83.7120029 65.112,83.136 C64.6959979,82.4959968 64.583999,81.9200026 64.776,81.408 L74.184,54.816 C74.376001,54.2399971 74.7439973,53.7600019 75.288,53.376 C75.8320027,52.9919981 76.503996,52.8 77.304,52.8 C78.0720038,52.8 78.7439971,52.9919981 79.32,53.376 C79.8640027,53.7600019 80.231999,54.2399971 80.424,54.816 L89.64,81.36 Z M97.016,55.056 C97.016,54.4799971 97.2799974,53.9600023 97.808,53.496 C98.3360026,53.0319977 99.0319957,52.8 99.896,52.8 C100.600004,52.8 101.191998,52.9839982 101.672,53.352 C102.152002,53.7200018 102.455999,54.1439976 102.584,54.624 L115.496,73.488 L115.496,55.056 C115.496,54.4799971 115.751997,53.9600023 116.264,53.496 C116.776003,53.0319977 117.479996,52.8 118.376,52.8 C119.176004,52.8 119.823998,53.0319977 120.32,53.496 C120.816002,53.9600023 121.064,54.4799971 121.064,55.056 L121.064,82.224 C121.064,82.8000029 120.816002,83.3199977 120.32,83.784 C119.823998,84.2480023 119.176004,84.48 118.376,84.48 C117.671996,84.48 117.088002,84.3440014 116.624,84.072 C116.159998,83.7999986 115.832001,83.4400022 115.64,82.992 L115.496,82.752 L102.632,64.08 L102.632,82.224 C102.632,82.8000029 102.384002,83.3199977 101.888,83.784 C101.391998,84.2480023 100.728004,84.48 99.896,84.48 C99.0319957,84.48 98.3360026,84.2480023 97.808,83.784 C97.2799974,83.3199977 97.016,82.8000029 97.016,82.224 L97.016,55.056 Z M139.452,70.368 C139.452,69.6319963 139.683998,69.0320023 140.148,68.568 C140.612002,68.1039977 141.227996,67.872 141.996,67.872 L147.9,67.872 C148.796004,67.872 149.475998,68.0639981 149.94,68.448 C150.404002,68.8320019 150.636,69.4559957 150.636,70.32 L150.636,79.68 C150.251998,80.3200032 149.788003,80.9279971 149.244,81.504 C148.699997,82.0800029 148.028004,82.5919978 147.228,83.04 C146.427996,83.4880022 145.476006,83.8399987 144.372,84.096 C143.267994,84.3520013 141.948008,84.48 140.412,84.48 C138.42799,84.48 136.676008,84.176003 135.156,83.568 C133.635992,82.959997 132.356005,82.1280053 131.316,81.072 C130.275995,80.0159947 129.492003,78.784007 128.964,77.376 C128.435997,75.967993 128.172,74.464008 128.172,72.864 L128.172,64.464 C128.172,62.8959922 128.427997,61.4000071 128.94,59.976 C129.452003,58.5519929 130.219995,57.3120053 131.244,56.256 C132.268005,55.1999947 133.531992,54.3600031 135.036,53.736 C136.540008,53.1119969 138.28399,52.8 140.268,52.8 C142.092009,52.8 143.723993,53.0639974 145.164,53.592 C146.604007,54.1200026 147.691996,54.7679962 148.428,55.536 C149.004003,56.1760032 149.284,56.799997 149.268,57.408 C149.252,58.016003 149.036002,58.519998 148.62,58.92 C148.203998,59.320002 147.644004,59.5519997 146.94,59.616 C146.235996,59.6800003 145.516004,59.4720024 144.78,58.992 C144.235997,58.6399982 143.524004,58.360001 142.644,58.152 C141.763996,57.943999 140.956004,57.84 140.22,57.84 C138.395991,57.84 136.868006,58.343995 135.636,59.352 C134.403994,60.360005 133.788,61.9519891 133.788,64.128 L133.788,73.248 C133.788,74.3040053 133.955998,75.2239961 134.292,76.008 C134.628002,76.7920039 135.099997,77.4399974 135.708,77.952 C136.316003,78.4640026 137.011996,78.8399988 137.796,79.08 C138.580004,79.3200012 139.435995,79.44 140.364,79.44 C141.292005,79.44 142.035997,79.3680007 142.596,79.224 C143.156003,79.0799993 143.691997,78.8640014 144.204,78.576 L145.068,77.952 L145.068,72.864 L141.996,72.864 C141.227996,72.864 140.612002,72.6320023 140.148,72.168 C139.683998,71.7039977 139.452,71.1040037 139.452,70.368 Z M26.9557143,71.672 L16.1145714,71.672 L16.1145714,82.424 C16.1145714,83.0000029 15.8887165,83.5199977 15.437,83.984 C14.9852835,84.4480023 14.3805752,84.68 13.6228571,84.68 C12.8359961,84.68 12.2021453,84.4480023 11.7212857,83.984 C11.2404262,83.5199977 11,83.0000029 11,82.424 L11,55.256 C11,54.6799971 11.2404262,54.1600023 11.7212857,53.696 C12.2021453,53.2319977 12.8359961,53 13.6228571,53 C14.3805752,53 14.9852835,53.2319977 15.437,53.696 C15.8887165,54.1600023 16.1145714,54.6799971 16.1145714,55.256 L16.1145714,66.584 L26.9557143,66.584 L26.9557143,55.256 C26.9557143,54.6799971 27.1888548,54.1600023 27.6551429,53.696 C28.1214309,53.2319977 28.7625673,53 29.5785714,53 C30.3071465,53 30.9045691,53.2319977 31.3708571,53.696 C31.8371452,54.1600023 32.0702857,54.6799971 32.0702857,55.256 L32.0702857,82.424 C32.0702857,83.0000029 31.8371452,83.5199977 31.3708571,83.984 C30.9045691,84.4480023 30.3071465,84.68 29.5785714,84.68 C28.7625673,84.68 28.1214309,84.4480023 27.6551429,83.984 C27.1888548,83.5199977 26.9557143,83.0000029 26.9557143,82.424 L26.9557143,71.672 Z M49.1588571,84.68 C47.235419,84.68 45.588864,84.376003 44.2191429,83.768 C42.8494217,83.159997 41.7274329,82.3440051 40.8531429,81.32 C39.9788528,80.2959949 39.3377163,79.0960069 38.9297143,77.72 C38.5217122,76.3439931 38.3177143,74.9040075 38.3177143,73.4 L38.3177143,55.256 C38.3177143,54.6799971 38.5581405,54.1600023 39.039,53.696 C39.5198595,53.2319977 40.1537104,53 40.9405714,53 C41.6982895,53 42.3029977,53.2319977 42.7547143,53.696 C43.2064308,54.1600023 43.4322857,54.6799971 43.4322857,55.256 L43.4322857,73.352 C43.4322857,77.4160203 45.3411238,79.448 49.1588571,79.448 C52.9474475,79.448 54.8417143,77.4160203 54.8417143,73.352 L54.8417143,55.256 C54.8417143,54.6799971 55.0821405,54.1600023 55.563,53.696 C56.0438595,53.2319977 56.6485678,53 57.3771429,53 C58.1640039,53 58.7978547,53.2319977 59.2787143,53.696 C59.7595738,54.1600023 60,54.6799971 60,55.256 L60,73.4 C60,74.9040075 59.796002,76.3439931 59.388,77.72 C58.979998,79.0960069 58.3388615,80.2959949 57.4645714,81.32 C56.5902813,82.3440051 55.4682926,83.159997 54.0985714,83.768 C52.7288503,84.376003 51.0822953,84.68 49.1588571,84.68 Z" transform="translate(-11 -52)"/>
</svg>
