<svg width="767" height="119" viewBox="0 0 767 119" fill="none" xmlns="http://www.w3.org/2000/svg">
<path d="M31.84 27.44V35H30.4V31.82H27.22V35H25.78V27.44H27.22V30.44H30.4V27.44H31.84ZM34.0572 35H32.5572L35.3772 27.44H36.6972L39.5172 35H38.0172L37.4772 33.44H34.5972L34.0572 35ZM36.9972 32.12L36.0372 29.36L35.0772 32.12H36.9972ZM41.0266 31.22C41.0266 31.58 41.0866 31.912 41.2066 32.216C41.3266 32.512 41.4866 32.772 41.6866 32.996C41.8866 33.212 42.1186 33.38 42.3826 33.5C42.6546 33.62 42.9426 33.68 43.2466 33.68C43.5026 33.68 43.7346 33.644 43.9426 33.572C44.1506 33.492 44.3346 33.392 44.4946 33.272C44.6626 33.144 44.7986 33.004 44.9026 32.852C45.0146 32.692 45.1026 32.528 45.1666 32.36H46.6666C46.5786 32.72 46.4346 33.064 46.2346 33.392C46.0346 33.72 45.7866 34.008 45.4906 34.256C45.2026 34.496 44.8666 34.692 44.4826 34.844C44.1066 34.988 43.6946 35.06 43.2466 35.06C42.7506 35.06 42.2786 34.964 41.8306 34.772C41.3906 34.572 41.0026 34.3 40.6666 33.956C40.3386 33.604 40.0746 33.196 39.8746 32.732C39.6826 32.268 39.5866 31.764 39.5866 31.22C39.5866 30.684 39.6826 30.184 39.8746 29.72C40.0746 29.248 40.3386 28.84 40.6666 28.496C41.0026 28.144 41.3906 27.872 41.8306 27.68C42.2786 27.48 42.7506 27.38 43.2466 27.38C43.6786 27.38 44.0786 27.456 44.4466 27.608C44.8226 27.752 45.1546 27.948 45.4426 28.196C45.7306 28.436 45.9746 28.72 46.1746 29.048C46.3746 29.376 46.5186 29.72 46.6066 30.08H45.1066C45.0586 29.912 44.9826 29.752 44.8786 29.6C44.7746 29.44 44.6426 29.3 44.4826 29.18C44.3306 29.052 44.1506 28.952 43.9426 28.88C43.7346 28.8 43.5026 28.76 43.2466 28.76C42.9426 28.76 42.6546 28.82 42.3826 28.94C42.1186 29.06 41.8866 29.232 41.6866 29.456C41.4866 29.672 41.3266 29.932 41.2066 30.236C41.0866 30.532 41.0266 30.86 41.0266 31.22ZM51.8809 35L49.1809 31.58V35H47.7409V27.44H49.1809V30.8L51.7009 27.44H53.3809L50.5609 31.16L53.5609 35H51.8809ZM56.3167 27.44H62.1967V28.82H59.9767V35H58.5367V28.82H56.3167V27.44ZM69.2111 27.44V35H67.7711V31.82H64.5911V35H63.1511V27.44H64.5911V30.44H67.7711V27.44H69.2111ZM76.1083 33.62V35H70.7683V27.44H75.9883V28.82H72.2083V30.44H75.6883V31.82H72.2083V33.62H76.1083ZM86.0627 27.44V35H84.8027L81.4427 30.08V35H80.0027V27.44H81.2627L84.6227 32.36V27.44H86.0627ZM88.6398 31.22C88.6398 31.58 88.6998 31.912 88.8198 32.216C88.9398 32.512 89.0998 32.772 89.2998 32.996C89.4998 33.212 89.7318 33.38 89.9958 33.5C90.2678 33.62 90.5558 33.68 90.8598 33.68C91.1558 33.68 91.4398 33.62 91.7118 33.5C91.9838 33.38 92.2198 33.212 92.4198 32.996C92.6198 32.772 92.7798 32.512 92.8998 32.216C93.0198 31.912 93.0798 31.58 93.0798 31.22C93.0798 30.86 93.0198 30.532 92.8998 30.236C92.7798 29.932 92.6198 29.672 92.4198 29.456C92.2198 29.232 91.9838 29.06 91.7118 28.94C91.4398 28.82 91.1558 28.76 90.8598 28.76C90.5558 28.76 90.2678 28.82 89.9958 28.94C89.7318 29.06 89.4998 29.232 89.2998 29.456C89.0998 29.672 88.9398 29.932 88.8198 30.236C88.6998 30.532 88.6398 30.86 88.6398 31.22ZM94.5198 31.22C94.5198 31.764 94.4198 32.268 94.2198 32.732C94.0278 33.196 93.7638 33.604 93.4278 33.956C93.0998 34.3 92.7118 34.572 92.2638 34.772C91.8238 34.964 91.3558 35.06 90.8598 35.06C90.3638 35.06 89.8918 34.964 89.4438 34.772C89.0038 34.572 88.6158 34.3 88.2798 33.956C87.9518 33.604 87.6878 33.196 87.4878 32.732C87.2958 32.268 87.1998 31.764 87.1998 31.22C87.1998 30.684 87.2958 30.184 87.4878 29.72C87.6878 29.248 87.9518 28.84 88.2798 28.496C88.6158 28.144 89.0038 27.872 89.4438 27.68C89.8918 27.48 90.3638 27.38 90.8598 27.38C91.3558 27.38 91.8238 27.48 92.2638 27.68C92.7118 27.872 93.0998 28.144 93.4278 28.496C93.7638 28.84 94.0278 29.248 94.2198 29.72C94.4198 30.184 94.5198 30.684 94.5198 31.22ZM98.1789 32.24H97.0989V35H95.6589V27.44H98.6589C99.0189 27.44 99.3509 27.504 99.6549 27.632C99.9669 27.752 100.235 27.92 100.459 28.136C100.683 28.352 100.859 28.604 100.987 28.892C101.115 29.172 101.179 29.468 101.179 29.78C101.179 30.204 101.095 30.556 100.927 30.836C100.759 31.116 100.571 31.344 100.363 31.52C100.123 31.728 99.8549 31.888 99.5589 32L101.359 35H99.7389L98.1789 32.24ZM97.0989 30.86H98.6589C98.9629 30.86 99.2189 30.76 99.4269 30.56C99.6349 30.352 99.7389 30.112 99.7389 29.84C99.7389 29.568 99.6349 29.332 99.4269 29.132C99.2189 28.924 98.9629 28.82 98.6589 28.82H97.0989V30.86ZM101.657 27.44H107.537V28.82H105.317V35H103.877V28.82H101.657V27.44ZM114.551 27.44V35H113.111V31.82H109.931V35H108.491V27.44H109.931V30.44H113.111V27.44H114.551ZM116.528 27.2C116.736 27.2 116.916 27.28 117.068 27.44C117.228 27.6 117.308 27.8 117.308 28.04C117.308 28.392 117.252 28.688 117.14 28.928C117.028 29.16 116.904 29.348 116.768 29.492C116.608 29.66 116.428 29.796 116.228 29.9L115.988 29.6C116.076 29.544 116.16 29.472 116.24 29.384C116.304 29.312 116.364 29.224 116.42 29.12C116.476 29.016 116.512 28.896 116.528 28.76C116.32 28.76 116.136 28.684 115.976 28.532C115.824 28.372 115.748 28.188 115.748 27.98C115.748 27.772 115.824 27.592 115.976 27.44C116.136 27.28 116.32 27.2 116.528 27.2ZM118.21 29.552C118.21 29.264 118.27 28.988 118.39 28.724C118.518 28.46 118.694 28.232 118.918 28.04C119.15 27.84 119.426 27.68 119.746 27.56C120.074 27.44 120.442 27.38 120.85 27.38C121.226 27.38 121.566 27.44 121.87 27.56C122.182 27.68 122.45 27.848 122.674 28.064C122.898 28.28 123.07 28.536 123.19 28.832C123.31 29.12 123.37 29.436 123.37 29.78H121.99C121.99 29.444 121.89 29.18 121.69 28.988C121.49 28.796 121.21 28.7 120.85 28.7C120.49 28.7 120.21 28.788 120.01 28.964C119.81 29.14 119.71 29.332 119.71 29.54C119.71 29.764 119.806 29.936 119.998 30.056C120.19 30.176 120.43 30.284 120.718 30.38C121.006 30.476 121.318 30.576 121.654 30.68C121.998 30.784 122.314 30.924 122.602 31.1C122.89 31.276 123.13 31.508 123.322 31.796C123.514 32.076 123.61 32.444 123.61 32.9C123.61 33.172 123.542 33.436 123.406 33.692C123.278 33.948 123.094 34.18 122.854 34.388C122.614 34.588 122.322 34.752 121.978 34.88C121.642 35 121.266 35.06 120.85 35.06C120.426 35.06 120.046 35 119.71 34.88C119.382 34.76 119.102 34.592 118.87 34.376C118.638 34.152 118.458 33.892 118.33 33.596C118.21 33.292 118.15 32.96 118.15 32.6H119.59C119.59 32.936 119.702 33.212 119.926 33.428C120.15 33.636 120.458 33.74 120.85 33.74C121.274 33.74 121.59 33.652 121.798 33.476C122.006 33.292 122.11 33.08 122.11 32.84C122.11 32.608 122.014 32.428 121.822 32.3C121.63 32.172 121.39 32.06 121.102 31.964C120.814 31.86 120.498 31.76 120.154 31.664C119.818 31.568 119.506 31.436 119.218 31.268C118.93 31.1 118.69 30.884 118.498 30.62C118.306 30.348 118.21 29.992 118.21 29.552ZM135.12 27.44V35H133.68V30.8L131.76 35H130.8L128.88 30.8V35H127.44V27.44H128.7L131.28 33.02L133.86 27.44H135.12ZM138.115 35H136.675V27.44H138.115V35ZM139.375 29.552C139.375 29.264 139.435 28.988 139.555 28.724C139.683 28.46 139.859 28.232 140.083 28.04C140.315 27.84 140.591 27.68 140.911 27.56C141.239 27.44 141.607 27.38 142.015 27.38C142.391 27.38 142.731 27.44 143.035 27.56C143.347 27.68 143.615 27.848 143.839 28.064C144.063 28.28 144.235 28.536 144.355 28.832C144.475 29.12 144.535 29.436 144.535 29.78H143.155C143.155 29.444 143.055 29.18 142.855 28.988C142.655 28.796 142.375 28.7 142.015 28.7C141.655 28.7 141.375 28.788 141.175 28.964C140.975 29.14 140.875 29.332 140.875 29.54C140.875 29.764 140.971 29.936 141.163 30.056C141.355 30.176 141.595 30.284 141.883 30.38C142.171 30.476 142.483 30.576 142.819 30.68C143.163 30.784 143.479 30.924 143.767 31.1C144.055 31.276 144.295 31.508 144.487 31.796C144.679 32.076 144.775 32.444 144.775 32.9C144.775 33.172 144.707 33.436 144.571 33.692C144.443 33.948 144.259 34.18 144.019 34.388C143.779 34.588 143.487 34.752 143.143 34.88C142.807 35 142.431 35.06 142.015 35.06C141.591 35.06 141.211 35 140.875 34.88C140.547 34.76 140.267 34.592 140.035 34.376C139.803 34.152 139.623 33.892 139.495 33.596C139.375 33.292 139.315 32.96 139.315 32.6H140.755C140.755 32.936 140.867 33.212 141.091 33.428C141.315 33.636 141.623 33.74 142.015 33.74C142.439 33.74 142.755 33.652 142.963 33.476C143.171 33.292 143.275 33.08 143.275 32.84C143.275 32.608 143.179 32.428 142.987 32.3C142.795 32.172 142.555 32.06 142.267 31.964C141.979 31.86 141.663 31.76 141.319 31.664C140.983 31.568 140.671 31.436 140.383 31.268C140.095 31.1 139.855 30.884 139.663 30.62C139.471 30.348 139.375 29.992 139.375 29.552ZM145.609 29.552C145.609 29.264 145.669 28.988 145.789 28.724C145.917 28.46 146.093 28.232 146.317 28.04C146.549 27.84 146.825 27.68 147.145 27.56C147.473 27.44 147.841 27.38 148.249 27.38C148.625 27.38 148.965 27.44 149.269 27.56C149.581 27.68 149.849 27.848 150.073 28.064C150.297 28.28 150.469 28.536 150.589 28.832C150.709 29.12 150.769 29.436 150.769 29.78H149.389C149.389 29.444 149.289 29.18 149.089 28.988C148.889 28.796 148.609 28.7 148.249 28.7C147.889 28.7 147.609 28.788 147.409 28.964C147.209 29.14 147.109 29.332 147.109 29.54C147.109 29.764 147.205 29.936 147.397 30.056C147.589 30.176 147.829 30.284 148.117 30.38C148.405 30.476 148.717 30.576 149.053 30.68C149.397 30.784 149.713 30.924 150.001 31.1C150.289 31.276 150.529 31.508 150.721 31.796C150.913 32.076 151.009 32.444 151.009 32.9C151.009 33.172 150.941 33.436 150.805 33.692C150.677 33.948 150.493 34.18 150.253 34.388C150.013 34.588 149.721 34.752 149.377 34.88C149.041 35 148.665 35.06 148.249 35.06C147.825 35.06 147.445 35 147.109 34.88C146.781 34.76 146.501 34.592 146.269 34.376C146.037 34.152 145.857 33.892 145.729 33.596C145.609 33.292 145.549 32.96 145.549 32.6H146.989C146.989 32.936 147.101 33.212 147.325 33.428C147.549 33.636 147.857 33.74 148.249 33.74C148.673 33.74 148.989 33.652 149.197 33.476C149.405 33.292 149.509 33.08 149.509 32.84C149.509 32.608 149.413 32.428 149.221 32.3C149.029 32.172 148.789 32.06 148.501 31.964C148.213 31.86 147.897 31.76 147.553 31.664C147.217 31.568 146.905 31.436 146.617 31.268C146.329 31.1 146.089 30.884 145.897 30.62C145.705 30.348 145.609 29.992 145.609 29.552ZM153.583 35H152.143V27.44H153.583V35ZM156.163 31.22C156.163 31.58 156.223 31.912 156.343 32.216C156.463 32.512 156.623 32.772 156.823 32.996C157.023 33.212 157.255 33.38 157.519 33.5C157.791 33.62 158.079 33.68 158.383 33.68C158.679 33.68 158.963 33.62 159.235 33.5C159.507 33.38 159.743 33.212 159.943 32.996C160.143 32.772 160.303 32.512 160.423 32.216C160.543 31.912 160.603 31.58 160.603 31.22C160.603 30.86 160.543 30.532 160.423 30.236C160.303 29.932 160.143 29.672 159.943 29.456C159.743 29.232 159.507 29.06 159.235 28.94C158.963 28.82 158.679 28.76 158.383 28.76C158.079 28.76 157.791 28.82 157.519 28.94C157.255 29.06 157.023 29.232 156.823 29.456C156.623 29.672 156.463 29.932 156.343 30.236C156.223 30.532 156.163 30.86 156.163 31.22ZM162.043 31.22C162.043 31.764 161.943 32.268 161.743 32.732C161.551 33.196 161.287 33.604 160.951 33.956C160.623 34.3 160.235 34.572 159.787 34.772C159.347 34.964 158.879 35.06 158.383 35.06C157.887 35.06 157.415 34.964 156.967 34.772C156.527 34.572 156.139 34.3 155.803 33.956C155.475 33.604 155.211 33.196 155.011 32.732C154.819 32.268 154.723 31.764 154.723 31.22C154.723 30.684 154.819 30.184 155.011 29.72C155.211 29.248 155.475 28.84 155.803 28.496C156.139 28.144 156.527 27.872 156.967 27.68C157.415 27.48 157.887 27.38 158.383 27.38C158.879 27.38 159.347 27.48 159.787 27.68C160.235 27.872 160.623 28.144 160.951 28.496C161.287 28.84 161.551 29.248 161.743 29.72C161.943 30.184 162.043 30.684 162.043 31.22ZM169.242 27.44V35H167.982L164.622 30.08V35H163.182V27.44H164.442L167.802 32.36V27.44H169.242Z" fill="black"/>
<rect x="31" y="64" width="706" height="15" fill="#FEFF8A"/>
<path d="M54.5312 51.7656H57.6484V82H53.8047V61.6094L44.4297 82H42.0391L32.6875 61.6094V82H28.8438V51.7656H31.9609L43.2344 76L54.5312 51.7656ZM72.7422 60.1562C73.9297 60.1562 75.0234 60.3594 76.0234 60.7656C77.0391 61.1562 77.9062 61.6875 78.625 62.3594C79.3438 63.0312 79.8984 63.8203 80.2891 64.7266C80.6953 65.6172 80.8984 66.5781 80.8984 67.6094V82H78.2734L77.3125 79.6094C76.8281 80.125 76.2812 80.5703 75.6719 80.9453C75.125 81.3047 74.4531 81.6094 73.6562 81.8594C72.8594 82.1094 71.9141 82.2344 70.8203 82.2344C69.7266 82.2344 68.7422 82.0703 67.8672 81.7422C66.9922 81.3984 66.2422 80.9297 65.6172 80.3359C64.9922 79.7422 64.5 79.0547 64.1406 78.2734C63.7969 77.4922 63.625 76.6562 63.625 75.7656C63.625 74.7344 63.8281 73.7969 64.2344 72.9531C64.6562 72.1094 65.375 71.375 66.3906 70.75C67.4219 70.125 68.8281 69.6484 70.6094 69.3203C72.3906 68.9766 74.625 68.8047 77.3125 68.8047V67.6094C77.3125 66.5156 76.8828 65.5625 76.0234 64.75C75.1797 63.9375 74.0859 63.5312 72.7422 63.5312C71.3984 63.5312 70.4062 63.8125 69.7656 64.375C69.125 64.9219 68.6797 65.6797 68.4297 66.6484H64.5859C64.7109 65.7578 64.9844 64.9219 65.4062 64.1406C65.8281 63.3438 66.3828 62.6484 67.0703 62.0547C67.7578 61.4609 68.5703 61 69.5078 60.6719C70.4453 60.3281 71.5234 60.1562 72.7422 60.1562ZM70.8203 78.8828C71.7734 78.8828 72.6484 78.7344 73.4453 78.4375C74.2578 78.125 74.9453 77.7344 75.5078 77.2656C76.0703 76.7812 76.5078 76.2422 76.8203 75.6484C77.1484 75.0547 77.3125 74.4531 77.3125 73.8438V72.1562C75.1406 72.1562 73.3984 72.25 72.0859 72.4375C70.7734 72.6094 69.75 72.8672 69.0156 73.2109C68.2969 73.5391 67.8203 73.9375 67.5859 74.4062C67.3516 74.8594 67.2344 75.3906 67.2344 76C67.2344 76.7344 67.5547 77.3984 68.1953 77.9922C68.8516 78.5859 69.7266 78.8828 70.8203 78.8828ZM90.7422 82H87.1328V51.7656H90.7422V82ZM99.8594 82L90.7422 70.7266L98.8984 60.3906H102.977L94.8203 70.4688L104.172 82H99.8594ZM124.117 76.2344C123.758 77 123.305 77.7578 122.758 78.5078C122.211 79.2422 121.57 79.8828 120.836 80.4297C120.102 80.9609 119.266 81.3984 118.328 81.7422C117.406 82.0703 116.375 82.2344 115.234 82.2344C113.859 82.2344 112.555 81.9688 111.32 81.4375C110.086 80.8906 109.008 80.1328 108.086 79.1641C107.18 78.1797 106.461 77.0156 105.93 75.6719C105.414 74.3281 105.156 72.8359 105.156 71.1953C105.156 69.5703 105.414 68.0859 105.93 66.7422C106.461 65.3984 107.172 64.2422 108.062 63.2734C108.969 62.2891 110.023 61.5234 111.227 60.9766C112.43 60.4297 113.688 60.1562 115 60.1562C116.312 60.1562 117.547 60.4141 118.703 60.9297C119.875 61.4453 120.891 62.1797 121.75 63.1328C122.625 64.0703 123.312 65.2031 123.812 66.5312C124.328 67.8594 124.586 69.3359 124.586 70.9609C124.586 71.2734 124.57 71.5469 124.539 71.7812C124.508 72 124.477 72.1875 124.445 72.3438C124.414 72.5312 124.383 72.7109 124.352 72.8828H109C109.062 73.6484 109.273 74.3984 109.633 75.1328C110.008 75.8672 110.469 76.5078 111.016 77.0547C111.578 77.6016 112.227 78.0469 112.961 78.3906C113.711 78.7188 114.469 78.8828 115.234 78.8828C115.906 78.8828 116.5 78.7891 117.016 78.6016C117.547 78.3984 118.031 78.1719 118.469 77.9219C118.906 77.6719 119.266 77.3984 119.547 77.1016C119.844 76.7891 120.086 76.5 120.273 76.2344H124.117ZM115 63.5312C114.266 63.5312 113.562 63.6875 112.891 64C112.234 64.3125 111.633 64.7422 111.086 65.2891C110.555 65.8359 110.102 66.4922 109.727 67.2578C109.367 68.0234 109.125 68.8594 109 69.7656H120.742C120.492 67.8438 119.828 66.3281 118.75 65.2188C117.688 64.0938 116.438 63.5312 115 63.5312ZM143.289 82H139.68V60.3906H143.289V82ZM139.211 54.2969C139.211 53.625 139.422 53.0781 139.844 52.6562C140.281 52.2188 140.82 52 141.461 52C142.133 52 142.68 52.2188 143.102 52.6562C143.539 53.0781 143.758 53.625 143.758 54.2969C143.758 54.9375 143.539 55.4766 143.102 55.9141C142.68 56.3516 142.133 56.5703 141.461 56.5703C140.82 56.5703 140.281 56.3516 139.844 55.9141C139.422 55.4766 139.211 54.9375 139.211 54.2969ZM151.68 54.6484H154.797V60.3906H159.602V63.7656H154.797V75.0391C154.797 76.2578 155.125 77.2031 155.781 77.875C156.438 78.5469 157.312 78.8828 158.406 78.8828C158.719 78.8828 159.008 78.8516 159.273 78.7891C159.398 78.7578 159.508 78.7109 159.602 78.6484V81.7656C159.445 81.8594 159.273 81.9375 159.086 82C158.664 82.1562 158.117 82.2344 157.445 82.2344C156.617 82.2344 155.828 82.0625 155.078 81.7188C154.328 81.3594 153.664 80.8672 153.086 80.2422C152.508 79.6172 152.047 78.8672 151.703 77.9922C151.375 77.1172 151.211 76.1328 151.211 75.0391V63.7656H147.367V60.3906H149.055C150.82 60.3906 151.695 59.5156 151.68 57.7656V54.6484ZM192.742 76.2344C192.383 77 191.93 77.7578 191.383 78.5078C190.836 79.2422 190.195 79.8828 189.461 80.4297C188.727 80.9609 187.891 81.3984 186.953 81.7422C186.031 82.0703 185 82.2344 183.859 82.2344C182.484 82.2344 181.18 81.9688 179.945 81.4375C178.711 80.8906 177.633 80.1328 176.711 79.1641C175.805 78.1797 175.086 77.0156 174.555 75.6719C174.039 74.3281 173.781 72.8359 173.781 71.1953C173.781 69.5703 174.039 68.0859 174.555 66.7422C175.086 65.3984 175.797 64.2422 176.688 63.2734C177.594 62.2891 178.648 61.5234 179.852 60.9766C181.055 60.4297 182.312 60.1562 183.625 60.1562C184.938 60.1562 186.172 60.4141 187.328 60.9297C188.5 61.4453 189.516 62.1797 190.375 63.1328C191.25 64.0703 191.938 65.2031 192.438 66.5312C192.953 67.8594 193.211 69.3359 193.211 70.9609C193.211 71.2734 193.195 71.5469 193.164 71.7812C193.133 72 193.102 72.1875 193.07 72.3438C193.039 72.5312 193.008 72.7109 192.977 72.8828H177.625C177.688 73.6484 177.898 74.3984 178.258 75.1328C178.633 75.8672 179.094 76.5078 179.641 77.0547C180.203 77.6016 180.852 78.0469 181.586 78.3906C182.336 78.7188 183.094 78.8828 183.859 78.8828C184.531 78.8828 185.125 78.7891 185.641 78.6016C186.172 78.3984 186.656 78.1719 187.094 77.9219C187.531 77.6719 187.891 77.3984 188.172 77.1016C188.469 76.7891 188.711 76.5 188.898 76.2344H192.742ZM183.625 63.5312C182.891 63.5312 182.188 63.6875 181.516 64C180.859 64.3125 180.258 64.7422 179.711 65.2891C179.18 65.8359 178.727 66.4922 178.352 67.2578C177.992 68.0234 177.75 68.8594 177.625 69.7656H189.367C189.117 67.8438 188.453 66.3281 187.375 65.2188C186.312 64.0938 185.062 63.5312 183.625 63.5312ZM206.148 60.1562C207.336 60.1562 208.43 60.3594 209.43 60.7656C210.445 61.1562 211.312 61.6875 212.031 62.3594C212.75 63.0312 213.305 63.8203 213.695 64.7266C214.102 65.6172 214.305 66.5781 214.305 67.6094V82H211.68L210.719 79.6094C210.234 80.125 209.688 80.5703 209.078 80.9453C208.531 81.3047 207.859 81.6094 207.062 81.8594C206.266 82.1094 205.32 82.2344 204.227 82.2344C203.133 82.2344 202.148 82.0703 201.273 81.7422C200.398 81.3984 199.648 80.9297 199.023 80.3359C198.398 79.7422 197.906 79.0547 197.547 78.2734C197.203 77.4922 197.031 76.6562 197.031 75.7656C197.031 74.7344 197.234 73.7969 197.641 72.9531C198.062 72.1094 198.781 71.375 199.797 70.75C200.828 70.125 202.234 69.6484 204.016 69.3203C205.797 68.9766 208.031 68.8047 210.719 68.8047V67.6094C210.719 66.5156 210.289 65.5625 209.43 64.75C208.586 63.9375 207.492 63.5312 206.148 63.5312C204.805 63.5312 203.812 63.8125 203.172 64.375C202.531 64.9219 202.086 65.6797 201.836 66.6484H197.992C198.117 65.7578 198.391 64.9219 198.812 64.1406C199.234 63.3438 199.789 62.6484 200.477 62.0547C201.164 61.4609 201.977 61 202.914 60.6719C203.852 60.3281 204.93 60.1562 206.148 60.1562ZM204.227 78.8828C205.18 78.8828 206.055 78.7344 206.852 78.4375C207.664 78.125 208.352 77.7344 208.914 77.2656C209.477 76.7812 209.914 76.2422 210.227 75.6484C210.555 75.0547 210.719 74.4531 210.719 73.8438V72.1562C208.547 72.1562 206.805 72.25 205.492 72.4375C204.18 72.6094 203.156 72.8672 202.422 73.2109C201.703 73.5391 201.227 73.9375 200.992 74.4062C200.758 74.8594 200.641 75.3906 200.641 76C200.641 76.7344 200.961 77.3984 201.602 77.9922C202.258 78.5859 203.133 78.8828 204.227 78.8828ZM234.461 75.7656C234.461 76.6562 234.281 77.4922 233.922 78.2734C233.578 79.0547 233.086 79.7422 232.445 80.3359C231.805 80.9297 231.031 81.3984 230.125 81.7422C229.219 82.0703 228.188 82.2344 227.031 82.2344C224.625 82.2344 222.734 81.5938 221.359 80.3125C219.984 79.0312 219.234 77.4375 219.109 75.5312H222.719C222.844 76.4844 223.258 77.2812 223.961 77.9219C224.664 78.5625 225.688 78.8828 227.031 78.8828C228.25 78.8828 229.195 78.5703 229.867 77.9453C230.539 77.3203 230.875 76.5938 230.875 75.7656C230.875 74.9688 230.594 74.3672 230.031 73.9609C229.469 73.5547 228.773 73.2344 227.945 73C227.117 72.7656 226.211 72.5469 225.227 72.3438C224.258 72.125 223.352 71.8125 222.508 71.4062C221.68 70.9844 220.984 70.3906 220.422 69.625C219.859 68.8438 219.578 67.7656 219.578 66.3906C219.578 65.5625 219.75 64.7734 220.094 64.0234C220.453 63.2734 220.945 62.6094 221.57 62.0312C222.195 61.4531 222.945 61 223.82 60.6719C224.711 60.3281 225.703 60.1562 226.797 60.1562C229.094 60.1562 230.875 60.7578 232.141 61.9609C233.406 63.1641 234.102 64.7266 234.227 66.6484H230.617C230.492 65.6953 230.125 64.9375 229.516 64.375C228.906 63.8125 228 63.5312 226.797 63.5312C225.703 63.5312 224.828 63.8281 224.172 64.4219C223.516 65 223.188 65.6562 223.188 66.3906C223.188 67.1875 223.469 67.7891 224.031 68.1953C224.594 68.6016 225.289 68.9297 226.117 69.1797C226.945 69.4141 227.844 69.6328 228.812 69.8359C229.797 70.0391 230.703 70.3516 231.531 70.7734C232.375 71.1797 233.07 71.7812 233.617 72.5781C234.18 73.3594 234.461 74.4219 234.461 75.7656ZM236.594 60.3906H240.438L246.93 76.9609L253.398 60.3906H257.242L247.891 83.9219C247.031 86.0938 246.125 87.6328 245.172 88.5391C244.234 89.4609 243.062 89.9219 241.656 89.9219C241.469 89.9219 241.289 89.9141 241.117 89.8984C240.961 89.8828 240.805 89.8594 240.648 89.8281C240.492 89.7969 240.344 89.75 240.203 89.6875V86.8047C241.297 86.8047 242.109 86.5625 242.641 86.0781C243.188 85.5938 243.656 84.875 244.047 83.9219L245.008 81.5312L236.594 60.3906ZM280.281 63.7656H275.477V82H271.891V63.7656H269.242V60.3906H271.891V58.7266C271.891 57.6328 272.055 56.6484 272.383 55.7734C272.727 54.8828 273.188 54.1328 273.766 53.5234C274.344 52.8984 275.008 52.4141 275.758 52.0703C276.508 51.7109 277.297 51.5312 278.125 51.5312C278.484 51.5312 278.797 51.5547 279.062 51.6016C279.328 51.6484 279.562 51.7031 279.766 51.7656C279.953 51.8594 280.125 51.9375 280.281 52V55.1172C280.188 55.0859 280.078 55.0547 279.953 55.0234C279.859 54.9922 279.727 54.9609 279.555 54.9297C279.398 54.8984 279.242 54.8828 279.086 54.8828C277.992 54.8828 277.117 55.2188 276.461 55.8906C275.805 56.5625 275.477 57.5078 275.477 58.7266V60.3906H280.281V63.7656ZM286.539 71.1953C286.539 72.3516 286.711 73.4062 287.055 74.3594C287.414 75.2969 287.898 76.1016 288.508 76.7734C289.117 77.4453 289.812 77.9688 290.594 78.3438C291.391 78.7031 292.203 78.8828 293.031 78.8828C293.859 78.8828 294.664 78.7031 295.445 78.3438C296.227 77.9688 296.914 77.4453 297.508 76.7734C298.102 76.1016 298.578 75.2969 298.938 74.3594C299.312 73.4062 299.5 72.3516 299.5 71.1953C299.5 70.0391 299.312 68.9922 298.938 68.0547C298.578 67.1172 298.102 66.3125 297.508 65.6406C296.914 64.9688 296.227 64.4531 295.445 64.0938C294.664 63.7188 293.859 63.5312 293.031 63.5312C292.203 63.5312 291.391 63.7188 290.594 64.0938C289.812 64.4531 289.117 64.9688 288.508 65.6406C287.898 66.3125 287.414 67.1172 287.055 68.0547C286.711 68.9922 286.539 70.0391 286.539 71.1953ZM303.109 71.1953C303.109 72.8203 302.844 74.3125 302.312 75.6719C301.781 77.0156 301.062 78.1797 300.156 79.1641C299.25 80.1328 298.18 80.8906 296.945 81.4375C295.711 81.9688 294.406 82.2344 293.031 82.2344C291.656 82.2344 290.352 81.9688 289.117 81.4375C287.883 80.8906 286.805 80.1328 285.883 79.1641C284.977 78.1797 284.258 77.0156 283.727 75.6719C283.211 74.3281 282.953 72.8359 282.953 71.1953C282.953 69.5703 283.211 68.0859 283.727 66.7422C284.258 65.3984 284.977 64.2422 285.883 63.2734C286.805 62.2891 287.883 61.5234 289.117 60.9766C290.352 60.4297 291.656 60.1562 293.031 60.1562C294.406 60.1562 295.711 60.4297 296.945 60.9766C298.18 61.5234 299.25 62.2891 300.156 63.2734C301.062 64.2422 301.781 65.3984 302.312 66.7422C302.844 68.0859 303.109 69.5703 303.109 71.1953ZM318.227 63.7656H317.266C315.562 63.7656 314.18 64.3125 313.117 65.4062C312.055 66.4844 311.523 67.9375 311.523 69.7656V82H307.914V60.3906H310.562L311.523 62.8047C311.977 62.3203 312.5 61.8906 313.094 61.5156C313.641 61.1562 314.297 60.8438 315.062 60.5781C315.828 60.2969 316.727 60.1562 317.758 60.1562H318.227V63.7656ZM340.773 60.1562C341.961 60.1562 343.055 60.3594 344.055 60.7656C345.07 61.1562 345.938 61.6875 346.656 62.3594C347.375 63.0312 347.93 63.8203 348.32 64.7266C348.727 65.6172 348.93 66.5781 348.93 67.6094V82H346.305L345.344 79.6094C344.859 80.125 344.312 80.5703 343.703 80.9453C343.156 81.3047 342.484 81.6094 341.688 81.8594C340.891 82.1094 339.945 82.2344 338.852 82.2344C337.758 82.2344 336.773 82.0703 335.898 81.7422C335.023 81.3984 334.273 80.9297 333.648 80.3359C333.023 79.7422 332.531 79.0547 332.172 78.2734C331.828 77.4922 331.656 76.6562 331.656 75.7656C331.656 74.7344 331.859 73.7969 332.266 72.9531C332.688 72.1094 333.406 71.375 334.422 70.75C335.453 70.125 336.859 69.6484 338.641 69.3203C340.422 68.9766 342.656 68.8047 345.344 68.8047V67.6094C345.344 66.5156 344.914 65.5625 344.055 64.75C343.211 63.9375 342.117 63.5312 340.773 63.5312C339.43 63.5312 338.438 63.8125 337.797 64.375C337.156 64.9219 336.711 65.6797 336.461 66.6484H332.617C332.742 65.7578 333.016 64.9219 333.438 64.1406C333.859 63.3438 334.414 62.6484 335.102 62.0547C335.789 61.4609 336.602 61 337.539 60.6719C338.477 60.3281 339.555 60.1562 340.773 60.1562ZM338.852 78.8828C339.805 78.8828 340.68 78.7344 341.477 78.4375C342.289 78.125 342.977 77.7344 343.539 77.2656C344.102 76.7812 344.539 76.2422 344.852 75.6484C345.18 75.0547 345.344 74.4531 345.344 73.8438V72.1562C343.172 72.1562 341.43 72.25 340.117 72.4375C338.805 72.6094 337.781 72.8672 337.047 73.2109C336.328 73.5391 335.852 73.9375 335.617 74.4062C335.383 74.8594 335.266 75.3906 335.266 76C335.266 76.7344 335.586 77.3984 336.227 77.9922C336.883 78.5859 337.758 78.8828 338.852 78.8828ZM364.773 60.1562C365.93 60.1562 367.008 60.3906 368.008 60.8594C369.023 61.3281 369.914 61.9688 370.68 62.7812C371.445 63.5938 372.047 64.5781 372.484 65.7344C372.938 66.875 373.164 68.1406 373.164 69.5312V82H369.578V69.5312C369.578 68.6406 369.43 67.8281 369.133 67.0938C368.852 66.3438 368.469 65.7031 367.984 65.1719C367.5 64.6406 366.938 64.2344 366.297 63.9531C365.672 63.6719 365 63.5312 364.281 63.5312C362.578 63.5312 361.195 64.0781 360.133 65.1719C359.07 66.25 358.539 67.7031 358.539 69.5312V82H354.93V60.3906H357.578L358.539 62.8047C358.992 62.3203 359.516 61.8906 360.109 61.5156C360.656 61.1562 361.312 60.8438 362.078 60.5781C362.844 60.2969 363.742 60.1562 364.773 60.1562ZM376.516 60.3906H380.359L386.852 76.9609L393.32 60.3906H397.164L387.812 83.9219C386.953 86.0938 386.047 87.6328 385.094 88.5391C384.156 89.4609 382.984 89.9219 381.578 89.9219C381.391 89.9219 381.211 89.9141 381.039 89.8984C380.883 89.8828 380.727 89.8594 380.57 89.8281C380.414 89.7969 380.266 89.75 380.125 89.6875V86.8047C381.219 86.8047 382.031 86.5625 382.562 86.0781C383.109 85.5938 383.578 84.875 383.969 83.9219L384.93 81.5312L376.516 60.3906ZM404.125 71.1953C404.125 72.3516 404.312 73.4062 404.688 74.3594C405.062 75.2969 405.547 76.1016 406.141 76.7734C406.75 77.4453 407.461 77.9688 408.273 78.3438C409.102 78.7031 409.961 78.8828 410.852 78.8828C411.742 78.8828 412.594 78.7031 413.406 78.3438C414.234 77.9688 414.953 77.4453 415.562 76.7734C416.172 76.1016 416.656 75.2969 417.016 74.3594C417.391 73.4062 417.578 72.3516 417.578 71.1953C417.578 70.0391 417.391 68.9922 417.016 68.0547C416.656 67.1172 416.172 66.3125 415.562 65.6406C414.953 64.9688 414.242 64.4531 413.43 64.0938C412.617 63.7188 411.758 63.5312 410.852 63.5312C409.961 63.5312 409.102 63.7188 408.273 64.0938C407.461 64.4531 406.75 64.9688 406.141 65.6406C405.547 66.3125 405.062 67.1172 404.688 68.0547C404.312 68.9922 404.125 70.0391 404.125 71.1953ZM403.656 82H401.008V51.7656H404.617V63.0391C405.07 62.4922 405.617 62.0156 406.258 61.6094C406.805 61.25 407.477 60.9219 408.273 60.625C409.07 60.3125 410.008 60.1562 411.086 60.1562C412.461 60.1562 413.766 60.4297 415 60.9766C416.234 61.5234 417.305 62.2891 418.211 63.2734C419.133 64.2422 419.859 65.3984 420.391 66.7422C420.922 68.0859 421.188 69.5703 421.188 71.1953C421.188 72.8203 420.922 74.3125 420.391 75.6719C419.859 77.0156 419.133 78.1797 418.211 79.1641C417.305 80.1328 416.234 80.8906 415 81.4375C413.781 81.9688 412.477 82.2344 411.086 82.2344C409.992 82.2344 409.047 82.1094 408.25 81.8594C407.453 81.5938 406.789 81.2891 406.258 80.9453C405.617 80.5547 405.07 80.1094 404.617 79.6094L403.656 82ZM428.148 71.1953C428.148 72.3516 428.32 73.4062 428.664 74.3594C429.023 75.2969 429.508 76.1016 430.117 76.7734C430.727 77.4453 431.422 77.9688 432.203 78.3438C433 78.7031 433.812 78.8828 434.641 78.8828C435.469 78.8828 436.273 78.7031 437.055 78.3438C437.836 77.9688 438.523 77.4453 439.117 76.7734C439.711 76.1016 440.188 75.2969 440.547 74.3594C440.922 73.4062 441.109 72.3516 441.109 71.1953C441.109 70.0391 440.922 68.9922 440.547 68.0547C440.188 67.1172 439.711 66.3125 439.117 65.6406C438.523 64.9688 437.836 64.4531 437.055 64.0938C436.273 63.7188 435.469 63.5312 434.641 63.5312C433.812 63.5312 433 63.7188 432.203 64.0938C431.422 64.4531 430.727 64.9688 430.117 65.6406C429.508 66.3125 429.023 67.1172 428.664 68.0547C428.32 68.9922 428.148 70.0391 428.148 71.1953ZM444.719 71.1953C444.719 72.8203 444.453 74.3125 443.922 75.6719C443.391 77.0156 442.672 78.1797 441.766 79.1641C440.859 80.1328 439.789 80.8906 438.555 81.4375C437.32 81.9688 436.016 82.2344 434.641 82.2344C433.266 82.2344 431.961 81.9688 430.727 81.4375C429.492 80.8906 428.414 80.1328 427.492 79.1641C426.586 78.1797 425.867 77.0156 425.336 75.6719C424.82 74.3281 424.562 72.8359 424.562 71.1953C424.562 69.5703 424.82 68.0859 425.336 66.7422C425.867 65.3984 426.586 64.2422 427.492 63.2734C428.414 62.2891 429.492 61.5234 430.727 60.9766C431.961 60.4297 433.266 60.1562 434.641 60.1562C436.016 60.1562 437.32 60.4297 438.555 60.9766C439.789 61.5234 440.859 62.2891 441.766 63.2734C442.672 64.2422 443.391 65.3984 443.922 66.7422C444.453 68.0859 444.719 69.5703 444.719 71.1953ZM465.133 71.1953C465.133 70.0391 464.945 68.9922 464.57 68.0547C464.211 67.1172 463.727 66.3125 463.117 65.6406C462.508 64.9688 461.789 64.4531 460.961 64.0938C460.148 63.7188 459.297 63.5312 458.406 63.5312C457.516 63.5312 456.656 63.7188 455.828 64.0938C455.016 64.4531 454.305 64.9688 453.695 65.6406C453.086 66.3125 452.594 67.1172 452.219 68.0547C451.859 68.9922 451.68 70.0391 451.68 71.1953C451.68 72.3516 451.859 73.4062 452.219 74.3594C452.594 75.2969 453.086 76.1016 453.695 76.7734C454.305 77.4453 455.016 77.9688 455.828 78.3438C456.656 78.7031 457.516 78.8828 458.406 78.8828C459.297 78.8828 460.148 78.7031 460.961 78.3438C461.789 77.9688 462.508 77.4453 463.117 76.7734C463.727 76.1016 464.211 75.2969 464.57 74.3594C464.945 73.4062 465.133 72.3516 465.133 71.1953ZM464.641 79.6094C464.156 80.125 463.617 80.5703 463.023 80.9453C462.477 81.3047 461.797 81.6094 460.984 81.8594C460.188 82.1094 459.25 82.2344 458.172 82.2344C456.797 82.2344 455.492 81.9688 454.258 81.4375C453.023 80.8906 451.945 80.1328 451.023 79.1641C450.117 78.1797 449.398 77.0156 448.867 75.6719C448.352 74.3281 448.094 72.8359 448.094 71.1953C448.094 69.5703 448.352 68.0859 448.867 66.7422C449.398 65.3984 450.117 64.2422 451.023 63.2734C451.945 62.2891 453.023 61.5234 454.258 60.9766C455.492 60.4297 456.797 60.1562 458.172 60.1562C459.266 60.1562 460.211 60.3125 461.008 60.625C461.805 60.9219 462.477 61.25 463.023 61.6094C463.633 62.0312 464.172 62.5078 464.641 63.0391V51.7656H468.25V82H465.602L464.641 79.6094ZM472.094 60.3906H475.938L482.43 76.9609L488.898 60.3906H492.742L483.391 83.9219C482.531 86.0938 481.625 87.6328 480.672 88.5391C479.734 89.4609 478.562 89.9219 477.156 89.9219C476.969 89.9219 476.789 89.9141 476.617 89.8984C476.461 89.8828 476.305 89.8594 476.148 89.8281C475.992 89.7969 475.844 89.75 475.703 89.6875V86.8047C476.797 86.8047 477.609 86.5625 478.141 86.0781C478.688 85.5938 479.156 84.875 479.547 83.9219L480.508 81.5312L472.094 60.3906ZM508.82 54.6484H511.938V60.3906H516.742V63.7656H511.938V75.0391C511.938 76.2578 512.266 77.2031 512.922 77.875C513.578 78.5469 514.453 78.8828 515.547 78.8828C515.859 78.8828 516.148 78.8516 516.414 78.7891C516.539 78.7578 516.648 78.7109 516.742 78.6484V81.7656C516.586 81.8594 516.414 81.9375 516.227 82C515.805 82.1562 515.258 82.2344 514.586 82.2344C513.758 82.2344 512.969 82.0625 512.219 81.7188C511.469 81.3594 510.805 80.8672 510.227 80.2422C509.648 79.6172 509.188 78.8672 508.844 77.9922C508.516 77.1172 508.352 76.1328 508.352 75.0391V63.7656H504.508V60.3906H506.195C507.961 60.3906 508.836 59.5156 508.82 57.7656V54.6484ZM523.727 71.1953C523.727 72.3516 523.898 73.4062 524.242 74.3594C524.602 75.2969 525.086 76.1016 525.695 76.7734C526.305 77.4453 527 77.9688 527.781 78.3438C528.578 78.7031 529.391 78.8828 530.219 78.8828C531.047 78.8828 531.852 78.7031 532.633 78.3438C533.414 77.9688 534.102 77.4453 534.695 76.7734C535.289 76.1016 535.766 75.2969 536.125 74.3594C536.5 73.4062 536.688 72.3516 536.688 71.1953C536.688 70.0391 536.5 68.9922 536.125 68.0547C535.766 67.1172 535.289 66.3125 534.695 65.6406C534.102 64.9688 533.414 64.4531 532.633 64.0938C531.852 63.7188 531.047 63.5312 530.219 63.5312C529.391 63.5312 528.578 63.7188 527.781 64.0938C527 64.4531 526.305 64.9688 525.695 65.6406C525.086 66.3125 524.602 67.1172 524.242 68.0547C523.898 68.9922 523.727 70.0391 523.727 71.1953ZM540.297 71.1953C540.297 72.8203 540.031 74.3125 539.5 75.6719C538.969 77.0156 538.25 78.1797 537.344 79.1641C536.438 80.1328 535.367 80.8906 534.133 81.4375C532.898 81.9688 531.594 82.2344 530.219 82.2344C528.844 82.2344 527.539 81.9688 526.305 81.4375C525.07 80.8906 523.992 80.1328 523.07 79.1641C522.164 78.1797 521.445 77.0156 520.914 75.6719C520.398 74.3281 520.141 72.8359 520.141 71.1953C520.141 69.5703 520.398 68.0859 520.914 66.7422C521.445 65.3984 522.164 64.2422 523.07 63.2734C523.992 62.2891 525.07 61.5234 526.305 60.9766C527.539 60.4297 528.844 60.1562 530.219 60.1562C531.594 60.1562 532.898 60.4297 534.133 60.9766C535.367 61.5234 536.438 62.2891 537.344 63.2734C538.25 64.2422 538.969 65.3984 539.5 66.7422C540.031 68.0859 540.297 69.5703 540.297 71.1953ZM571.023 71.1953C571.023 70.0391 570.836 68.9922 570.461 68.0547C570.102 67.1172 569.617 66.3125 569.008 65.6406C568.398 64.9688 567.68 64.4531 566.852 64.0938C566.039 63.7188 565.188 63.5312 564.297 63.5312C563.406 63.5312 562.547 63.7188 561.719 64.0938C560.906 64.4531 560.195 64.9688 559.586 65.6406C558.977 66.3125 558.484 67.1172 558.109 68.0547C557.75 68.9922 557.57 70.0391 557.57 71.1953C557.57 72.3516 557.75 73.4062 558.109 74.3594C558.484 75.2969 558.977 76.1016 559.586 76.7734C560.195 77.4453 560.906 77.9688 561.719 78.3438C562.547 78.7031 563.406 78.8828 564.297 78.8828C565.188 78.8828 566.039 78.7031 566.852 78.3438C567.68 77.9688 568.398 77.4453 569.008 76.7734C569.617 76.1016 570.102 75.2969 570.461 74.3594C570.836 73.4062 571.023 72.3516 571.023 71.1953ZM570.531 79.6094C570.047 80.125 569.508 80.5703 568.914 80.9453C568.367 81.3047 567.688 81.6094 566.875 81.8594C566.078 82.1094 565.141 82.2344 564.062 82.2344C562.688 82.2344 561.383 81.9688 560.148 81.4375C558.914 80.8906 557.836 80.1328 556.914 79.1641C556.008 78.1797 555.289 77.0156 554.758 75.6719C554.242 74.3281 553.984 72.8359 553.984 71.1953C553.984 69.5703 554.242 68.0859 554.758 66.7422C555.289 65.3984 556.008 64.2422 556.914 63.2734C557.836 62.2891 558.914 61.5234 560.148 60.9766C561.383 60.4297 562.688 60.1562 564.062 60.1562C565.156 60.1562 566.102 60.3125 566.898 60.625C567.695 60.9219 568.367 61.25 568.914 61.6094C569.523 62.0312 570.062 62.5078 570.531 63.0391V51.7656H574.141V82H571.492L570.531 79.6094ZM590.945 63.7656H589.984C588.281 63.7656 586.898 64.3125 585.836 65.4062C584.773 66.4844 584.242 67.9375 584.242 69.7656V82H580.633V60.3906H583.281L584.242 62.8047C584.695 62.3203 585.219 61.8906 585.812 61.5156C586.359 61.1562 587.016 60.8438 587.781 60.5781C588.547 60.2969 589.445 60.1562 590.477 60.1562H590.945V63.7656ZM612.32 76.2344C611.961 77 611.508 77.7578 610.961 78.5078C610.414 79.2422 609.773 79.8828 609.039 80.4297C608.305 80.9609 607.469 81.3984 606.531 81.7422C605.609 82.0703 604.578 82.2344 603.438 82.2344C602.062 82.2344 600.758 81.9688 599.523 81.4375C598.289 80.8906 597.211 80.1328 596.289 79.1641C595.383 78.1797 594.664 77.0156 594.133 75.6719C593.617 74.3281 593.359 72.8359 593.359 71.1953C593.359 69.5703 593.617 68.0859 594.133 66.7422C594.664 65.3984 595.375 64.2422 596.266 63.2734C597.172 62.2891 598.227 61.5234 599.43 60.9766C600.633 60.4297 601.891 60.1562 603.203 60.1562C604.516 60.1562 605.75 60.4141 606.906 60.9297C608.078 61.4453 609.094 62.1797 609.953 63.1328C610.828 64.0703 611.516 65.2031 612.016 66.5312C612.531 67.8594 612.789 69.3359 612.789 70.9609C612.789 71.2734 612.773 71.5469 612.742 71.7812C612.711 72 612.68 72.1875 612.648 72.3438C612.617 72.5312 612.586 72.7109 612.555 72.8828H597.203C597.266 73.6484 597.477 74.3984 597.836 75.1328C598.211 75.8672 598.672 76.5078 599.219 77.0547C599.781 77.6016 600.43 78.0469 601.164 78.3906C601.914 78.7188 602.672 78.8828 603.438 78.8828C604.109 78.8828 604.703 78.7891 605.219 78.6016C605.75 78.3984 606.234 78.1719 606.672 77.9219C607.109 77.6719 607.469 77.3984 607.75 77.1016C608.047 76.7891 608.289 76.5 608.477 76.2344H612.32ZM603.203 63.5312C602.469 63.5312 601.766 63.6875 601.094 64C600.438 64.3125 599.836 64.7422 599.289 65.2891C598.758 65.8359 598.305 66.4922 597.93 67.2578C597.57 68.0234 597.328 68.8594 597.203 69.7656H608.945C608.695 67.8438 608.031 66.3281 606.953 65.2188C605.891 64.0938 604.641 63.5312 603.203 63.5312ZM625.727 60.1562C626.914 60.1562 628.008 60.3594 629.008 60.7656C630.023 61.1562 630.891 61.6875 631.609 62.3594C632.328 63.0312 632.883 63.8203 633.273 64.7266C633.68 65.6172 633.883 66.5781 633.883 67.6094V82H631.258L630.297 79.6094C629.812 80.125 629.266 80.5703 628.656 80.9453C628.109 81.3047 627.438 81.6094 626.641 81.8594C625.844 82.1094 624.898 82.2344 623.805 82.2344C622.711 82.2344 621.727 82.0703 620.852 81.7422C619.977 81.3984 619.227 80.9297 618.602 80.3359C617.977 79.7422 617.484 79.0547 617.125 78.2734C616.781 77.4922 616.609 76.6562 616.609 75.7656C616.609 74.7344 616.812 73.7969 617.219 72.9531C617.641 72.1094 618.359 71.375 619.375 70.75C620.406 70.125 621.812 69.6484 623.594 69.3203C625.375 68.9766 627.609 68.8047 630.297 68.8047V67.6094C630.297 66.5156 629.867 65.5625 629.008 64.75C628.164 63.9375 627.07 63.5312 625.727 63.5312C624.383 63.5312 623.391 63.8125 622.75 64.375C622.109 64.9219 621.664 65.6797 621.414 66.6484H617.57C617.695 65.7578 617.969 64.9219 618.391 64.1406C618.812 63.3438 619.367 62.6484 620.055 62.0547C620.742 61.4609 621.555 61 622.492 60.6719C623.43 60.3281 624.508 60.1562 625.727 60.1562ZM623.805 78.8828C624.758 78.8828 625.633 78.7344 626.43 78.4375C627.242 78.125 627.93 77.7344 628.492 77.2656C629.055 76.7812 629.492 76.2422 629.805 75.6484C630.133 75.0547 630.297 74.4531 630.297 73.8438V72.1562C628.125 72.1562 626.383 72.25 625.07 72.4375C623.758 72.6094 622.734 72.8672 622 73.2109C621.281 73.5391 620.805 73.9375 620.57 74.4062C620.336 74.8594 620.219 75.3906 620.219 76C620.219 76.7344 620.539 77.3984 621.18 77.9922C621.836 78.5859 622.711 78.8828 623.805 78.8828ZM661.234 60.1562C662.188 60.1562 663.102 60.3594 663.977 60.7656C664.852 61.1562 665.625 61.7422 666.297 62.5234C666.969 63.2891 667.492 64.2266 667.867 65.3359C668.258 66.4297 668.453 67.6641 668.453 69.0391V82H664.844V69.0391C664.844 67.2109 664.43 65.8359 663.602 64.9141C662.773 63.9922 661.75 63.5312 660.531 63.5312C659.312 63.5312 658.242 64.0234 657.32 65.0078C656.414 65.9922 655.961 67.3359 655.961 69.0391V82H652.375V69.0391C652.375 67.2109 651.953 65.8359 651.109 64.9141C650.281 63.9922 649.258 63.5312 648.039 63.5312C647.461 63.5312 646.891 63.6641 646.328 63.9297C645.781 64.1953 645.297 64.5781 644.875 65.0781C644.453 65.5781 644.117 66.1641 643.867 66.8359C643.617 67.5078 643.492 68.2422 643.492 69.0391V82H639.883V60.3906H642.531L643.492 62.8047C643.852 62.3203 644.281 61.8906 644.781 61.5156C645.234 61.1562 645.781 60.8438 646.422 60.5781C647.062 60.2969 647.844 60.1562 648.766 60.1562C649.859 60.1562 650.781 60.3594 651.531 60.7656C652.281 61.1562 652.898 61.5938 653.383 62.0781C653.961 62.6562 654.422 63.2969 654.766 64C655.188 63.2969 655.703 62.6562 656.312 62.0781C656.859 61.5938 657.523 61.1562 658.305 60.7656C659.102 60.3594 660.078 60.1562 661.234 60.1562ZM688.094 71.1953C688.094 72.3516 688.281 73.4062 688.656 74.3594C689.031 75.2969 689.516 76.1016 690.109 76.7734C690.719 77.4453 691.43 77.9688 692.242 78.3438C693.07 78.7031 693.93 78.8828 694.82 78.8828C695.711 78.8828 696.562 78.7031 697.375 78.3438C698.203 77.9688 698.922 77.4453 699.531 76.7734C700.141 76.1016 700.625 75.2969 700.984 74.3594C701.359 73.4062 701.547 72.3516 701.547 71.1953C701.547 70.0391 701.359 68.9922 700.984 68.0547C700.625 67.1172 700.141 66.3125 699.531 65.6406C698.922 64.9688 698.211 64.4531 697.398 64.0938C696.586 63.7188 695.727 63.5312 694.82 63.5312C693.93 63.5312 693.07 63.7188 692.242 64.0938C691.43 64.4531 690.719 64.9688 690.109 65.6406C689.516 66.3125 689.031 67.1172 688.656 68.0547C688.281 68.9922 688.094 70.0391 688.094 71.1953ZM687.625 82H684.977V51.7656H688.586V63.0391C689.039 62.4922 689.586 62.0156 690.227 61.6094C690.773 61.25 691.445 60.9219 692.242 60.625C693.039 60.3125 693.977 60.1562 695.055 60.1562C696.43 60.1562 697.734 60.4297 698.969 60.9766C700.203 61.5234 701.273 62.2891 702.18 63.2734C703.102 64.2422 703.828 65.3984 704.359 66.7422C704.891 68.0859 705.156 69.5703 705.156 71.1953C705.156 72.8203 704.891 74.3125 704.359 75.6719C703.828 77.0156 703.102 78.1797 702.18 79.1641C701.273 80.1328 700.203 80.8906 698.969 81.4375C697.75 81.9688 696.445 82.2344 695.055 82.2344C693.961 82.2344 693.016 82.1094 692.219 81.8594C691.422 81.5938 690.758 81.2891 690.227 80.9453C689.586 80.5547 689.039 80.1094 688.586 79.6094L687.625 82ZM713.57 82H709.961V60.3906H713.57V82ZM709.492 54.2969C709.492 53.625 709.703 53.0781 710.125 52.6562C710.562 52.2188 711.102 52 711.742 52C712.414 52 712.961 52.2188 713.383 52.6562C713.82 53.0781 714.039 53.625 714.039 54.2969C714.039 54.9375 713.82 55.4766 713.383 55.9141C712.961 56.3516 712.414 56.5703 711.742 56.5703C711.102 56.5703 710.562 56.3516 710.125 55.9141C709.703 55.4766 709.492 54.9375 709.492 54.2969ZM734.453 78.3906C734.031 78.9375 733.531 79.4219 732.953 79.8438C732.438 80.2031 731.789 80.5312 731.008 80.8281C730.227 81.125 729.297 81.2734 728.219 81.2734C726.844 81.2734 725.555 81.0234 724.352 80.5234C723.148 80.0078 722.102 79.2891 721.211 78.3672C720.336 77.4297 719.641 76.3125 719.125 75.0156C718.625 73.7188 718.375 72.2891 718.375 70.7266C718.375 69.1641 718.625 67.7344 719.125 66.4375C719.641 65.125 720.336 64.0078 721.211 63.0859C722.102 62.1641 723.141 61.4453 724.328 60.9297C725.531 60.4141 726.828 60.1562 728.219 60.1562C729.312 60.1562 730.25 60.2969 731.031 60.5781C731.812 60.8438 732.453 61.1562 732.953 61.5156C733.531 61.9062 734.031 62.3359 734.453 62.8047L735.414 60.3906H738.039V81.2734C738.039 82.5234 737.805 83.6875 737.336 84.7656C736.883 85.8594 736.234 86.8047 735.391 87.6016C734.562 88.4141 733.555 89.0391 732.367 89.4766C731.195 89.9297 729.891 90.1562 728.453 90.1562C727.203 90.1562 726.078 89.9844 725.078 89.6406C724.094 89.3125 723.234 88.8516 722.5 88.2578C721.766 87.6641 721.148 86.9766 720.648 86.1953C720.148 85.4141 719.789 84.5781 719.57 83.6875H723.156C723.516 84.5156 724.094 85.2422 724.891 85.8672C725.688 86.4922 726.875 86.8047 728.453 86.8047C730.281 86.8047 731.734 86.2734 732.812 85.2109C733.906 84.1641 734.453 82.8516 734.453 81.2734V78.3906ZM721.961 70.7266C721.961 71.8203 722.125 72.8047 722.453 73.6797C722.797 74.5547 723.266 75.3047 723.859 75.9297C724.453 76.5547 725.141 77.0469 725.922 77.4062C726.703 77.75 727.547 77.9219 728.453 77.9219C729.344 77.9219 730.18 77.75 730.961 77.4062C731.742 77.0469 732.43 76.5547 733.023 75.9297C733.617 75.3047 734.078 74.5547 734.406 73.6797C734.75 72.7891 734.922 71.8047 734.922 70.7266C734.922 69.6328 734.75 68.6484 734.406 67.7734C734.078 66.8828 733.617 66.1328 733.023 65.5234C732.43 64.8984 731.742 64.4141 730.961 64.0703C730.18 63.7109 729.344 63.5312 728.453 63.5312C727.562 63.5312 726.719 63.7109 725.922 64.0703C725.141 64.4141 724.453 64.8984 723.859 65.5234C723.266 66.1328 722.797 66.8828 722.453 67.7734C722.125 68.6484 721.961 69.6328 721.961 70.7266Z" fill="black"/>
</svg>
