<svg width="1920" height="1080" viewBox="0 0 1920 1080" fill="none" xmlns="http://www.w3.org/2000/svg">
<path fill-rule="evenodd" clip-rule="evenodd" d="M967.103 537.157L992.887 549.036C995.518 550.069 998.674 549.552 1000.25 548.003C1000.76 547.503 1001.32 547.005 1001.91 546.488C1003.16 545.377 1004.46 544.223 1005.52 542.838C1007.62 540.772 1008.15 537.674 1006.57 535.607L994.465 510.301C998.674 503.587 1001.83 495.84 1003.94 488.093L1031.3 478.797C1033.93 477.764 1035.51 475.698 1036.04 472.599V468.984V465.369C1036.04 462.786 1033.93 460.204 1031.3 459.171L1004.46 449.358C1002.36 441.611 999.202 433.864 994.992 427.15L997.568 421.764C1049.46 437.208 1087 484.297 1087 540.323C1087 561.896 1081.38 582.145 1071.52 599.771C1070.89 598.318 1068.88 597.362 1067.36 597.362L1045.68 598.404C1041.98 593.717 1037.74 589.55 1032.99 585.906L1034.04 564.555C1034.04 562.992 1032.99 560.909 1031.4 560.388C1029.28 559.347 1027.7 558.826 1025.58 558.306C1023.99 557.785 1021.88 558.306 1020.82 559.347L1006.54 574.97C1000.72 573.928 994.375 573.928 988.558 574.97L974.278 559.347C973.221 557.785 971.105 557.264 969.518 558.306C969.054 558.534 968.59 558.662 968.17 558.778C967.635 558.927 967.171 559.055 966.873 559.347C965.816 559.867 964.758 560.388 964.228 560.388C962.643 560.909 961.584 562.992 961.584 564.555L962.643 585.906C957.881 589.55 953.122 593.717 949.949 598.404L928.265 597.362C926.678 597.362 924.562 598.404 924.033 599.965C922.975 602.048 922.447 603.611 921.917 605.694C921.388 607.256 921.918 609.339 922.976 610.38L938.842 624.44C937.784 630.169 937.784 636.418 938.842 642.146L922.976 656.206C922.217 656.703 921.701 657.438 921.484 658.239C870.602 642.093 834 595.229 834 540.323C834 521.426 838.311 503.546 846.009 487.553C848.18 495.323 851.338 503.071 855.548 509.784L842.919 535.607C841.867 538.19 842.393 541.289 843.971 542.838C844.48 543.338 844.989 543.891 845.515 544.463C846.623 545.666 847.808 546.953 849.234 548.003C851.338 550.069 854.496 550.585 856.599 549.036L882.385 537.157C889.226 541.289 897.117 544.387 905.01 546.454L914.483 573.31C915.535 575.892 917.641 577.441 920.797 577.958H924.48H928.164C930.795 577.958 933.425 575.892 934.479 573.31L943.95 546.454C952.895 544.387 960.262 541.289 967.103 537.157ZM996.913 656.898C1010.48 656.898 1021.49 646.212 1021.49 633.031C1021.49 619.851 1010.48 609.166 996.913 609.166C983.343 609.166 972.34 619.851 972.34 633.031C972.34 646.212 983.343 656.898 996.913 656.898ZM959.589 468.728C959.589 487.485 944.106 502.691 925.007 502.691C905.908 502.691 890.425 487.485 890.425 468.728C890.425 449.971 905.908 434.765 925.007 434.765C944.106 434.765 959.589 449.971 959.589 468.728Z" fill="#1E3247"/>
<path d="M1339.76 639H1328.24V578.52H1339.76V639ZM1373.84 594.36C1376.46 594.36 1378.86 594.808 1381.04 595.704C1383.22 596.536 1385.07 597.784 1386.61 599.448C1388.21 601.048 1389.42 603 1390.26 605.304C1391.15 607.608 1391.6 610.2 1391.6 613.08V639H1380.56V614.52C1380.56 611.64 1379.7 609.336 1377.97 607.608C1376.3 605.816 1374.13 604.92 1371.44 604.92C1368.75 604.92 1366.54 605.816 1364.82 607.608C1363.15 609.336 1362.32 611.64 1362.32 614.52V639H1351.28V594.84H1359.44L1361.36 599.16C1362.45 598.264 1363.63 597.464 1364.91 596.76C1366 596.184 1367.28 595.64 1368.75 595.128C1370.29 594.616 1371.98 594.36 1373.84 594.36ZM1409.88 625.08C1410.13 626.552 1410.84 627.8 1411.99 628.824C1413.14 629.848 1414.68 630.36 1416.6 630.36C1418.52 630.36 1420.02 629.88 1421.11 628.92C1422.26 627.896 1422.84 626.776 1422.84 625.56C1422.84 624.536 1422.26 623.736 1421.11 623.16C1420.02 622.584 1418.65 622.072 1416.98 621.624C1415.32 621.112 1413.49 620.6 1411.51 620.088C1409.59 619.576 1407.8 618.84 1406.13 617.88C1404.47 616.856 1403.06 615.576 1401.91 614.04C1400.82 612.44 1400.28 610.36 1400.28 607.8C1400.28 606.008 1400.63 604.312 1401.33 602.712C1402.1 601.048 1403.19 599.608 1404.6 598.392C1406.01 597.176 1407.67 596.216 1409.59 595.512C1411.51 594.744 1413.69 594.36 1416.12 594.36C1421.43 594.36 1425.49 595.64 1428.31 598.2C1431.19 600.76 1432.89 603.96 1433.4 607.8H1422.84C1422.58 606.84 1421.88 605.88 1420.73 604.92C1419.64 603.96 1418.26 603.48 1416.6 603.48C1414.93 603.48 1413.62 603.896 1412.66 604.728C1411.77 605.56 1411.32 606.584 1411.32 607.8C1411.32 608.824 1411.86 609.624 1412.95 610.2C1414.1 610.776 1415.51 611.32 1417.17 611.832C1418.84 612.28 1420.63 612.792 1422.55 613.368C1424.53 613.88 1426.36 614.648 1428.02 615.672C1429.69 616.696 1431.06 618.04 1432.15 619.704C1433.3 621.304 1433.88 623.416 1433.88 626.04C1433.88 627.832 1433.49 629.56 1432.73 631.224C1431.96 632.824 1430.87 634.232 1429.46 635.448C1428.05 636.664 1426.33 637.656 1424.28 638.424C1422.29 639.128 1420.05 639.48 1417.56 639.48C1411.8 639.48 1407.41 638.168 1404.41 635.544C1401.46 632.92 1399.77 629.432 1399.32 625.08H1409.88ZM1464.59 594.36C1467.34 594.36 1469.97 594.936 1472.46 596.088C1474.96 597.176 1477.13 598.744 1478.99 600.792C1480.91 602.776 1482.41 605.144 1483.5 607.896C1484.65 610.648 1485.23 613.656 1485.23 616.92C1485.23 620.184 1484.65 623.192 1483.5 625.944C1482.41 628.696 1480.91 631.096 1478.99 633.144C1477.13 635.128 1474.96 636.696 1472.46 637.848C1469.97 638.936 1467.34 639.48 1464.59 639.48C1462.73 639.48 1461.1 639.256 1459.69 638.808C1458.35 638.36 1457.17 637.88 1456.14 637.368C1454.99 636.728 1453.97 635.992 1453.07 635.16V654.36H1442.03V594.84H1450.19L1452.11 599.16C1453.07 598.264 1454.19 597.464 1455.47 596.76C1456.56 596.184 1457.87 595.64 1459.41 595.128C1460.94 594.616 1462.67 594.36 1464.59 594.36ZM1452.11 616.92C1452.11 620.568 1453.17 623.48 1455.28 625.656C1457.39 627.832 1460.01 628.92 1463.15 628.92C1466.29 628.92 1468.91 627.832 1471.02 625.656C1473.13 623.48 1474.19 620.568 1474.19 616.92C1474.19 613.272 1473.13 610.36 1471.02 608.184C1468.91 606.008 1466.29 604.92 1463.15 604.92C1460.01 604.92 1457.39 606.008 1455.28 608.184C1453.17 610.36 1452.11 613.272 1452.11 616.92ZM1504.45 639H1493.41V594.84H1504.45V639ZM1499.17 589.08C1497.5 589.08 1496.03 588.472 1494.75 587.256C1493.53 585.976 1492.93 584.504 1492.93 582.84C1492.93 581.176 1493.53 579.736 1494.75 578.52C1496.03 577.24 1497.5 576.6 1499.17 576.6C1500.83 576.6 1502.27 577.24 1503.49 578.52C1504.77 579.736 1505.41 581.176 1505.41 582.84C1505.41 584.504 1504.77 585.976 1503.49 587.256C1502.27 588.472 1500.83 589.08 1499.17 589.08ZM1535.61 594.36C1536.12 594.36 1536.57 594.392 1536.95 594.456C1537.34 594.52 1537.69 594.584 1538.01 594.648C1538.33 594.712 1538.65 594.776 1538.97 594.84V606.36C1538.65 606.296 1538.3 606.232 1537.91 606.168C1537.59 606.104 1537.18 606.04 1536.66 605.976C1536.22 605.912 1535.7 605.88 1535.13 605.88C1532.44 605.88 1530.23 606.776 1528.5 608.568C1526.84 610.296 1526.01 612.6 1526.01 615.48V639H1514.97V594.84H1523.13L1525.05 599.64C1525.82 598.68 1526.74 597.816 1527.83 597.048C1528.73 596.344 1529.82 595.736 1531.1 595.224C1532.44 594.648 1533.94 594.36 1535.61 594.36ZM1585.08 625.56C1584.5 627.224 1583.61 628.888 1582.39 630.552C1581.24 632.216 1579.8 633.72 1578.07 635.064C1576.41 636.344 1574.49 637.4 1572.31 638.232C1570.2 639.064 1567.89 639.48 1565.4 639.48C1562.39 639.48 1559.54 638.904 1556.85 637.752C1554.23 636.536 1551.89 634.904 1549.85 632.856C1547.86 630.808 1546.26 628.44 1545.05 625.752C1543.89 623 1543.32 620.056 1543.32 616.92C1543.32 613.784 1543.89 610.872 1545.05 608.184C1546.26 605.432 1547.86 603.032 1549.85 600.984C1551.89 598.936 1554.23 597.336 1556.85 596.184C1559.54 594.968 1562.39 594.36 1565.4 594.36C1568.28 594.36 1571 594.904 1573.56 595.992C1576.12 597.08 1578.36 598.616 1580.28 600.6C1582.2 602.584 1583.7 604.984 1584.79 607.8C1585.94 610.552 1586.52 613.592 1586.52 616.92C1586.52 617.432 1586.49 617.944 1586.42 618.456C1586.36 618.904 1586.29 619.352 1586.23 619.8C1586.17 620.312 1586.1 620.792 1586.04 621.24H1555.32C1555.83 623.416 1556.92 625.24 1558.58 626.712C1560.25 628.184 1562.52 628.92 1565.4 628.92C1566.87 628.92 1568.09 628.76 1569.05 628.44C1570.07 628.12 1570.93 627.736 1571.64 627.288C1572.41 626.776 1573.05 626.2 1573.56 625.56H1585.08ZM1565.4 604.92C1562.52 604.92 1560.15 605.752 1558.29 607.416C1556.5 609.08 1555.35 611.128 1554.84 613.56H1575.96C1575.45 611.128 1574.26 609.08 1572.41 607.416C1570.61 605.752 1568.28 604.92 1565.4 604.92ZM1612.9 639.48C1610.14 639.48 1607.52 638.936 1605.02 637.848C1602.53 636.696 1600.32 635.128 1598.4 633.144C1596.54 631.096 1595.04 628.696 1593.89 625.944C1592.8 623.192 1592.26 620.184 1592.26 616.92C1592.26 613.656 1592.8 610.648 1593.89 607.896C1595.04 605.144 1596.54 602.776 1598.4 600.792C1600.32 598.744 1602.53 597.176 1605.02 596.088C1607.52 594.936 1610.14 594.36 1612.9 594.36C1614.69 594.36 1616.29 594.616 1617.7 595.128C1619.1 595.576 1620.32 596.056 1621.34 596.568C1622.5 597.208 1623.52 597.912 1624.42 598.68V578.52H1635.46V639H1627.3L1625.38 634.68C1624.35 635.576 1623.23 636.376 1622.02 637.08C1620.93 637.72 1619.62 638.296 1618.08 638.808C1616.54 639.256 1614.82 639.48 1612.9 639.48ZM1625.38 616.92C1625.38 613.272 1624.32 610.36 1622.21 608.184C1620.1 606.008 1617.47 604.92 1614.34 604.92C1611.2 604.92 1608.58 606.008 1606.46 608.184C1604.35 610.36 1603.3 613.272 1603.3 616.92C1603.3 620.568 1604.35 623.48 1606.46 625.656C1608.58 627.832 1611.2 628.92 1614.34 628.92C1617.47 628.92 1620.1 627.832 1622.21 625.656C1624.32 623.48 1625.38 620.568 1625.38 616.92Z" fill="black"/>
<path d="M821.4 910.76C821.4 913.64 821.88 916.296 822.84 918.728C823.8 921.096 825.08 923.176 826.68 924.968C828.28 926.696 830.136 928.04 832.248 929C834.424 929.96 836.728 930.44 839.16 930.44C841.208 930.44 843.064 930.152 844.728 929.576C846.392 928.936 847.864 928.136 849.144 927.176C850.488 926.152 851.576 925.032 852.408 923.816C853.304 922.536 854.008 921.224 854.52 919.88H866.52C865.816 922.76 864.664 925.512 863.064 928.136C861.464 930.76 859.48 933.064 857.112 935.048C854.808 936.968 852.12 938.536 849.048 939.752C846.04 940.904 842.744 941.48 839.16 941.48C835.192 941.48 831.416 940.712 827.832 939.176C824.312 937.576 821.208 935.4 818.52 932.648C815.896 929.832 813.784 926.568 812.184 922.856C810.648 919.144 809.88 915.112 809.88 910.76C809.88 906.472 810.648 902.472 812.184 898.76C813.784 894.984 815.896 891.72 818.52 888.968C821.208 886.152 824.312 883.976 827.832 882.44C831.416 880.84 835.192 880.04 839.16 880.04C842.616 880.04 845.816 880.648 848.76 881.864C851.768 883.016 854.424 884.584 856.728 886.568C859.032 888.488 860.984 890.76 862.584 893.384C864.184 896.008 865.336 898.76 866.04 901.64H854.04C853.656 900.296 853.048 899.016 852.216 897.8C851.384 896.52 850.328 895.4 849.048 894.44C847.832 893.416 846.392 892.616 844.728 892.04C843.064 891.4 841.208 891.08 839.16 891.08C836.728 891.08 834.424 891.56 832.248 892.52C830.136 893.48 828.28 894.856 826.68 896.648C825.08 898.376 823.8 900.456 822.84 902.888C821.88 905.256 821.4 907.88 821.4 910.76ZM890.978 941.48C888.354 941.48 885.954 941.064 883.778 940.232C881.602 939.336 879.714 938.088 878.114 936.488C876.578 934.824 875.362 932.84 874.466 930.536C873.634 928.232 873.218 925.64 873.218 922.76V896.84H884.258V921.32C884.258 924.2 885.09 926.536 886.754 928.328C888.482 930.056 890.69 930.92 893.378 930.92C896.066 930.92 898.242 930.056 899.906 928.328C901.634 926.536 902.498 924.2 902.498 921.32V896.84H913.538V941H905.378L903.458 936.68C902.37 937.576 901.186 938.376 899.906 939.08C898.818 939.72 897.506 940.296 895.97 940.808C894.434 941.256 892.77 941.48 890.978 941.48ZM944.764 896.36C945.276 896.36 945.724 896.392 946.108 896.456C946.492 896.52 946.844 896.584 947.164 896.648C947.484 896.712 947.804 896.776 948.124 896.84V908.36C947.804 908.296 947.452 908.232 947.068 908.168C946.748 908.104 946.332 908.04 945.82 907.976C945.372 907.912 944.86 907.88 944.284 907.88C941.596 907.88 939.388 908.776 937.66 910.568C935.996 912.296 935.164 914.6 935.164 917.48V941H924.124V896.84H932.284L934.204 901.64C934.972 900.68 935.9 899.816 936.988 899.048C937.884 898.344 938.972 897.736 940.252 897.224C941.596 896.648 943.1 896.36 944.764 896.36ZM966.383 941H955.343V896.84H966.383V941ZM961.103 891.08C959.439 891.08 957.967 890.472 956.687 889.256C955.471 887.976 954.863 886.504 954.863 884.84C954.863 883.176 955.471 881.736 956.687 880.52C957.967 879.24 959.439 878.6 961.103 878.6C962.767 878.6 964.207 879.24 965.423 880.52C966.703 881.736 967.343 883.176 967.343 884.84C967.343 886.504 966.703 887.976 965.423 889.256C964.207 890.472 962.767 891.08 961.103 891.08ZM985.545 918.92C985.545 922.568 986.601 925.48 988.713 927.656C990.825 929.832 993.449 930.92 996.585 930.92C999.721 930.92 1002.35 929.832 1004.46 927.656C1006.57 925.48 1007.63 922.568 1007.63 918.92C1007.63 915.272 1006.57 912.36 1004.46 910.184C1002.35 908.008 999.721 906.92 996.585 906.92C993.449 906.92 990.825 908.008 988.713 910.184C986.601 912.36 985.545 915.272 985.545 918.92ZM1018.67 918.92C1018.67 922.056 1018.06 925 1016.84 927.752C1015.69 930.44 1014.09 932.808 1012.04 934.856C1010.06 936.904 1007.72 938.536 1005.03 939.752C1002.41 940.904 999.593 941.48 996.585 941.48C993.577 941.48 990.729 940.904 988.041 939.752C985.417 938.536 983.081 936.904 981.033 934.856C979.049 932.808 977.449 930.44 976.233 927.752C975.081 925 974.505 922.056 974.505 918.92C974.505 915.784 975.081 912.872 976.233 910.184C977.449 907.432 979.049 905.032 981.033 902.984C983.081 900.936 985.417 899.336 988.041 898.184C990.729 896.968 993.577 896.36 996.585 896.36C999.593 896.36 1002.41 896.968 1005.03 898.184C1007.72 899.336 1010.06 900.936 1012.04 902.984C1014.09 905.032 1015.69 907.432 1016.84 910.184C1018.06 912.872 1018.67 915.784 1018.67 918.92ZM1044.54 941.48C1041.92 941.48 1039.52 941.064 1037.34 940.232C1035.16 939.336 1033.28 938.088 1031.68 936.488C1030.14 934.824 1028.92 932.84 1028.03 930.536C1027.2 928.232 1026.78 925.64 1026.78 922.76V896.84H1037.82V921.32C1037.82 924.2 1038.65 926.536 1040.32 928.328C1042.04 930.056 1044.25 930.92 1046.94 930.92C1049.63 930.92 1051.8 930.056 1053.47 928.328C1055.2 926.536 1056.06 924.2 1056.06 921.32V896.84H1067.1V941H1058.94L1057.02 936.68C1055.93 937.576 1054.75 938.376 1053.47 939.08C1052.38 939.72 1051.07 940.296 1049.53 940.808C1048 941.256 1046.33 941.48 1044.54 941.48ZM1085.85 927.08C1086.1 928.552 1086.81 929.8 1087.96 930.824C1089.11 931.848 1090.65 932.36 1092.57 932.36C1094.49 932.36 1095.99 931.88 1097.08 930.92C1098.23 929.896 1098.81 928.776 1098.81 927.56C1098.81 926.536 1098.23 925.736 1097.08 925.16C1095.99 924.584 1094.61 924.072 1092.95 923.624C1091.29 923.112 1089.46 922.6 1087.48 922.088C1085.56 921.576 1083.77 920.84 1082.1 919.88C1080.44 918.856 1079.03 917.576 1077.88 916.04C1076.79 914.44 1076.25 912.36 1076.25 909.8C1076.25 908.008 1076.6 906.312 1077.3 904.712C1078.07 903.048 1079.16 901.608 1080.57 900.392C1081.97 899.176 1083.64 898.216 1085.56 897.512C1087.48 896.744 1089.65 896.36 1092.09 896.36C1097.4 896.36 1101.46 897.64 1104.28 900.2C1107.16 902.76 1108.85 905.96 1109.37 909.8H1098.81C1098.55 908.84 1097.85 907.88 1096.69 906.92C1095.61 905.96 1094.23 905.48 1092.57 905.48C1090.9 905.48 1089.59 905.896 1088.63 906.728C1087.73 907.56 1087.29 908.584 1087.29 909.8C1087.29 910.824 1087.83 911.624 1088.92 912.2C1090.07 912.776 1091.48 913.32 1093.14 913.832C1094.81 914.28 1096.6 914.792 1098.52 915.368C1100.5 915.88 1102.33 916.648 1103.99 917.672C1105.65 918.696 1107.03 920.04 1108.12 921.704C1109.27 923.304 1109.85 925.416 1109.85 928.04C1109.85 929.832 1109.46 931.56 1108.69 933.224C1107.93 934.824 1106.84 936.232 1105.43 937.448C1104.02 938.664 1102.29 939.656 1100.25 940.424C1098.26 941.128 1096.02 941.48 1093.53 941.48C1087.77 941.48 1083.38 940.168 1080.37 937.544C1077.43 934.92 1075.73 931.432 1075.29 927.08H1085.85Z" fill="black"/>
<path d="M1354.68 770.52V831H1343.16V797.4L1327.8 831H1320.12L1304.76 797.4V831H1293.24V770.52H1303.32L1323.96 815.16L1344.6 770.52H1354.68ZM1374.8 808.92C1374.8 812.568 1375.85 815.48 1377.96 817.656C1380.08 819.832 1382.7 820.92 1385.84 820.92C1388.97 820.92 1391.6 819.832 1393.71 817.656C1395.82 815.48 1396.88 812.568 1396.88 808.92C1396.88 805.272 1395.82 802.36 1393.71 800.184C1391.6 798.008 1388.97 796.92 1385.84 796.92C1382.7 796.92 1380.08 798.008 1377.96 800.184C1375.85 802.36 1374.8 805.272 1374.8 808.92ZM1407.92 808.92C1407.92 812.056 1407.31 815 1406.09 817.752C1404.94 820.44 1403.34 822.808 1401.29 824.856C1399.31 826.904 1396.97 828.536 1394.28 829.752C1391.66 830.904 1388.84 831.48 1385.84 831.48C1382.83 831.48 1379.98 830.904 1377.29 829.752C1374.67 828.536 1372.33 826.904 1370.28 824.856C1368.3 822.808 1366.7 820.44 1365.48 817.752C1364.33 815 1363.76 812.056 1363.76 808.92C1363.76 805.784 1364.33 802.872 1365.48 800.184C1366.7 797.432 1368.3 795.032 1370.28 792.984C1372.33 790.936 1374.67 789.336 1377.29 788.184C1379.98 786.968 1382.83 786.36 1385.84 786.36C1388.84 786.36 1391.66 786.968 1394.28 788.184C1396.97 789.336 1399.31 790.936 1401.29 792.984C1403.34 795.032 1404.94 797.432 1406.09 800.184C1407.31 802.872 1407.92 805.784 1407.92 808.92ZM1420.83 776.28H1430.43V786.84H1440.03V796.92H1430.43V815.16C1430.43 817.08 1430.97 818.616 1432.06 819.768C1433.21 820.856 1434.75 821.4 1436.67 821.4C1437.18 821.4 1437.6 821.4 1437.92 821.4C1438.24 821.336 1438.53 821.272 1438.78 821.208C1439.04 821.144 1439.29 821.048 1439.55 820.92V830.52C1439.1 830.712 1438.59 830.872 1438.01 831C1436.93 831.32 1435.68 831.48 1434.27 831.48C1432.09 831.48 1430.08 831.128 1428.22 830.424C1426.43 829.656 1424.86 828.568 1423.52 827.16C1422.24 825.752 1421.21 824.088 1420.45 822.168C1419.74 820.248 1419.39 818.072 1419.39 815.64V796.92H1412.67V787.8H1415.55C1419.07 787.8 1420.83 786.04 1420.83 782.52V776.28ZM1460.16 831H1449.12V786.84H1460.16V831ZM1454.88 781.08C1453.22 781.08 1451.75 780.472 1450.47 779.256C1449.25 777.976 1448.64 776.504 1448.64 774.84C1448.64 773.176 1449.25 771.736 1450.47 770.52C1451.75 769.24 1453.22 768.6 1454.88 768.6C1456.55 768.6 1457.99 769.24 1459.2 770.52C1460.48 771.736 1461.12 773.176 1461.12 774.84C1461.12 776.504 1460.48 777.976 1459.2 779.256C1457.99 780.472 1456.55 781.08 1454.88 781.08ZM1510.05 786.84L1493.25 831H1482.69L1465.89 786.84H1477.41L1487.97 817.368L1498.53 786.84H1510.05ZM1534.02 786.36C1536.52 786.36 1538.82 786.808 1540.93 787.704C1543.04 788.536 1544.87 789.72 1546.4 791.256C1547.94 792.792 1549.12 794.616 1549.96 796.728C1550.85 798.84 1551.3 801.144 1551.3 803.64V831H1543.14L1541.22 826.68C1540.2 827.576 1539.08 828.376 1537.86 829.08C1536.77 829.72 1535.46 830.296 1533.92 830.808C1532.39 831.256 1530.66 831.48 1528.74 831.48C1523.94 831.48 1520.26 830.328 1517.7 828.024C1515.14 825.656 1513.86 822.648 1513.86 819C1513.86 816.824 1514.28 814.84 1515.11 813.048C1516 811.192 1517.48 809.624 1519.52 808.344C1521.57 807 1524.26 805.976 1527.59 805.272C1530.98 804.504 1535.2 804.12 1540.26 804.12C1540.26 801.688 1539.59 799.8 1538.24 798.456C1536.96 797.112 1535.24 796.44 1533.06 796.44C1531.59 796.44 1530.4 796.696 1529.51 797.208C1528.68 797.72 1528 798.264 1527.49 798.84C1526.92 799.544 1526.53 800.344 1526.34 801.24H1515.3C1515.56 799.192 1516.13 797.272 1517.03 795.48C1517.99 793.688 1519.27 792.12 1520.87 790.776C1522.47 789.432 1524.36 788.376 1526.53 787.608C1528.77 786.776 1531.27 786.36 1534.02 786.36ZM1530.66 822.84C1533.54 822.84 1535.84 822.008 1537.57 820.344C1539.36 818.616 1540.26 816.408 1540.26 813.72V811.8C1537 811.8 1534.37 811.96 1532.39 812.28C1530.4 812.536 1528.84 812.952 1527.68 813.528C1526.6 814.04 1525.86 814.68 1525.48 815.448C1525.09 816.216 1524.9 817.08 1524.9 818.04C1524.9 819.256 1525.44 820.376 1526.53 821.4C1527.62 822.36 1529 822.84 1530.66 822.84ZM1565.21 776.28H1574.81V786.84H1584.41V796.92H1574.81V815.16C1574.81 817.08 1575.35 818.616 1576.44 819.768C1577.59 820.856 1579.13 821.4 1581.05 821.4C1581.56 821.4 1581.97 821.4 1582.29 821.4C1582.61 821.336 1582.9 821.272 1583.16 821.208C1583.41 821.144 1583.67 821.048 1583.93 820.92V830.52C1583.48 830.712 1582.97 830.872 1582.39 831C1581.3 831.32 1580.05 831.48 1578.65 831.48C1576.47 831.48 1574.45 831.128 1572.6 830.424C1570.81 829.656 1569.24 828.568 1567.89 827.16C1566.61 825.752 1565.59 824.088 1564.82 822.168C1564.12 820.248 1563.77 818.072 1563.77 815.64V796.92H1557.05V787.8H1559.93C1563.45 787.8 1565.21 786.04 1565.21 782.52V776.28ZM1631.92 817.56C1631.35 819.224 1630.45 820.888 1629.23 822.552C1628.08 824.216 1626.64 825.72 1624.91 827.064C1623.25 828.344 1621.33 829.4 1619.15 830.232C1617.04 831.064 1614.74 831.48 1612.24 831.48C1609.23 831.48 1606.39 830.904 1603.7 829.752C1601.07 828.536 1598.74 826.904 1596.69 824.856C1594.71 822.808 1593.11 820.44 1591.89 817.752C1590.74 815 1590.16 812.056 1590.16 808.92C1590.16 805.784 1590.74 802.872 1591.89 800.184C1593.11 797.432 1594.71 795.032 1596.69 792.984C1598.74 790.936 1601.07 789.336 1603.7 788.184C1606.39 786.968 1609.23 786.36 1612.24 786.36C1615.12 786.36 1617.84 786.904 1620.4 787.992C1622.96 789.08 1625.2 790.616 1627.12 792.6C1629.04 794.584 1630.55 796.984 1631.63 799.8C1632.79 802.552 1633.36 805.592 1633.36 808.92C1633.36 809.432 1633.33 809.944 1633.27 810.456C1633.2 810.904 1633.14 811.352 1633.07 811.8C1633.01 812.312 1632.95 812.792 1632.88 813.24H1602.16C1602.67 815.416 1603.76 817.24 1605.43 818.712C1607.09 820.184 1609.36 820.92 1612.24 820.92C1613.71 820.92 1614.93 820.76 1615.89 820.44C1616.91 820.12 1617.78 819.736 1618.48 819.288C1619.25 818.776 1619.89 818.2 1620.4 817.56H1631.92ZM1612.24 796.92C1609.36 796.92 1606.99 797.752 1605.14 799.416C1603.35 801.08 1602.19 803.128 1601.68 805.56H1622.8C1622.29 803.128 1621.11 801.08 1619.25 799.416C1617.46 797.752 1615.12 796.92 1612.24 796.92ZM1659.74 831.48C1656.99 831.48 1654.36 830.936 1651.87 829.848C1649.37 828.696 1647.16 827.128 1645.24 825.144C1643.39 823.096 1641.88 820.696 1640.73 817.944C1639.64 815.192 1639.1 812.184 1639.1 808.92C1639.1 805.656 1639.64 802.648 1640.73 799.896C1641.88 797.144 1643.39 794.776 1645.24 792.792C1647.16 790.744 1649.37 789.176 1651.87 788.088C1654.36 786.936 1656.99 786.36 1659.74 786.36C1661.53 786.36 1663.13 786.616 1664.54 787.128C1665.95 787.576 1667.16 788.056 1668.19 788.568C1669.34 789.208 1670.36 789.912 1671.26 790.68V770.52H1682.3V831H1674.14L1672.22 826.68C1671.19 827.576 1670.07 828.376 1668.86 829.08C1667.77 829.72 1666.46 830.296 1664.92 830.808C1663.39 831.256 1661.66 831.48 1659.74 831.48ZM1672.22 808.92C1672.22 805.272 1671.16 802.36 1669.05 800.184C1666.94 798.008 1664.31 796.92 1661.18 796.92C1658.04 796.92 1655.42 798.008 1653.31 800.184C1651.19 802.36 1650.14 805.272 1650.14 808.92C1650.14 812.568 1651.19 815.48 1653.31 817.656C1655.42 819.832 1658.04 820.92 1661.18 820.92C1664.31 820.92 1666.94 819.832 1669.05 817.656C1671.16 815.48 1672.22 812.568 1672.22 808.92Z" fill="black"/>
<path d="M1358.96 437.96V449H1316.24V388.52H1358V399.56H1327.76V412.52H1355.6V423.56H1327.76V437.96H1358.96ZM1388.23 404.36C1390.47 404.36 1392.39 404.68 1393.99 405.32C1395.59 405.896 1396.9 406.536 1397.93 407.24C1399.08 408.072 1400.01 409.032 1400.71 410.12C1401.74 409.032 1402.92 408.072 1404.26 407.24C1405.42 406.536 1406.79 405.896 1408.39 405.32C1409.99 404.68 1411.75 404.36 1413.67 404.36C1418.47 404.36 1422.31 405.896 1425.19 408.968C1428.07 412.04 1429.51 416.584 1429.51 422.6V449H1418.47V423.56C1418.47 420.872 1417.74 418.76 1416.26 417.224C1414.86 415.688 1413.19 414.92 1411.27 414.92C1409.35 414.92 1407.66 415.688 1406.18 417.224C1404.78 418.76 1404.07 420.872 1404.07 423.56V449H1393.03V423.56C1393.03 420.872 1392.3 418.76 1390.82 417.224C1389.42 415.688 1387.75 414.92 1385.83 414.92C1383.91 414.92 1382.22 415.688 1380.74 417.224C1379.34 418.76 1378.63 420.872 1378.63 423.56V449H1367.59V404.84H1375.75L1377.67 409.16C1378.57 408.264 1379.56 407.464 1380.65 406.76C1381.54 406.184 1382.63 405.64 1383.91 405.128C1385.19 404.616 1386.63 404.36 1388.23 404.36ZM1462.15 404.36C1464.9 404.36 1467.53 404.936 1470.02 406.088C1472.52 407.176 1474.7 408.744 1476.55 410.792C1478.47 412.776 1479.98 415.144 1481.06 417.896C1482.22 420.648 1482.79 423.656 1482.79 426.92C1482.79 430.184 1482.22 433.192 1481.06 435.944C1479.98 438.696 1478.47 441.096 1476.55 443.144C1474.7 445.128 1472.52 446.696 1470.02 447.848C1467.53 448.936 1464.9 449.48 1462.15 449.48C1460.3 449.48 1458.66 449.256 1457.26 448.808C1455.91 448.36 1454.73 447.88 1453.7 447.368C1452.55 446.728 1451.53 445.992 1450.63 445.16V464.36H1439.59V404.84H1447.75L1449.67 409.16C1450.63 408.264 1451.75 407.464 1453.03 406.76C1454.12 406.184 1455.43 405.64 1456.97 405.128C1458.5 404.616 1460.23 404.36 1462.15 404.36ZM1449.67 426.92C1449.67 430.568 1450.73 433.48 1452.84 435.656C1454.95 437.832 1457.58 438.92 1460.71 438.92C1463.85 438.92 1466.47 437.832 1468.58 435.656C1470.7 433.48 1471.75 430.568 1471.75 426.92C1471.75 423.272 1470.7 420.36 1468.58 418.184C1466.47 416.008 1463.85 414.92 1460.71 414.92C1457.58 414.92 1454.95 416.008 1452.84 418.184C1450.73 420.36 1449.67 423.272 1449.67 426.92ZM1499.61 426.92C1499.61 430.568 1500.66 433.48 1502.78 435.656C1504.89 437.832 1507.51 438.92 1510.65 438.92C1513.78 438.92 1516.41 437.832 1518.52 435.656C1520.63 433.48 1521.69 430.568 1521.69 426.92C1521.69 423.272 1520.63 420.36 1518.52 418.184C1516.41 416.008 1513.78 414.92 1510.65 414.92C1507.51 414.92 1504.89 416.008 1502.78 418.184C1500.66 420.36 1499.61 423.272 1499.61 426.92ZM1532.73 426.92C1532.73 430.056 1532.12 433 1530.9 435.752C1529.75 438.44 1528.15 440.808 1526.1 442.856C1524.12 444.904 1521.78 446.536 1519.1 447.752C1516.47 448.904 1513.66 449.48 1510.65 449.48C1507.64 449.48 1504.79 448.904 1502.1 447.752C1499.48 446.536 1497.14 444.904 1495.1 442.856C1493.11 440.808 1491.51 438.44 1490.3 435.752C1489.14 433 1488.57 430.056 1488.57 426.92C1488.57 423.784 1489.14 420.872 1490.3 418.184C1491.51 415.432 1493.11 413.032 1495.1 410.984C1497.14 408.936 1499.48 407.336 1502.1 406.184C1504.79 404.968 1507.64 404.36 1510.65 404.36C1513.66 404.36 1516.47 404.968 1519.1 406.184C1521.78 407.336 1524.12 408.936 1526.1 410.984C1528.15 413.032 1529.75 415.432 1530.9 418.184C1532.12 420.872 1532.73 423.784 1532.73 426.92ZM1568.2 422.6L1560.04 449H1550.44L1536.04 404.84H1547.08L1555.72 433.16L1564.84 404.84H1571.56L1580.68 433.16L1589.32 404.84H1600.36L1585.96 449H1576.36L1568.2 422.6ZM1645.45 435.56C1644.88 437.224 1643.98 438.888 1642.76 440.552C1641.61 442.216 1640.17 443.72 1638.44 445.064C1636.78 446.344 1634.86 447.4 1632.68 448.232C1630.57 449.064 1628.27 449.48 1625.77 449.48C1622.76 449.48 1619.92 448.904 1617.23 447.752C1614.6 446.536 1612.27 444.904 1610.22 442.856C1608.24 440.808 1606.64 438.44 1605.42 435.752C1604.27 433 1603.69 430.056 1603.69 426.92C1603.69 423.784 1604.27 420.872 1605.42 418.184C1606.64 415.432 1608.24 413.032 1610.22 410.984C1612.27 408.936 1614.6 407.336 1617.23 406.184C1619.92 404.968 1622.76 404.36 1625.77 404.36C1628.65 404.36 1631.37 404.904 1633.93 405.992C1636.49 407.08 1638.73 408.616 1640.65 410.6C1642.57 412.584 1644.08 414.984 1645.16 417.8C1646.32 420.552 1646.89 423.592 1646.89 426.92C1646.89 427.432 1646.86 427.944 1646.8 428.456C1646.73 428.904 1646.67 429.352 1646.6 429.8C1646.54 430.312 1646.48 430.792 1646.41 431.24H1615.69C1616.2 433.416 1617.29 435.24 1618.96 436.712C1620.62 438.184 1622.89 438.92 1625.77 438.92C1627.24 438.92 1628.46 438.76 1629.42 438.44C1630.44 438.12 1631.31 437.736 1632.01 437.288C1632.78 436.776 1633.42 436.2 1633.93 435.56H1645.45ZM1625.77 414.92C1622.89 414.92 1620.52 415.752 1618.67 417.416C1616.88 419.08 1615.72 421.128 1615.21 423.56H1636.33C1635.82 421.128 1634.64 419.08 1632.78 417.416C1630.99 415.752 1628.65 414.92 1625.77 414.92ZM1675.67 404.36C1676.18 404.36 1676.63 404.392 1677.01 404.456C1677.4 404.52 1677.75 404.584 1678.07 404.648C1678.39 404.712 1678.71 404.776 1679.03 404.84V416.36C1678.71 416.296 1678.36 416.232 1677.97 416.168C1677.65 416.104 1677.24 416.04 1676.73 415.976C1676.28 415.912 1675.77 415.88 1675.19 415.88C1672.5 415.88 1670.29 416.776 1668.57 418.568C1666.9 420.296 1666.07 422.6 1666.07 425.48V449H1655.03V404.84H1663.19L1665.11 409.64C1665.88 408.68 1666.81 407.816 1667.89 407.048C1668.79 406.344 1669.88 405.736 1671.16 405.224C1672.5 404.648 1674.01 404.36 1675.67 404.36ZM1725.14 435.56C1724.56 437.224 1723.67 438.888 1722.45 440.552C1721.3 442.216 1719.86 443.72 1718.13 445.064C1716.47 446.344 1714.55 447.4 1712.37 448.232C1710.26 449.064 1707.96 449.48 1705.46 449.48C1702.45 449.48 1699.6 448.904 1696.92 447.752C1694.29 446.536 1691.96 444.904 1689.91 442.856C1687.92 440.808 1686.32 438.44 1685.11 435.752C1683.96 433 1683.38 430.056 1683.38 426.92C1683.38 423.784 1683.96 420.872 1685.11 418.184C1686.32 415.432 1687.92 413.032 1689.91 410.984C1691.96 408.936 1694.29 407.336 1696.92 406.184C1699.6 404.968 1702.45 404.36 1705.46 404.36C1708.34 404.36 1711.06 404.904 1713.62 405.992C1716.18 407.08 1718.42 408.616 1720.34 410.6C1722.26 412.584 1723.76 414.984 1724.85 417.8C1726 420.552 1726.58 423.592 1726.58 426.92C1726.58 427.432 1726.55 427.944 1726.48 428.456C1726.42 428.904 1726.36 429.352 1726.29 429.8C1726.23 430.312 1726.16 430.792 1726.1 431.24H1695.38C1695.89 433.416 1696.98 435.24 1698.64 436.712C1700.31 438.184 1702.58 438.92 1705.46 438.92C1706.93 438.92 1708.15 438.76 1709.11 438.44C1710.13 438.12 1711 437.736 1711.7 437.288C1712.47 436.776 1713.11 436.2 1713.62 435.56H1725.14ZM1705.46 414.92C1702.58 414.92 1700.21 415.752 1698.36 417.416C1696.56 419.08 1695.41 421.128 1694.9 423.56H1716.02C1715.51 421.128 1714.32 419.08 1712.47 417.416C1710.68 415.752 1708.34 414.92 1705.46 414.92ZM1752.96 449.48C1750.21 449.48 1747.58 448.936 1745.09 447.848C1742.59 446.696 1740.38 445.128 1738.46 443.144C1736.61 441.096 1735.1 438.696 1733.95 435.944C1732.86 433.192 1732.32 430.184 1732.32 426.92C1732.32 423.656 1732.86 420.648 1733.95 417.896C1735.1 415.144 1736.61 412.776 1738.46 410.792C1740.38 408.744 1742.59 407.176 1745.09 406.088C1747.58 404.936 1750.21 404.36 1752.96 404.36C1754.75 404.36 1756.35 404.616 1757.76 405.128C1759.17 405.576 1760.38 406.056 1761.41 406.568C1762.56 407.208 1763.58 407.912 1764.48 408.68V388.52H1775.52V449H1767.36L1765.44 444.68C1764.41 445.576 1763.29 446.376 1762.08 447.08C1760.99 447.72 1759.68 448.296 1758.14 448.808C1756.61 449.256 1754.88 449.48 1752.96 449.48ZM1765.44 426.92C1765.44 423.272 1764.38 420.36 1762.27 418.184C1760.16 416.008 1757.53 414.92 1754.4 414.92C1751.26 414.92 1748.64 416.008 1746.53 418.184C1744.41 420.36 1743.36 423.272 1743.36 426.92C1743.36 430.568 1744.41 433.48 1746.53 435.656C1748.64 437.832 1751.26 438.92 1754.4 438.92C1757.53 438.92 1760.16 437.832 1762.27 435.656C1764.38 433.48 1765.44 430.568 1765.44 426.92Z" fill="black"/>
<path d="M903.76 157.56V172.44H927.28V183.48H903.76V207H892.24V146.52H932.56V157.56H903.76ZM956.103 207.48C953.479 207.48 951.079 207.064 948.903 206.232C946.727 205.336 944.839 204.088 943.239 202.488C941.703 200.824 940.487 198.84 939.591 196.536C938.759 194.232 938.343 191.64 938.343 188.76V162.84H949.383V187.32C949.383 190.2 950.215 192.536 951.879 194.328C953.607 196.056 955.815 196.92 958.503 196.92C961.191 196.92 963.367 196.056 965.031 194.328C966.759 192.536 967.623 190.2 967.623 187.32V162.84H978.663V207H970.503L968.583 202.68C967.495 203.576 966.311 204.376 965.031 205.08C963.943 205.72 962.631 206.296 961.095 206.808C959.559 207.256 957.895 207.48 956.103 207.48ZM1011.81 162.36C1014.43 162.36 1016.83 162.808 1019.01 163.704C1021.18 164.536 1023.04 165.784 1024.58 167.448C1026.18 169.048 1027.39 171 1028.22 173.304C1029.12 175.608 1029.57 178.2 1029.57 181.08V207H1018.53V182.52C1018.53 179.64 1017.66 177.336 1015.94 175.608C1014.27 173.816 1012.1 172.92 1009.41 172.92C1006.72 172.92 1004.51 173.816 1002.78 175.608C1001.12 177.336 1000.29 179.64 1000.29 182.52V207H989.249V162.84H997.409L999.329 167.16C1000.42 166.264 1001.6 165.464 1002.88 164.76C1003.97 164.184 1005.25 163.64 1006.72 163.128C1008.26 162.616 1009.95 162.36 1011.81 162.36Z" fill="black"/>
<path d="M1281.52 259H1269.52L1292.08 198.52H1302.64L1325.2 259H1313.2L1308.88 246.52H1285.84L1281.52 259ZM1305.04 235.96L1297.36 213.88L1289.68 235.96H1305.04ZM1370.35 242.68C1369.84 244.856 1368.97 246.968 1367.76 249.016C1366.54 251 1365.04 252.792 1363.25 254.392C1361.45 255.928 1359.41 257.176 1357.1 258.136C1354.8 259.032 1352.33 259.48 1349.71 259.48C1346.7 259.48 1343.85 258.904 1341.17 257.752C1338.54 256.536 1336.21 254.904 1334.16 252.856C1332.17 250.808 1330.57 248.44 1329.36 245.752C1328.21 243 1327.63 240.056 1327.63 236.92C1327.63 233.784 1328.21 230.872 1329.36 228.184C1330.57 225.432 1332.17 223.032 1334.16 220.984C1336.21 218.936 1338.54 217.336 1341.17 216.184C1343.85 214.968 1346.7 214.36 1349.71 214.36C1352.33 214.36 1354.8 214.84 1357.1 215.8C1359.41 216.696 1361.45 217.944 1363.25 219.544C1365.04 221.08 1366.54 222.872 1367.76 224.92C1368.97 226.904 1369.84 228.984 1370.35 231.16H1359.31C1358.8 230.008 1358.09 228.984 1357.2 228.088C1356.43 227.32 1355.44 226.616 1354.22 225.976C1353.01 225.272 1351.5 224.92 1349.71 224.92C1346.57 224.92 1343.95 226.008 1341.84 228.184C1339.73 230.36 1338.67 233.272 1338.67 236.92C1338.67 240.568 1339.73 243.48 1341.84 245.656C1343.95 247.832 1346.57 248.92 1349.71 248.92C1351.5 248.92 1353.01 248.6 1354.22 247.96C1355.44 247.32 1356.43 246.616 1357.2 245.848C1358.09 244.952 1358.8 243.896 1359.31 242.68H1370.35ZM1418.35 242.68C1417.84 244.856 1416.97 246.968 1415.76 249.016C1414.54 251 1413.04 252.792 1411.25 254.392C1409.45 255.928 1407.41 257.176 1405.1 258.136C1402.8 259.032 1400.33 259.48 1397.71 259.48C1394.7 259.48 1391.85 258.904 1389.17 257.752C1386.54 256.536 1384.21 254.904 1382.16 252.856C1380.17 250.808 1378.57 248.44 1377.36 245.752C1376.21 243 1375.63 240.056 1375.63 236.92C1375.63 233.784 1376.21 230.872 1377.36 228.184C1378.57 225.432 1380.17 223.032 1382.16 220.984C1384.21 218.936 1386.54 217.336 1389.17 216.184C1391.85 214.968 1394.7 214.36 1397.71 214.36C1400.33 214.36 1402.8 214.84 1405.1 215.8C1407.41 216.696 1409.45 217.944 1411.25 219.544C1413.04 221.08 1414.54 222.872 1415.76 224.92C1416.97 226.904 1417.84 228.984 1418.35 231.16H1407.31C1406.8 230.008 1406.09 228.984 1405.2 228.088C1404.43 227.32 1403.44 226.616 1402.22 225.976C1401.01 225.272 1399.5 224.92 1397.71 224.92C1394.57 224.92 1391.95 226.008 1389.84 228.184C1387.73 230.36 1386.67 233.272 1386.67 236.92C1386.67 240.568 1387.73 243.48 1389.84 245.656C1391.95 247.832 1394.57 248.92 1397.71 248.92C1399.5 248.92 1401.01 248.6 1402.22 247.96C1403.44 247.32 1404.43 246.616 1405.2 245.848C1406.09 244.952 1406.8 243.896 1407.31 242.68H1418.35ZM1465.39 245.56C1464.81 247.224 1463.92 248.888 1462.7 250.552C1461.55 252.216 1460.11 253.72 1458.38 255.064C1456.72 256.344 1454.8 257.4 1452.62 258.232C1450.51 259.064 1448.21 259.48 1445.71 259.48C1442.7 259.48 1439.85 258.904 1437.17 257.752C1434.54 256.536 1432.21 254.904 1430.16 252.856C1428.17 250.808 1426.57 248.44 1425.36 245.752C1424.21 243 1423.63 240.056 1423.63 236.92C1423.63 233.784 1424.21 230.872 1425.36 228.184C1426.57 225.432 1428.17 223.032 1430.16 220.984C1432.21 218.936 1434.54 217.336 1437.17 216.184C1439.85 214.968 1442.7 214.36 1445.71 214.36C1448.59 214.36 1451.31 214.904 1453.87 215.992C1456.43 217.08 1458.67 218.616 1460.59 220.6C1462.51 222.584 1464.01 224.984 1465.1 227.8C1466.25 230.552 1466.83 233.592 1466.83 236.92C1466.83 237.432 1466.8 237.944 1466.73 238.456C1466.67 238.904 1466.61 239.352 1466.54 239.8C1466.48 240.312 1466.41 240.792 1466.35 241.24H1435.63C1436.14 243.416 1437.23 245.24 1438.89 246.712C1440.56 248.184 1442.83 248.92 1445.71 248.92C1447.18 248.92 1448.4 248.76 1449.36 248.44C1450.38 248.12 1451.25 247.736 1451.95 247.288C1452.72 246.776 1453.36 246.2 1453.87 245.56H1465.39ZM1445.71 224.92C1442.83 224.92 1440.46 225.752 1438.61 227.416C1436.81 229.08 1435.66 231.128 1435.15 233.56H1456.27C1455.76 231.128 1454.57 229.08 1452.72 227.416C1450.93 225.752 1448.59 224.92 1445.71 224.92ZM1483.13 245.08C1483.38 246.552 1484.09 247.8 1485.24 248.824C1486.39 249.848 1487.93 250.36 1489.85 250.36C1491.77 250.36 1493.27 249.88 1494.36 248.92C1495.51 247.896 1496.09 246.776 1496.09 245.56C1496.09 244.536 1495.51 243.736 1494.36 243.16C1493.27 242.584 1491.9 242.072 1490.23 241.624C1488.57 241.112 1486.74 240.6 1484.76 240.088C1482.84 239.576 1481.05 238.84 1479.38 237.88C1477.72 236.856 1476.31 235.576 1475.16 234.04C1474.07 232.44 1473.53 230.36 1473.53 227.8C1473.53 226.008 1473.88 224.312 1474.58 222.712C1475.35 221.048 1476.44 219.608 1477.85 218.392C1479.26 217.176 1480.92 216.216 1482.84 215.512C1484.76 214.744 1486.94 214.36 1489.37 214.36C1494.68 214.36 1498.74 215.64 1501.56 218.2C1504.44 220.76 1506.14 223.96 1506.65 227.8H1496.09C1495.83 226.84 1495.13 225.88 1493.98 224.92C1492.89 223.96 1491.51 223.48 1489.85 223.48C1488.18 223.48 1486.87 223.896 1485.91 224.728C1485.02 225.56 1484.57 226.584 1484.57 227.8C1484.57 228.824 1485.11 229.624 1486.2 230.2C1487.35 230.776 1488.76 231.32 1490.42 231.832C1492.09 232.28 1493.88 232.792 1495.8 233.368C1497.78 233.88 1499.61 234.648 1501.27 235.672C1502.94 236.696 1504.31 238.04 1505.4 239.704C1506.55 241.304 1507.13 243.416 1507.13 246.04C1507.13 247.832 1506.74 249.56 1505.98 251.224C1505.21 252.824 1504.12 254.232 1502.71 255.448C1501.3 256.664 1499.58 257.656 1497.53 258.424C1495.54 259.128 1493.3 259.48 1490.81 259.48C1485.05 259.48 1480.66 258.168 1477.66 255.544C1474.71 252.92 1473.02 249.432 1472.57 245.08H1483.13ZM1523.44 245.08C1523.7 246.552 1524.4 247.8 1525.55 248.824C1526.7 249.848 1528.24 250.36 1530.16 250.36C1532.08 250.36 1533.58 249.88 1534.67 248.92C1535.82 247.896 1536.4 246.776 1536.4 245.56C1536.4 244.536 1535.82 243.736 1534.67 243.16C1533.58 242.584 1532.21 242.072 1530.54 241.624C1528.88 241.112 1527.06 240.6 1525.07 240.088C1523.15 239.576 1521.36 238.84 1519.7 237.88C1518.03 236.856 1516.62 235.576 1515.47 234.04C1514.38 232.44 1513.84 230.36 1513.84 227.8C1513.84 226.008 1514.19 224.312 1514.9 222.712C1515.66 221.048 1516.75 219.608 1518.16 218.392C1519.57 217.176 1521.23 216.216 1523.15 215.512C1525.07 214.744 1527.25 214.36 1529.68 214.36C1534.99 214.36 1539.06 215.64 1541.87 218.2C1544.75 220.76 1546.45 223.96 1546.96 227.8H1536.4C1536.14 226.84 1535.44 225.88 1534.29 224.92C1533.2 223.96 1531.82 223.48 1530.16 223.48C1528.5 223.48 1527.18 223.896 1526.22 224.728C1525.33 225.56 1524.88 226.584 1524.88 227.8C1524.88 228.824 1525.42 229.624 1526.51 230.2C1527.66 230.776 1529.07 231.32 1530.74 231.832C1532.4 232.28 1534.19 232.792 1536.11 233.368C1538.1 233.88 1539.92 234.648 1541.58 235.672C1543.25 236.696 1544.62 238.04 1545.71 239.704C1546.86 241.304 1547.44 243.416 1547.44 246.04C1547.44 247.832 1547.06 249.56 1546.29 251.224C1545.52 252.824 1544.43 254.232 1543.02 255.448C1541.62 256.664 1539.89 257.656 1537.84 258.424C1535.86 259.128 1533.62 259.48 1531.12 259.48C1525.36 259.48 1520.98 258.168 1517.97 255.544C1515.02 252.92 1513.33 249.432 1512.88 245.08H1523.44ZM1566.63 259H1555.59V214.84H1566.63V259ZM1561.35 209.08C1559.69 209.08 1558.22 208.472 1556.94 207.256C1555.72 205.976 1555.11 204.504 1555.11 202.84C1555.11 201.176 1555.72 199.736 1556.94 198.52C1558.22 197.24 1559.69 196.6 1561.35 196.6C1563.02 196.6 1564.46 197.24 1565.67 198.52C1566.95 199.736 1567.59 201.176 1567.59 202.84C1567.59 204.504 1566.95 205.976 1565.67 207.256C1564.46 208.472 1563.02 209.08 1561.35 209.08ZM1599.72 259.48C1597.8 259.48 1596.07 259.256 1594.53 258.808C1593 258.296 1591.68 257.72 1590.6 257.08C1589.32 256.376 1588.2 255.576 1587.24 254.68L1585.32 259H1577.16V198.52H1588.2V218.68C1589.09 217.912 1590.12 217.208 1591.27 216.568C1592.29 216.056 1593.48 215.576 1594.82 215.128C1596.23 214.616 1597.86 214.36 1599.72 214.36C1602.47 214.36 1605.09 214.936 1607.59 216.088C1610.08 217.176 1612.26 218.744 1614.12 220.792C1616.04 222.776 1617.54 225.144 1618.63 227.896C1619.78 230.648 1620.35 233.656 1620.35 236.92C1620.35 240.184 1619.78 243.192 1618.63 245.944C1617.54 248.696 1616.04 251.096 1614.12 253.144C1612.26 255.128 1610.08 256.696 1607.59 257.848C1605.09 258.936 1602.47 259.48 1599.72 259.48ZM1587.24 236.92C1587.24 240.568 1588.29 243.48 1590.4 245.656C1592.52 247.832 1595.14 248.92 1598.28 248.92C1601.41 248.92 1604.04 247.832 1606.15 245.656C1608.26 243.48 1609.32 240.568 1609.32 236.92C1609.32 233.272 1608.26 230.36 1606.15 228.184C1604.04 226.008 1601.41 224.92 1598.28 224.92C1595.14 224.92 1592.52 226.008 1590.4 228.184C1588.29 230.36 1587.24 233.272 1587.24 236.92ZM1639.57 259H1628.53V198.52H1639.57V259ZM1689.45 245.56C1688.88 247.224 1687.98 248.888 1686.76 250.552C1685.61 252.216 1684.17 253.72 1682.44 255.064C1680.78 256.344 1678.86 257.4 1676.68 258.232C1674.57 259.064 1672.27 259.48 1669.77 259.48C1666.76 259.48 1663.92 258.904 1661.23 257.752C1658.6 256.536 1656.27 254.904 1654.22 252.856C1652.24 250.808 1650.64 248.44 1649.42 245.752C1648.27 243 1647.69 240.056 1647.69 236.92C1647.69 233.784 1648.27 230.872 1649.42 228.184C1650.64 225.432 1652.24 223.032 1654.22 220.984C1656.27 218.936 1658.6 217.336 1661.23 216.184C1663.92 214.968 1666.76 214.36 1669.77 214.36C1672.65 214.36 1675.37 214.904 1677.93 215.992C1680.49 217.08 1682.73 218.616 1684.65 220.6C1686.57 222.584 1688.08 224.984 1689.16 227.8C1690.32 230.552 1690.89 233.592 1690.89 236.92C1690.89 237.432 1690.86 237.944 1690.8 238.456C1690.73 238.904 1690.67 239.352 1690.6 239.8C1690.54 240.312 1690.48 240.792 1690.41 241.24H1659.69C1660.2 243.416 1661.29 245.24 1662.96 246.712C1664.62 248.184 1666.89 248.92 1669.77 248.92C1671.24 248.92 1672.46 248.76 1673.42 248.44C1674.44 248.12 1675.31 247.736 1676.01 247.288C1676.78 246.776 1677.42 246.2 1677.93 245.56H1689.45ZM1669.77 224.92C1666.89 224.92 1664.52 225.752 1662.67 227.416C1660.88 229.08 1659.72 231.128 1659.21 233.56H1680.33C1679.82 231.128 1678.64 229.08 1676.78 227.416C1674.99 225.752 1672.65 224.92 1669.77 224.92Z" fill="black"/>
<path d="M305.76 831H294.24V770.52H305.76V831ZM339.84 786.36C342.464 786.36 344.864 786.808 347.04 787.704C349.216 788.536 351.072 789.784 352.608 791.448C354.208 793.048 355.424 795 356.256 797.304C357.152 799.608 357.6 802.2 357.6 805.08V831H346.56V806.52C346.56 803.64 345.696 801.336 343.968 799.608C342.304 797.816 340.128 796.92 337.44 796.92C334.752 796.92 332.544 797.816 330.816 799.608C329.152 801.336 328.32 803.64 328.32 806.52V831H317.28V786.84H325.44L327.36 791.16C328.448 790.264 329.632 789.464 330.912 788.76C332 788.184 333.28 787.64 334.752 787.128C336.288 786.616 337.984 786.36 339.84 786.36ZM408.038 814.68C407.526 816.856 406.662 818.968 405.446 821.016C404.23 823 402.726 824.792 400.934 826.392C399.142 827.928 397.094 829.176 394.79 830.136C392.486 831.032 390.022 831.48 387.398 831.48C384.39 831.48 381.542 830.904 378.854 829.752C376.23 828.536 373.894 826.904 371.846 824.856C369.862 822.808 368.262 820.44 367.046 817.752C365.894 815 365.318 812.056 365.318 808.92C365.318 805.784 365.894 802.872 367.046 800.184C368.262 797.432 369.862 795.032 371.846 792.984C373.894 790.936 376.23 789.336 378.854 788.184C381.542 786.968 384.39 786.36 387.398 786.36C390.022 786.36 392.486 786.84 394.79 787.8C397.094 788.696 399.142 789.944 400.934 791.544C402.726 793.08 404.23 794.872 405.446 796.92C406.662 798.904 407.526 800.984 408.038 803.16H396.998C396.486 802.008 395.782 800.984 394.886 800.088C394.118 799.32 393.126 798.616 391.91 797.976C390.694 797.272 389.19 796.92 387.398 796.92C384.262 796.92 381.638 798.008 379.526 800.184C377.414 802.36 376.358 805.272 376.358 808.92C376.358 812.568 377.414 815.48 379.526 817.656C381.638 819.832 384.262 820.92 387.398 820.92C389.19 820.92 390.694 820.6 391.91 819.96C393.126 819.32 394.118 818.616 394.886 817.848C395.782 816.952 396.486 815.896 396.998 814.68H408.038ZM426.758 831H415.718V770.52H426.758V831ZM455.04 831.48C452.416 831.48 450.016 831.064 447.84 830.232C445.664 829.336 443.776 828.088 442.176 826.488C440.64 824.824 439.424 822.84 438.528 820.536C437.696 818.232 437.28 815.64 437.28 812.76V786.84H448.32V811.32C448.32 814.2 449.152 816.536 450.816 818.328C452.544 820.056 454.752 820.92 457.44 820.92C460.128 820.92 462.304 820.056 463.968 818.328C465.696 816.536 466.56 814.2 466.56 811.32V786.84H477.6V831H469.44L467.52 826.68C466.432 827.576 465.248 828.376 463.968 829.08C462.88 829.72 461.568 830.296 460.032 830.808C458.496 831.256 456.832 831.48 455.04 831.48ZM496.346 817.08C496.602 818.552 497.306 819.8 498.458 820.824C499.61 821.848 501.146 822.36 503.066 822.36C504.986 822.36 506.49 821.88 507.578 820.92C508.73 819.896 509.306 818.776 509.306 817.56C509.306 816.536 508.73 815.736 507.578 815.16C506.49 814.584 505.114 814.072 503.45 813.624C501.786 813.112 499.962 812.6 497.978 812.088C496.058 811.576 494.266 810.84 492.602 809.88C490.938 808.856 489.53 807.576 488.378 806.04C487.29 804.44 486.746 802.36 486.746 799.8C486.746 798.008 487.098 796.312 487.802 794.712C488.57 793.048 489.658 791.608 491.066 790.392C492.474 789.176 494.138 788.216 496.058 787.512C497.978 786.744 500.154 786.36 502.586 786.36C507.898 786.36 511.962 787.64 514.778 790.2C517.658 792.76 519.354 795.96 519.866 799.8H509.306C509.05 798.84 508.346 797.88 507.194 796.92C506.106 795.96 504.73 795.48 503.066 795.48C501.402 795.48 500.09 795.896 499.13 796.728C498.234 797.56 497.786 798.584 497.786 799.8C497.786 800.824 498.33 801.624 499.418 802.2C500.57 802.776 501.978 803.32 503.642 803.832C505.306 804.28 507.098 804.792 509.018 805.368C511.002 805.88 512.826 806.648 514.49 807.672C516.154 808.696 517.53 810.04 518.618 811.704C519.77 813.304 520.346 815.416 520.346 818.04C520.346 819.832 519.962 821.56 519.194 823.224C518.426 824.824 517.338 826.232 515.93 827.448C514.522 828.664 512.794 829.656 510.746 830.424C508.762 831.128 506.522 831.48 504.026 831.48C498.266 831.48 493.882 830.168 490.874 827.544C487.93 824.92 486.234 821.432 485.786 817.08H496.346ZM539.539 831H528.499V786.84H539.539V831ZM534.259 781.08C532.595 781.08 531.123 780.472 529.843 779.256C528.627 777.976 528.019 776.504 528.019 774.84C528.019 773.176 528.627 771.736 529.843 770.52C531.123 769.24 532.595 768.6 534.259 768.6C535.923 768.6 537.363 769.24 538.579 770.52C539.859 771.736 540.499 773.176 540.499 774.84C540.499 776.504 539.859 777.976 538.579 779.256C537.363 780.472 535.923 781.08 534.259 781.08ZM589.421 786.84L572.621 831H562.061L545.261 786.84H556.781L567.341 817.368L577.901 786.84H589.421ZM634.515 817.56C633.939 819.224 633.043 820.888 631.827 822.552C630.675 824.216 629.235 825.72 627.507 827.064C625.843 828.344 623.923 829.4 621.747 830.232C619.635 831.064 617.331 831.48 614.835 831.48C611.827 831.48 608.979 830.904 606.291 829.752C603.667 828.536 601.331 826.904 599.283 824.856C597.299 822.808 595.699 820.44 594.483 817.752C593.331 815 592.755 812.056 592.755 808.92C592.755 805.784 593.331 802.872 594.483 800.184C595.699 797.432 597.299 795.032 599.283 792.984C601.331 790.936 603.667 789.336 606.291 788.184C608.979 786.968 611.827 786.36 614.835 786.36C617.715 786.36 620.435 786.904 622.995 787.992C625.555 789.08 627.795 790.616 629.715 792.6C631.635 794.584 633.139 796.984 634.227 799.8C635.379 802.552 635.955 805.592 635.955 808.92C635.955 809.432 635.923 809.944 635.859 810.456C635.795 810.904 635.731 811.352 635.667 811.8C635.603 812.312 635.539 812.792 635.475 813.24H604.755C605.267 815.416 606.355 817.24 608.019 818.712C609.683 820.184 611.955 820.92 614.835 820.92C616.307 820.92 617.523 820.76 618.483 820.44C619.507 820.12 620.371 819.736 621.075 819.288C621.843 818.776 622.483 818.2 622.995 817.56H634.515ZM614.835 796.92C611.955 796.92 609.587 797.752 607.731 799.416C605.939 801.08 604.787 803.128 604.275 805.56H625.395C624.883 803.128 623.699 801.08 621.843 799.416C620.051 797.752 617.715 796.92 614.835 796.92Z" fill="black"/>
<path d="M177.52 640H165.52L188.08 579.52H198.64L221.2 640H209.2L204.88 627.52H181.84L177.52 640ZM201.04 616.96L193.36 594.88L185.68 616.96H201.04ZM266.35 623.68C265.838 625.856 264.974 627.968 263.758 630.016C262.542 632 261.038 633.792 259.246 635.392C257.454 636.928 255.406 638.176 253.102 639.136C250.798 640.032 248.334 640.48 245.71 640.48C242.702 640.48 239.854 639.904 237.166 638.752C234.542 637.536 232.206 635.904 230.158 633.856C228.174 631.808 226.574 629.44 225.358 626.752C224.206 624 223.63 621.056 223.63 617.92C223.63 614.784 224.206 611.872 225.358 609.184C226.574 606.432 228.174 604.032 230.158 601.984C232.206 599.936 234.542 598.336 237.166 597.184C239.854 595.968 242.702 595.36 245.71 595.36C248.334 595.36 250.798 595.84 253.102 596.8C255.406 597.696 257.454 598.944 259.246 600.544C261.038 602.08 262.542 603.872 263.758 605.92C264.974 607.904 265.838 609.984 266.35 612.16H255.31C254.798 611.008 254.094 609.984 253.198 609.088C252.43 608.32 251.438 607.616 250.222 606.976C249.006 606.272 247.502 605.92 245.71 605.92C242.574 605.92 239.95 607.008 237.838 609.184C235.726 611.36 234.67 614.272 234.67 617.92C234.67 621.568 235.726 624.48 237.838 626.656C239.95 628.832 242.574 629.92 245.71 629.92C247.502 629.92 249.006 629.6 250.222 628.96C251.438 628.32 252.43 627.616 253.198 626.848C254.094 625.952 254.798 624.896 255.31 623.68H266.35ZM314.35 623.68C313.838 625.856 312.974 627.968 311.758 630.016C310.542 632 309.038 633.792 307.246 635.392C305.454 636.928 303.406 638.176 301.102 639.136C298.798 640.032 296.334 640.48 293.71 640.48C290.702 640.48 287.854 639.904 285.166 638.752C282.542 637.536 280.206 635.904 278.158 633.856C276.174 631.808 274.574 629.44 273.358 626.752C272.206 624 271.63 621.056 271.63 617.92C271.63 614.784 272.206 611.872 273.358 609.184C274.574 606.432 276.174 604.032 278.158 601.984C280.206 599.936 282.542 598.336 285.166 597.184C287.854 595.968 290.702 595.36 293.71 595.36C296.334 595.36 298.798 595.84 301.102 596.8C303.406 597.696 305.454 598.944 307.246 600.544C309.038 602.08 310.542 603.872 311.758 605.92C312.974 607.904 313.838 609.984 314.35 612.16H303.31C302.798 611.008 302.094 609.984 301.198 609.088C300.43 608.32 299.438 607.616 298.222 606.976C297.006 606.272 295.502 605.92 293.71 605.92C290.574 605.92 287.95 607.008 285.838 609.184C283.726 611.36 282.67 614.272 282.67 617.92C282.67 621.568 283.726 624.48 285.838 626.656C287.95 628.832 290.574 629.92 293.71 629.92C295.502 629.92 297.006 629.6 298.222 628.96C299.438 628.32 300.43 627.616 301.198 626.848C302.094 625.952 302.798 624.896 303.31 623.68H314.35ZM361.39 626.56C360.814 628.224 359.918 629.888 358.702 631.552C357.55 633.216 356.11 634.72 354.382 636.064C352.718 637.344 350.798 638.4 348.622 639.232C346.51 640.064 344.206 640.48 341.71 640.48C338.702 640.48 335.854 639.904 333.166 638.752C330.542 637.536 328.206 635.904 326.158 633.856C324.174 631.808 322.574 629.44 321.358 626.752C320.206 624 319.63 621.056 319.63 617.92C319.63 614.784 320.206 611.872 321.358 609.184C322.574 606.432 324.174 604.032 326.158 601.984C328.206 599.936 330.542 598.336 333.166 597.184C335.854 595.968 338.702 595.36 341.71 595.36C344.59 595.36 347.31 595.904 349.87 596.992C352.43 598.08 354.67 599.616 356.59 601.6C358.51 603.584 360.014 605.984 361.102 608.8C362.254 611.552 362.83 614.592 362.83 617.92C362.83 618.432 362.798 618.944 362.734 619.456C362.67 619.904 362.606 620.352 362.542 620.8C362.478 621.312 362.414 621.792 362.35 622.24H331.63C332.142 624.416 333.23 626.24 334.894 627.712C336.558 629.184 338.83 629.92 341.71 629.92C343.182 629.92 344.398 629.76 345.358 629.44C346.382 629.12 347.246 628.736 347.95 628.288C348.718 627.776 349.358 627.2 349.87 626.56H361.39ZM341.71 605.92C338.83 605.92 336.462 606.752 334.606 608.416C332.814 610.08 331.662 612.128 331.15 614.56H352.27C351.758 612.128 350.574 610.08 348.718 608.416C346.926 606.752 344.59 605.92 341.71 605.92ZM393.528 595.36C396.28 595.36 398.904 595.936 401.4 597.088C403.896 598.176 406.072 599.744 407.928 601.792C409.848 603.776 411.352 606.144 412.44 608.896C413.592 611.648 414.167 614.656 414.167 617.92C414.167 621.184 413.592 624.192 412.44 626.944C411.352 629.696 409.848 632.096 407.928 634.144C406.072 636.128 403.896 637.696 401.4 638.848C398.904 639.936 396.28 640.48 393.528 640.48C391.672 640.48 390.04 640.256 388.632 639.808C387.288 639.36 386.104 638.88 385.08 638.368C383.928 637.728 382.904 636.992 382.008 636.16V655.36H370.968V595.84H379.128L381.048 600.16C382.008 599.264 383.128 598.464 384.408 597.76C385.496 597.184 386.808 596.64 388.344 596.128C389.88 595.616 391.608 595.36 393.528 595.36ZM381.048 617.92C381.048 621.568 382.104 624.48 384.216 626.656C386.328 628.832 388.952 629.92 392.088 629.92C395.224 629.92 397.848 628.832 399.96 626.656C402.072 624.48 403.128 621.568 403.128 617.92C403.128 614.272 402.072 611.36 399.96 609.184C397.848 607.008 395.224 605.92 392.088 605.92C388.952 605.92 386.328 607.008 384.216 609.184C382.104 611.36 381.048 614.272 381.048 617.92ZM427.143 585.28H436.743V595.84H446.343V605.92H436.743V624.16C436.743 626.08 437.287 627.616 438.375 628.768C439.527 629.856 441.063 630.4 442.983 630.4C443.495 630.4 443.911 630.4 444.231 630.4C444.551 630.336 444.839 630.272 445.095 630.208C445.351 630.144 445.607 630.048 445.863 629.92V639.52C445.415 639.712 444.903 639.872 444.327 640C443.239 640.32 441.991 640.48 440.583 640.48C438.407 640.48 436.391 640.128 434.535 639.424C432.743 638.656 431.175 637.568 429.831 636.16C428.551 634.752 427.527 633.088 426.759 631.168C426.055 629.248 425.703 627.072 425.703 624.64V605.92H418.983V596.8H421.863C425.383 596.8 427.143 595.04 427.143 591.52V585.28ZM466.476 640H455.436V595.84H466.476V640ZM461.196 590.08C459.532 590.08 458.06 589.472 456.78 588.256C455.564 586.976 454.956 585.504 454.956 583.84C454.956 582.176 455.564 580.736 456.78 579.52C458.06 578.24 459.532 577.6 461.196 577.6C462.86 577.6 464.3 578.24 465.516 579.52C466.796 580.736 467.436 582.176 467.436 583.84C467.436 585.504 466.796 586.976 465.516 588.256C464.3 589.472 462.86 590.08 461.196 590.08ZM499.559 595.36C502.183 595.36 504.583 595.808 506.759 596.704C508.935 597.536 510.791 598.784 512.327 600.448C513.927 602.048 515.143 604 515.975 606.304C516.871 608.608 517.319 611.2 517.319 614.08V640H506.279V615.52C506.279 612.64 505.415 610.336 503.687 608.608C502.023 606.816 499.847 605.92 497.159 605.92C494.471 605.92 492.263 606.816 490.535 608.608C488.871 610.336 488.039 612.64 488.039 615.52V640H476.999V595.84H485.159L487.079 600.16C488.167 599.264 489.351 598.464 490.631 597.76C491.719 597.184 492.999 596.64 494.471 596.128C496.007 595.616 497.703 595.36 499.559 595.36ZM545.196 595.36C547.116 595.36 548.844 595.616 550.38 596.128C551.916 596.64 553.228 597.184 554.316 597.76C555.532 598.464 556.652 599.264 557.676 600.16L559.596 595.84H567.756V637.12C567.756 642.88 565.9 647.52 562.188 651.04C558.54 654.56 553.356 656.32 546.636 656.32C542.54 656.32 539.212 655.584 536.652 654.112C534.156 652.64 532.172 650.976 530.7 649.12C529.036 647.008 527.788 644.608 526.956 641.92H537.996C538.444 642.752 539.052 643.488 539.82 644.128C540.524 644.64 541.42 645.12 542.508 645.568C543.596 646.016 544.972 646.24 546.636 646.24C549.772 646.24 552.236 645.376 554.028 643.648C555.82 641.984 556.716 639.808 556.716 637.12V633.76C555.82 634.656 554.796 635.456 553.644 636.16C552.62 636.8 551.404 637.376 549.996 637.888C548.588 638.336 546.988 638.56 545.196 638.56C542.444 638.56 539.82 638.016 537.324 636.928C534.892 635.84 532.748 634.336 530.892 632.416C529.1 630.496 527.66 628.224 526.572 625.6C525.548 622.976 525.036 620.096 525.036 616.96C525.036 613.824 525.548 610.944 526.572 608.32C527.66 605.696 529.1 603.424 530.892 601.504C532.748 599.584 534.892 598.08 537.324 596.992C539.82 595.904 542.444 595.36 545.196 595.36ZM536.076 616.96C536.076 618.496 536.332 619.936 536.844 621.28C537.42 622.624 538.188 623.808 539.148 624.832C540.108 625.792 541.228 626.56 542.508 627.136C543.788 627.712 545.164 628 546.636 628C548.044 628 549.388 627.712 550.668 627.136C551.948 626.56 553.068 625.792 554.028 624.832C554.988 623.808 555.756 622.624 556.332 621.28C556.908 619.936 557.196 618.496 557.196 616.96C557.196 615.424 556.908 613.984 556.332 612.64C555.756 611.296 554.988 610.144 554.028 609.184C553.068 608.16 551.948 607.36 550.668 606.784C549.388 606.208 548.044 605.92 546.636 605.92C545.164 605.92 543.788 606.208 542.508 606.784C541.228 607.36 540.108 608.16 539.148 609.184C538.188 610.144 537.42 611.296 536.844 612.64C536.332 613.984 536.076 615.424 536.076 616.96Z" fill="black"/>
<path d="M180.72 388.52V449H169.2V423.56H143.76V449H132.24V388.52H143.76V412.52H169.2V388.52H180.72ZM203.258 449H192.218V404.84H203.258V449ZM197.978 399.08C196.314 399.08 194.842 398.472 193.562 397.256C192.346 395.976 191.738 394.504 191.738 392.84C191.738 391.176 192.346 389.736 193.562 388.52C194.842 387.24 196.314 386.6 197.978 386.6C199.642 386.6 201.082 387.24 202.298 388.52C203.578 389.736 204.218 391.176 204.218 392.84C204.218 394.504 203.578 395.976 202.298 397.256C201.082 398.472 199.642 399.08 197.978 399.08ZM231.54 404.36C233.46 404.36 235.188 404.616 236.724 405.128C238.26 405.64 239.572 406.184 240.66 406.76C241.876 407.464 242.996 408.264 244.02 409.16L245.94 404.84H254.1V446.12C254.1 451.88 252.244 456.52 248.532 460.04C244.884 463.56 239.7 465.32 232.98 465.32C228.884 465.32 225.556 464.584 222.996 463.112C220.5 461.64 218.516 459.976 217.044 458.12C215.38 456.008 214.132 453.608 213.3 450.92H224.34C224.788 451.752 225.396 452.488 226.164 453.128C226.868 453.64 227.764 454.12 228.852 454.568C229.94 455.016 231.316 455.24 232.98 455.24C236.116 455.24 238.58 454.376 240.372 452.648C242.164 450.984 243.06 448.808 243.06 446.12V442.76C242.164 443.656 241.14 444.456 239.988 445.16C238.964 445.8 237.748 446.376 236.34 446.888C234.932 447.336 233.332 447.56 231.54 447.56C228.788 447.56 226.164 447.016 223.668 445.928C221.236 444.84 219.092 443.336 217.236 441.416C215.444 439.496 214.004 437.224 212.916 434.6C211.892 431.976 211.38 429.096 211.38 425.96C211.38 422.824 211.892 419.944 212.916 417.32C214.004 414.696 215.444 412.424 217.236 410.504C219.092 408.584 221.236 407.08 223.668 405.992C226.164 404.904 228.788 404.36 231.54 404.36ZM222.42 425.96C222.42 427.496 222.676 428.936 223.188 430.28C223.764 431.624 224.532 432.808 225.492 433.832C226.452 434.792 227.572 435.56 228.852 436.136C230.132 436.712 231.508 437 232.98 437C234.388 437 235.732 436.712 237.012 436.136C238.292 435.56 239.412 434.792 240.372 433.832C241.332 432.808 242.1 431.624 242.676 430.28C243.252 428.936 243.54 427.496 243.54 425.96C243.54 424.424 243.252 422.984 242.676 421.64C242.1 420.296 241.332 419.144 240.372 418.184C239.412 417.16 238.292 416.36 237.012 415.784C235.732 415.208 234.388 414.92 232.98 414.92C231.508 414.92 230.132 415.208 228.852 415.784C227.572 416.36 226.452 417.16 225.492 418.184C224.532 419.144 223.764 420.296 223.188 421.64C222.676 422.984 222.42 424.424 222.42 425.96ZM288.206 404.36C290.574 404.36 292.782 404.808 294.83 405.704C296.942 406.536 298.734 407.784 300.206 409.448C301.678 411.048 302.83 413 303.662 415.304C304.558 417.608 305.006 420.2 305.006 423.08V449H293.966V424.52C293.966 421.64 293.102 419.336 291.374 417.608C289.71 415.816 287.534 414.92 284.846 414.92C282.158 414.92 279.95 415.816 278.222 417.608C276.558 419.336 275.726 421.64 275.726 424.52V449H264.686V388.52H275.726V409.16C276.558 408.264 277.55 407.464 278.702 406.76C279.726 406.184 281.006 405.64 282.542 405.128C284.142 404.616 286.03 404.36 288.206 404.36ZM392.846 418.76C392.846 421.64 392.494 424.264 391.79 426.632C391.15 429 390.446 431.016 389.678 432.68C388.782 434.664 387.758 436.424 386.606 437.96L392.366 443.72L386.126 450.44L379.886 444.2C378.606 445.224 377.134 446.12 375.47 446.888C374.062 447.592 372.334 448.2 370.286 448.712C368.302 449.224 366.062 449.48 363.566 449.48C359.598 449.48 355.822 448.712 352.238 447.176C348.718 445.576 345.614 443.4 342.926 440.648C340.302 437.832 338.19 434.568 336.59 430.856C335.054 427.144 334.286 423.112 334.286 418.76C334.286 414.472 335.054 410.472 336.59 406.76C338.19 402.984 340.302 399.72 342.926 396.968C345.614 394.152 348.718 391.976 352.238 390.44C355.822 388.84 359.598 388.04 363.566 388.04C367.534 388.04 371.278 388.84 374.798 390.44C378.382 391.976 381.486 394.152 384.11 396.968C386.798 399.72 388.91 402.984 390.446 406.76C392.046 410.472 392.846 414.472 392.846 418.76ZM345.806 418.76C345.806 421.64 346.286 424.296 347.246 426.728C348.206 429.096 349.486 431.176 351.086 432.968C352.686 434.696 354.542 436.04 356.654 437C358.83 437.96 361.134 438.44 363.566 438.44C364.846 438.44 365.998 438.344 367.022 438.152C368.046 437.96 368.91 437.736 369.614 437.48C370.382 437.224 371.086 436.904 371.726 436.52L365.486 430.28L371.726 423.56L378.446 429.8C378.958 428.968 379.438 427.976 379.886 426.824C380.206 425.864 380.526 424.712 380.846 423.368C381.166 421.96 381.326 420.424 381.326 418.76C381.326 415.88 380.846 413.256 379.886 410.888C378.926 408.456 377.646 406.376 376.046 404.648C374.446 402.856 372.558 401.48 370.382 400.52C368.206 399.56 365.934 399.08 363.566 399.08C361.134 399.08 358.83 399.56 356.654 400.52C354.542 401.48 352.686 402.856 351.086 404.648C349.486 406.376 348.206 408.456 347.246 410.888C346.286 413.256 345.806 415.88 345.806 418.76ZM418.759 449.48C416.135 449.48 413.735 449.064 411.559 448.232C409.383 447.336 407.495 446.088 405.895 444.488C404.359 442.824 403.143 440.84 402.247 438.536C401.415 436.232 400.999 433.64 400.999 430.76V404.84H412.039V429.32C412.039 432.2 412.871 434.536 414.535 436.328C416.263 438.056 418.471 438.92 421.159 438.92C423.847 438.92 426.023 438.056 427.687 436.328C429.415 434.536 430.279 432.2 430.279 429.32V404.84H441.319V449H433.159L431.239 444.68C430.151 445.576 428.967 446.376 427.687 447.08C426.599 447.72 425.287 448.296 423.751 448.808C422.215 449.256 420.551 449.48 418.759 449.48ZM470.145 404.36C472.641 404.36 474.945 404.808 477.057 405.704C479.169 406.536 480.993 407.72 482.529 409.256C484.065 410.792 485.249 412.616 486.081 414.728C486.977 416.84 487.425 419.144 487.425 421.64V449H479.265L477.345 444.68C476.321 445.576 475.201 446.376 473.985 447.08C472.897 447.72 471.585 448.296 470.049 448.808C468.513 449.256 466.785 449.48 464.865 449.48C460.065 449.48 456.385 448.328 453.825 446.024C451.265 443.656 449.985 440.648 449.985 437C449.985 434.824 450.401 432.84 451.233 431.048C452.129 429.192 453.601 427.624 455.649 426.344C457.697 425 460.385 423.976 463.713 423.272C467.105 422.504 471.329 422.12 476.385 422.12C476.385 419.688 475.713 417.8 474.369 416.456C473.089 415.112 471.361 414.44 469.185 414.44C467.713 414.44 466.529 414.696 465.633 415.208C464.801 415.72 464.129 416.264 463.617 416.84C463.041 417.544 462.657 418.344 462.465 419.24H451.425C451.681 417.192 452.257 415.272 453.153 413.48C454.113 411.688 455.393 410.12 456.993 408.776C458.593 407.432 460.481 406.376 462.657 405.608C464.897 404.776 467.393 404.36 470.145 404.36ZM466.785 440.84C469.665 440.84 471.969 440.008 473.697 438.344C475.489 436.616 476.385 434.408 476.385 431.72V429.8C473.121 429.8 470.497 429.96 468.513 430.28C466.529 430.536 464.961 430.952 463.809 431.528C462.721 432.04 461.985 432.68 461.601 433.448C461.217 434.216 461.025 435.08 461.025 436.04C461.025 437.256 461.569 438.376 462.657 439.4C463.745 440.36 465.121 440.84 466.785 440.84ZM508.508 449H497.468V388.52H508.508V449ZM530.07 449H519.03V404.84H530.07V449ZM524.79 399.08C523.126 399.08 521.654 398.472 520.374 397.256C519.158 395.976 518.55 394.504 518.55 392.84C518.55 391.176 519.158 389.736 520.374 388.52C521.654 387.24 523.126 386.6 524.79 386.6C526.454 386.6 527.894 387.24 529.11 388.52C530.39 389.736 531.03 391.176 531.03 392.84C531.03 394.504 530.39 395.976 529.11 397.256C527.894 398.472 526.454 399.08 524.79 399.08ZM545.393 394.28H554.993V404.84H564.593V414.92H554.993V433.16C554.993 435.08 555.537 436.616 556.625 437.768C557.777 438.856 559.313 439.4 561.233 439.4C561.745 439.4 562.161 439.4 562.481 439.4C562.801 439.336 563.089 439.272 563.345 439.208C563.601 439.144 563.857 439.048 564.113 438.92V448.52C563.665 448.712 563.153 448.872 562.577 449C561.489 449.32 560.241 449.48 558.833 449.48C556.657 449.48 554.641 449.128 552.785 448.424C550.993 447.656 549.425 446.568 548.081 445.16C546.801 443.752 545.777 442.088 545.009 440.168C544.305 438.248 543.953 436.072 543.953 433.64V414.92H537.233V405.8H540.113C543.633 405.8 545.393 404.04 545.393 400.52V394.28ZM568.418 404.84H579.938L590.978 433.64L601.058 404.84H612.578C609.442 412.904 606.594 420.2 604.034 426.728C602.946 429.544 601.858 432.296 600.77 434.984C599.746 437.672 598.818 440.136 597.986 442.376C597.154 444.552 596.45 446.376 595.874 447.848C595.298 449.32 594.946 450.184 594.818 450.44C593.73 453.064 592.642 455.272 591.554 457.064C590.53 458.92 589.41 460.424 588.194 461.576C586.978 462.728 585.666 463.56 584.258 464.072C582.85 464.584 581.25 464.84 579.458 464.84C578.946 464.84 578.434 464.808 577.922 464.744C577.474 464.744 577.09 464.712 576.77 464.648C576.322 464.584 575.938 464.488 575.618 464.36V455.24C578.05 455.24 579.906 454.696 581.186 453.608C582.53 452.52 583.554 451.144 584.258 449.48L585.218 447.08L568.418 404.84Z" fill="black"/>
<path d="M390.96 247.96V259H348.24V198.52H390V209.56H359.76V222.52H387.6V233.56H359.76V247.96H390.96ZM406.312 259H394.312L409.193 236.44L395.273 214.84H407.273L415.913 228.76L424.553 214.84H436.553L422.633 236.44L437.513 259H425.513L415.913 244.12L406.312 259ZM482.194 242.68C481.682 244.856 480.818 246.968 479.602 249.016C478.386 251 476.882 252.792 475.09 254.392C473.298 255.928 471.25 257.176 468.946 258.136C466.642 259.032 464.178 259.48 461.554 259.48C458.546 259.48 455.698 258.904 453.01 257.752C450.386 256.536 448.05 254.904 446.002 252.856C444.018 250.808 442.418 248.44 441.202 245.752C440.05 243 439.474 240.056 439.474 236.92C439.474 233.784 440.05 230.872 441.202 228.184C442.418 225.432 444.018 223.032 446.002 220.984C448.05 218.936 450.386 217.336 453.01 216.184C455.698 214.968 458.546 214.36 461.554 214.36C464.178 214.36 466.642 214.84 468.946 215.8C471.25 216.696 473.298 217.944 475.09 219.544C476.882 221.08 478.386 222.872 479.602 224.92C480.818 226.904 481.682 228.984 482.194 231.16H471.154C470.642 230.008 469.938 228.984 469.042 228.088C468.274 227.32 467.282 226.616 466.066 225.976C464.85 225.272 463.346 224.92 461.554 224.92C458.418 224.92 455.794 226.008 453.682 228.184C451.57 230.36 450.514 233.272 450.514 236.92C450.514 240.568 451.57 243.48 453.682 245.656C455.794 247.832 458.418 248.92 461.554 248.92C463.346 248.92 464.85 248.6 466.066 247.96C467.282 247.32 468.274 246.616 469.042 245.848C469.938 244.952 470.642 243.896 471.154 242.68H482.194ZM500.914 259H489.874V214.84H500.914V259ZM495.634 209.08C493.97 209.08 492.498 208.472 491.218 207.256C490.002 205.976 489.394 204.504 489.394 202.84C489.394 201.176 490.002 199.736 491.218 198.52C492.498 197.24 493.97 196.6 495.634 196.6C497.298 196.6 498.738 197.24 499.954 198.52C501.234 199.736 501.874 201.176 501.874 202.84C501.874 204.504 501.234 205.976 499.954 207.256C498.738 208.472 497.298 209.08 495.634 209.08ZM516.236 204.28H525.836V214.84H535.436V224.92H525.836V243.16C525.836 245.08 526.38 246.616 527.468 247.768C528.62 248.856 530.156 249.4 532.076 249.4C532.588 249.4 533.004 249.4 533.324 249.4C533.644 249.336 533.932 249.272 534.188 249.208C534.444 249.144 534.7 249.048 534.956 248.92V258.52C534.508 258.712 533.996 258.872 533.42 259C532.332 259.32 531.084 259.48 529.676 259.48C527.5 259.48 525.484 259.128 523.628 258.424C521.836 257.656 520.268 256.568 518.924 255.16C517.644 253.752 516.62 252.088 515.852 250.168C515.148 248.248 514.796 246.072 514.796 243.64V224.92H508.076V215.8H510.956C514.476 215.8 516.236 214.04 516.236 210.52V204.28ZM582.953 245.56C582.377 247.224 581.481 248.888 580.265 250.552C579.113 252.216 577.673 253.72 575.945 255.064C574.281 256.344 572.361 257.4 570.185 258.232C568.073 259.064 565.769 259.48 563.273 259.48C560.265 259.48 557.417 258.904 554.729 257.752C552.105 256.536 549.769 254.904 547.721 252.856C545.737 250.808 544.137 248.44 542.921 245.752C541.769 243 541.193 240.056 541.193 236.92C541.193 233.784 541.769 230.872 542.921 228.184C544.137 225.432 545.737 223.032 547.721 220.984C549.769 218.936 552.105 217.336 554.729 216.184C557.417 214.968 560.265 214.36 563.273 214.36C566.153 214.36 568.873 214.904 571.433 215.992C573.993 217.08 576.233 218.616 578.153 220.6C580.073 222.584 581.577 224.984 582.665 227.8C583.817 230.552 584.393 233.592 584.393 236.92C584.393 237.432 584.361 237.944 584.297 238.456C584.233 238.904 584.169 239.352 584.105 239.8C584.041 240.312 583.977 240.792 583.913 241.24H553.193C553.705 243.416 554.793 245.24 556.457 246.712C558.121 248.184 560.393 248.92 563.273 248.92C564.745 248.92 565.961 248.76 566.921 248.44C567.945 248.12 568.809 247.736 569.513 247.288C570.281 246.776 570.921 246.2 571.433 245.56H582.953ZM563.273 224.92C560.393 224.92 558.025 225.752 556.169 227.416C554.377 229.08 553.225 231.128 552.713 233.56H573.833C573.321 231.128 572.137 229.08 570.281 227.416C568.489 225.752 566.153 224.92 563.273 224.92ZM610.77 259.48C608.018 259.48 605.394 258.936 602.898 257.848C600.402 256.696 598.194 255.128 596.274 253.144C594.418 251.096 592.914 248.696 591.762 245.944C590.674 243.192 590.13 240.184 590.13 236.92C590.13 233.656 590.674 230.648 591.762 227.896C592.914 225.144 594.418 222.776 596.274 220.792C598.194 218.744 600.402 217.176 602.898 216.088C605.394 214.936 608.018 214.36 610.77 214.36C612.562 214.36 614.162 214.616 615.57 215.128C616.978 215.576 618.194 216.056 619.218 216.568C620.37 217.208 621.394 217.912 622.29 218.68V198.52H633.33V259H625.17L623.25 254.68C622.226 255.576 621.106 256.376 619.89 257.08C618.802 257.72 617.49 258.296 615.954 258.808C614.418 259.256 612.69 259.48 610.77 259.48ZM623.25 236.92C623.25 233.272 622.194 230.36 620.082 228.184C617.97 226.008 615.346 224.92 612.21 224.92C609.074 224.92 606.45 226.008 604.338 228.184C602.226 230.36 601.17 233.272 601.17 236.92C601.17 240.568 602.226 243.48 604.338 245.656C606.45 247.832 609.074 248.92 612.21 248.92C615.346 248.92 617.97 247.832 620.082 245.656C622.194 243.48 623.25 240.568 623.25 236.92Z" fill="black"/>
</svg>
