<svg width="3840" height="521" viewBox="0 0 3840 521" fill="none" xmlns="http://www.w3.org/2000/svg">
<path fill-rule="evenodd" clip-rule="evenodd" d="M210.22 257.158L230.602 266.658C232.682 267.484 235.177 267.071 236.426 265.832C236.828 265.433 237.273 265.034 237.734 264.621C238.724 263.732 239.749 262.809 240.585 261.701C242.25 260.049 242.665 257.571 241.417 255.918L231.85 235.678C235.177 230.309 237.673 224.113 239.338 217.917L260.969 210.482C263.048 209.655 264.296 208.003 264.712 205.525V202.633V199.742C264.712 197.677 263.048 195.611 260.969 194.785L239.754 186.937C238.089 180.741 235.595 174.545 232.267 169.175L234.303 164.867C275.326 177.219 305 214.881 305 259.69C305 276.944 300.559 293.138 292.762 307.236C292.263 306.074 290.677 305.309 289.476 305.309L272.334 306.142C269.407 302.394 266.063 299.061 262.301 296.146L263.136 279.07C263.136 277.82 262.301 276.155 261.046 275.738C259.374 274.905 258.119 274.488 256.447 274.072C255.192 273.656 253.521 274.072 252.684 274.905L241.395 287.4C236.796 286.567 231.779 286.567 227.18 287.4L215.892 274.905C215.056 273.656 213.384 273.239 212.129 274.072C211.762 274.255 211.395 274.357 211.064 274.45C210.641 274.569 210.273 274.671 210.038 274.905C209.202 275.321 208.366 275.738 207.947 275.738C206.694 276.155 205.857 277.82 205.857 279.07L206.694 296.146C202.93 299.061 199.167 302.394 196.659 306.142L179.518 305.309C178.263 305.309 176.591 306.142 176.172 307.391C175.336 309.057 174.919 310.307 174.5 311.973C174.081 313.222 174.5 314.888 175.336 315.721L187.879 326.966C187.043 331.548 187.043 336.546 187.879 341.127L175.336 352.372C174.737 352.769 174.328 353.357 174.157 353.998C133.934 341.085 105 303.604 105 259.69C105 244.577 108.408 230.276 114.493 217.485C116.21 223.7 118.706 229.896 122.034 235.265L112.05 255.918C111.219 257.984 111.635 260.462 112.882 261.701C113.284 262.101 113.687 262.543 114.103 263.001C114.979 263.963 115.915 264.992 117.043 265.832C118.706 267.484 121.202 267.898 122.865 266.658L143.249 257.158C148.657 260.462 154.895 262.94 161.135 264.593L168.623 286.072C169.455 288.138 171.119 289.377 173.614 289.79H176.526H179.438C181.518 289.79 183.597 288.138 184.43 286.072L191.917 264.593C198.988 262.94 204.812 260.462 210.22 257.158ZM233.778 352.926C244.506 352.926 253.203 344.379 253.203 333.838C253.203 323.296 244.506 314.75 233.778 314.75C223.051 314.75 214.354 323.296 214.354 333.838C214.354 344.379 223.051 352.926 233.778 352.926ZM204.279 202.425C204.279 217.427 192.04 229.588 176.941 229.588C161.843 229.588 149.603 217.427 149.603 202.425C149.603 187.423 161.843 175.262 176.941 175.262C192.04 175.262 204.279 187.423 204.279 202.425Z" fill="#0F0E1C"/>
<path d="M423.26 317C422.153 317 421.212 316.668 420.438 316.004C419.774 315.229 419.442 314.289 419.442 313.182V204.786C419.442 203.569 419.774 202.629 420.438 201.965C421.212 201.19 422.153 200.803 423.26 200.803H431.725C432.943 200.803 433.883 201.19 434.547 201.965C435.322 202.629 435.709 203.569 435.709 204.786V250.601H492.812V204.786C492.812 203.569 493.144 202.629 493.808 201.965C494.583 201.19 495.523 200.803 496.63 200.803H505.096C506.313 200.803 507.254 201.19 507.918 201.965C508.692 202.629 509.08 203.569 509.08 204.786V313.182C509.08 314.289 508.692 315.229 507.918 316.004C507.143 316.668 506.202 317 505.096 317H496.63C495.523 317 494.583 316.668 493.808 316.004C493.144 315.229 492.812 314.289 492.812 313.182V265.541H435.709V313.182C435.709 314.289 435.322 315.229 434.547 316.004C433.773 316.668 432.832 317 431.725 317H423.26ZM559.853 318.66C554.43 318.66 549.395 317.553 544.747 315.34C540.099 313.127 536.392 310.139 533.625 306.376C530.969 302.503 529.641 298.242 529.641 293.595C529.641 286.291 532.629 280.315 538.605 275.667C544.692 270.908 552.881 267.81 563.172 266.371L587.906 262.885V258.071C587.906 246.784 581.432 241.14 568.484 241.14C563.615 241.14 559.631 242.191 556.533 244.294C553.434 246.286 551.11 248.665 549.561 251.431C549.229 252.427 548.786 253.147 548.233 253.589C547.79 254.032 547.126 254.253 546.241 254.253H539.103C538.107 254.253 537.222 253.921 536.447 253.257C535.783 252.483 535.451 251.597 535.451 250.601C535.562 247.946 536.779 244.958 539.103 241.638C541.538 238.207 545.245 235.274 550.225 232.84C555.205 230.295 561.346 229.022 568.65 229.022C581.045 229.022 589.953 231.955 595.376 237.82C600.798 243.574 603.51 250.767 603.51 259.399V313.182C603.51 314.289 603.122 315.229 602.348 316.004C601.684 316.668 600.798 317 599.692 317H592.056C590.949 317 590.009 316.668 589.234 316.004C588.57 315.229 588.238 314.289 588.238 313.182V306.044C585.803 309.585 582.262 312.573 577.614 315.008C572.966 317.443 567.046 318.66 559.853 318.66ZM563.338 306.21C570.532 306.21 576.397 303.886 580.934 299.238C585.582 294.48 587.906 287.674 587.906 278.821V274.173L568.65 276.995C560.793 278.102 554.873 279.983 550.889 282.639C546.905 285.184 544.913 288.449 544.913 292.433C544.913 296.859 546.739 300.29 550.391 302.724C554.043 305.048 558.359 306.21 563.338 306.21ZM662.232 318.66C650.391 318.66 641.095 315.34 634.345 308.7C627.705 301.95 624.164 292.543 623.721 280.481L623.555 273.841L623.721 267.201C624.164 255.139 627.705 245.788 634.345 239.148C641.095 232.397 650.391 229.022 662.232 229.022C670.2 229.022 676.95 230.461 682.484 233.338C688.017 236.215 692.111 239.756 694.767 243.962C697.534 248.167 699.028 252.372 699.249 256.577C699.36 257.684 699.028 258.569 698.253 259.233C697.479 259.897 696.538 260.229 695.431 260.229H687.463C686.357 260.229 685.527 260.008 684.974 259.565C684.42 259.123 683.867 258.237 683.314 256.909C681.432 251.597 678.776 247.835 675.346 245.622C671.915 243.298 667.599 242.136 662.398 242.136C655.537 242.136 650.059 244.294 645.964 248.61C641.981 252.815 639.823 259.289 639.491 268.031L639.325 274.007L639.491 279.651C639.823 288.504 641.981 295.033 645.964 299.238C649.948 303.444 655.426 305.546 662.398 305.546C667.599 305.546 671.915 304.44 675.346 302.226C678.776 299.902 681.432 296.084 683.314 290.773C683.867 289.445 684.42 288.559 684.974 288.117C685.527 287.563 686.357 287.287 687.463 287.287H695.431C696.538 287.287 697.479 287.674 698.253 288.449C699.028 289.113 699.36 289.998 699.249 291.105C699.028 295.199 697.534 299.404 694.767 303.72C692.111 307.926 688.017 311.467 682.484 314.344C677.061 317.221 670.311 318.66 662.232 318.66ZM722.947 317C721.84 317 720.899 316.668 720.125 316.004C719.461 315.229 719.129 314.289 719.129 313.182V202.961C719.129 201.854 719.461 200.969 720.125 200.305C720.899 199.53 721.84 199.143 722.947 199.143H730.748C731.855 199.143 732.74 199.53 733.404 200.305C734.179 200.969 734.566 201.854 734.566 202.961V260.727L767.268 233.504C767.6 233.283 768.153 232.84 768.927 232.176C769.702 231.623 770.421 231.235 771.085 231.014C771.86 230.793 772.801 230.682 773.907 230.682H782.705C783.701 230.682 784.531 231.014 785.195 231.678C785.859 232.342 786.191 233.172 786.191 234.168C786.191 235.385 785.527 236.436 784.199 237.322L745.854 269.193L788.349 310.526C789.677 311.633 790.341 312.629 790.341 313.514C790.341 314.51 790.009 315.34 789.345 316.004C788.681 316.668 787.851 317 786.855 317H778.223C776.563 317 775.346 316.834 774.571 316.502C773.907 316.17 772.911 315.395 771.583 314.178L734.566 278.821V313.182C734.566 314.289 734.179 315.229 733.404 316.004C732.74 316.668 731.855 317 730.748 317H722.947ZM873.753 317C856.268 317 847.525 307.262 847.525 287.785V243.962H834.578C833.471 243.962 832.53 243.63 831.756 242.966C831.092 242.191 830.76 241.25 830.76 240.144V234.5C830.76 233.393 831.092 232.508 831.756 231.844C832.53 231.069 833.471 230.682 834.578 230.682H847.525V202.961C847.525 201.854 847.857 200.969 848.521 200.305C849.296 199.53 850.237 199.143 851.343 199.143H859.145C860.252 199.143 861.137 199.53 861.801 200.305C862.576 200.969 862.963 201.854 862.963 202.961V230.682H883.547C884.653 230.682 885.539 231.069 886.203 231.844C886.977 232.508 887.365 233.393 887.365 234.5V240.144C887.365 241.25 886.977 242.191 886.203 242.966C885.539 243.63 884.653 243.962 883.547 243.962H862.963V286.623C862.963 292.156 863.904 296.361 865.785 299.238C867.666 302.005 870.765 303.388 875.081 303.388H885.207C886.313 303.388 887.199 303.776 887.863 304.55C888.637 305.214 889.025 306.1 889.025 307.206V313.182C889.025 314.289 888.637 315.229 887.863 316.004C887.199 316.668 886.313 317 885.207 317H873.753ZM908.882 317C907.775 317 906.835 316.668 906.06 316.004C905.396 315.229 905.064 314.289 905.064 313.182V202.961C905.064 201.854 905.396 200.969 906.06 200.305C906.835 199.53 907.775 199.143 908.882 199.143H917.182C918.288 199.143 919.174 199.53 919.838 200.305C920.612 200.969 921 201.854 921 202.961V241.638C924.209 237.543 927.971 234.444 932.287 232.342C936.603 230.129 941.97 229.022 948.389 229.022C959.013 229.022 967.257 232.453 973.122 239.314C979.098 246.064 982.086 255.083 982.086 266.371V313.182C982.086 314.289 981.699 315.229 980.924 316.004C980.26 316.668 979.375 317 978.268 317H969.968C968.862 317 967.921 316.668 967.147 316.004C966.483 315.229 966.151 314.289 966.151 313.182V267.201C966.151 259.344 964.214 253.257 960.341 248.942C956.578 244.626 951.1 242.468 943.907 242.468C936.935 242.468 931.347 244.681 927.141 249.108C923.047 253.423 921 259.455 921 267.201V313.182C921 314.289 920.612 315.229 919.838 316.004C919.174 316.668 918.288 317 917.182 317H908.882ZM1040.58 318.66C1029.18 318.66 1020.05 315.174 1013.19 308.202C1006.44 301.12 1002.73 291.492 1002.07 279.319L1001.9 273.675L1002.07 268.197C1002.84 256.245 1006.61 246.728 1013.36 239.646C1020.22 232.563 1029.24 229.022 1040.41 229.022C1052.7 229.022 1062.21 232.951 1068.96 240.808C1075.72 248.554 1079.09 259.067 1079.09 272.347V275.169C1079.09 276.276 1078.7 277.216 1077.93 277.991C1077.26 278.655 1076.38 278.987 1075.27 278.987H1017.84V280.481C1018.17 287.674 1020.33 293.816 1024.31 298.906C1028.41 303.886 1033.77 306.376 1040.41 306.376C1045.5 306.376 1049.65 305.38 1052.86 303.388C1056.18 301.286 1058.62 299.128 1060.17 296.914C1061.16 295.586 1061.88 294.812 1062.32 294.59C1062.88 294.259 1063.82 294.093 1065.15 294.093H1073.28C1074.28 294.093 1075.11 294.369 1075.77 294.922C1076.43 295.476 1076.77 296.25 1076.77 297.246C1076.77 299.681 1075.22 302.614 1072.12 306.044C1069.13 309.475 1064.87 312.463 1059.34 315.008C1053.91 317.443 1047.66 318.66 1040.58 318.66ZM1063.32 267.533V267.035C1063.32 259.399 1061.22 253.202 1057.01 248.444C1052.92 243.574 1047.39 241.14 1040.41 241.14C1033.44 241.14 1027.91 243.574 1023.81 248.444C1019.83 253.202 1017.84 259.399 1017.84 267.035V267.533H1063.32ZM1145.6 317C1144.5 317 1143.56 316.668 1142.78 316.004C1142.12 315.229 1141.79 314.289 1141.79 313.182V204.786C1141.79 203.569 1142.12 202.629 1142.78 201.965C1143.56 201.19 1144.5 200.803 1145.6 200.803H1153.24C1155.23 200.803 1156.61 201.577 1157.39 203.127L1212.5 287.785V204.786C1212.5 203.569 1212.83 202.629 1213.5 201.965C1214.27 201.19 1215.21 200.803 1216.32 200.803H1224.29C1225.5 200.803 1226.44 201.19 1227.11 201.965C1227.88 202.629 1228.27 203.569 1228.27 204.786V313.016C1228.27 314.123 1227.88 315.063 1227.11 315.838C1226.44 316.613 1225.56 317 1224.45 317H1216.48C1214.82 317 1213.5 316.225 1212.5 314.676L1157.55 230.848V313.182C1157.55 314.289 1157.17 315.229 1156.39 316.004C1155.62 316.668 1154.68 317 1153.57 317H1145.6ZM1290.4 318.66C1278.23 318.66 1268.77 315.229 1262.02 308.368C1255.38 301.507 1251.84 292.377 1251.39 280.979L1251.23 273.841L1251.39 266.703C1251.84 255.415 1255.43 246.341 1262.18 239.48C1268.93 232.508 1278.34 229.022 1290.4 229.022C1302.47 229.022 1311.87 232.508 1318.62 239.48C1325.37 246.341 1328.97 255.415 1329.41 266.703C1329.52 267.92 1329.58 270.3 1329.58 273.841C1329.58 277.382 1329.52 279.761 1329.41 280.979C1328.97 292.377 1325.37 301.507 1318.62 308.368C1311.98 315.229 1302.58 318.66 1290.4 318.66ZM1290.4 305.878C1297.38 305.878 1302.85 303.665 1306.84 299.238C1310.93 294.812 1313.15 288.449 1313.48 280.149C1313.59 279.042 1313.64 276.94 1313.64 273.841C1313.64 270.742 1313.59 268.64 1313.48 267.533C1313.15 259.233 1310.93 252.87 1306.84 248.444C1302.85 244.017 1297.38 241.804 1290.4 241.804C1283.43 241.804 1277.9 244.017 1273.8 248.444C1269.71 252.87 1267.55 259.233 1267.33 267.533L1267.16 273.841L1267.33 280.149C1267.55 288.449 1269.71 294.812 1273.8 299.238C1277.9 303.665 1283.43 305.878 1290.4 305.878ZM1354.18 317C1353.08 317 1352.14 316.668 1351.36 316.004C1350.7 315.229 1350.36 314.289 1350.36 313.182V234.666C1350.36 233.559 1350.7 232.619 1351.36 231.844C1352.14 231.069 1353.08 230.682 1354.18 230.682H1361.82C1362.92 230.682 1363.87 231.069 1364.64 231.844C1365.41 232.619 1365.8 233.559 1365.8 234.666V241.97C1370.34 234.444 1378.09 230.682 1389.04 230.682H1395.52C1396.62 230.682 1397.51 231.069 1398.17 231.844C1398.95 232.508 1399.33 233.393 1399.33 234.5V241.306C1399.33 242.412 1398.95 243.298 1398.17 243.962C1397.51 244.626 1396.62 244.958 1395.52 244.958H1385.56C1379.58 244.958 1374.88 246.728 1371.45 250.269C1368.02 253.7 1366.3 258.403 1366.3 264.379V313.182C1366.3 314.289 1365.91 315.229 1365.14 316.004C1364.36 316.668 1363.42 317 1362.32 317H1354.18ZM1447.12 317C1429.64 317 1420.89 307.262 1420.89 287.785V243.962H1407.95C1406.84 243.962 1405.9 243.63 1405.12 242.966C1404.46 242.191 1404.13 241.25 1404.13 240.144V234.5C1404.13 233.393 1404.46 232.508 1405.12 231.844C1405.9 231.069 1406.84 230.682 1407.95 230.682H1420.89V202.961C1420.89 201.854 1421.23 200.969 1421.89 200.305C1422.66 199.53 1423.6 199.143 1424.71 199.143H1432.51C1433.62 199.143 1434.51 199.53 1435.17 200.305C1435.94 200.969 1436.33 201.854 1436.33 202.961V230.682H1456.91C1458.02 230.682 1458.91 231.069 1459.57 231.844C1460.35 232.508 1460.73 233.393 1460.73 234.5V240.144C1460.73 241.25 1460.35 242.191 1459.57 242.966C1458.91 243.63 1458.02 243.962 1456.91 243.962H1436.33V286.623C1436.33 292.156 1437.27 296.361 1439.15 299.238C1441.03 302.005 1444.13 303.388 1448.45 303.388H1458.57C1459.68 303.388 1460.57 303.776 1461.23 304.55C1462.01 305.214 1462.39 306.1 1462.39 307.206V313.182C1462.39 314.289 1462.01 315.229 1461.23 316.004C1460.57 316.668 1459.68 317 1458.57 317H1447.12ZM1482.25 317C1481.14 317 1480.2 316.668 1479.43 316.004C1478.76 315.229 1478.43 314.289 1478.43 313.182V202.961C1478.43 201.854 1478.76 200.969 1479.43 200.305C1480.2 199.53 1481.14 199.143 1482.25 199.143H1490.55C1491.66 199.143 1492.54 199.53 1493.21 200.305C1493.98 200.969 1494.37 201.854 1494.37 202.961V241.638C1497.58 237.543 1501.34 234.444 1505.66 232.342C1509.97 230.129 1515.34 229.022 1521.76 229.022C1532.38 229.022 1540.63 232.453 1546.49 239.314C1552.47 246.064 1555.45 255.083 1555.45 266.371V313.182C1555.45 314.289 1555.07 315.229 1554.29 316.004C1553.63 316.668 1552.74 317 1551.64 317H1543.34C1542.23 317 1541.29 316.668 1540.51 316.004C1539.85 315.229 1539.52 314.289 1539.52 313.182V267.201C1539.52 259.344 1537.58 253.257 1533.71 248.942C1529.95 244.626 1524.47 242.468 1517.28 242.468C1510.3 242.468 1504.71 244.681 1500.51 249.108C1496.41 253.423 1494.37 259.455 1494.37 267.201V313.182C1494.37 314.289 1493.98 315.229 1493.21 316.004C1492.54 316.668 1491.66 317 1490.55 317H1482.25Z" fill="#0F0E1C"/>
<path d="M1935.6 268.596C1938.13 266.058 1938.13 261.942 1935.6 259.404L1894.23 218.038C1891.69 215.5 1887.58 215.5 1885.04 218.038C1882.5 220.576 1882.5 224.692 1885.04 227.23L1921.81 264L1885.04 300.77C1882.5 303.308 1882.5 307.424 1885.04 309.962C1887.58 312.5 1891.69 312.5 1894.23 309.962L1935.6 268.596ZM1828 270.5H1931V257.5H1828V270.5Z" fill="black"/>
<path fill-rule="evenodd" clip-rule="evenodd" d="M2298.72 260.366L2318.43 269.55C2320.44 270.349 2322.85 269.95 2324.06 268.752C2324.45 268.365 2324.88 267.98 2325.32 267.58C2326.28 266.721 2327.27 265.829 2328.08 264.758C2329.69 263.161 2330.09 260.765 2328.89 259.167L2319.64 239.599C2322.85 234.408 2325.27 228.418 2326.88 222.428L2347.79 215.24C2349.8 214.441 2351 212.844 2351.41 210.447V207.652V204.857C2351.41 202.86 2349.8 200.863 2347.79 200.065L2327.28 192.477C2325.67 186.487 2323.26 180.497 2320.04 175.306L2322.01 171.141C2361.67 183.082 2390.36 219.493 2390.36 262.813C2390.36 279.494 2386.06 295.151 2378.52 308.78C2378.04 307.656 2376.51 306.917 2375.35 306.917L2358.78 307.722C2355.95 304.099 2352.71 300.877 2349.08 298.059L2349.88 281.55C2349.88 280.341 2349.08 278.731 2347.86 278.328C2346.25 277.523 2345.03 277.12 2343.42 276.718C2342.2 276.315 2340.59 276.718 2339.78 277.523L2328.86 289.603C2324.42 288.797 2319.57 288.797 2315.12 289.603L2304.21 277.523C2303.4 276.315 2301.78 275.912 2300.57 276.718C2300.22 276.894 2299.86 276.993 2299.54 277.083C2299.13 277.198 2298.78 277.297 2298.55 277.523C2297.74 277.925 2296.93 278.328 2296.53 278.328C2295.32 278.731 2294.51 280.341 2294.51 281.55L2295.32 298.059C2291.68 300.877 2288.04 304.099 2285.61 307.722L2269.04 306.917C2267.83 306.917 2266.21 307.722 2265.81 308.93C2265 310.541 2264.6 311.749 2264.19 313.359C2263.79 314.567 2264.19 316.178 2265 316.983L2277.13 327.855C2276.32 332.284 2276.32 337.116 2277.13 341.545L2265 352.417C2264.42 352.801 2264.03 353.369 2263.86 353.988C2224.97 341.504 2197 305.268 2197 262.813C2197 248.202 2200.29 234.376 2206.18 222.011C2207.84 228.019 2210.25 234.009 2213.47 239.2L2203.82 259.167C2203.01 261.164 2203.41 263.56 2204.62 264.758C2205.01 265.144 2205.4 265.572 2205.8 266.014C2206.65 266.945 2207.55 267.94 2208.64 268.752C2210.25 270.349 2212.66 270.748 2214.27 269.55L2233.98 260.366C2239.21 263.56 2245.24 265.956 2251.27 267.554L2258.51 288.319C2259.31 290.316 2260.92 291.514 2263.33 291.913H2266.15H2268.96C2270.98 291.913 2272.99 290.316 2273.79 288.319L2281.03 267.554C2287.87 265.956 2293.5 263.56 2298.72 260.366ZM2321.5 352.952C2331.87 352.952 2340.28 344.69 2340.28 334.498C2340.28 324.307 2331.87 316.045 2321.5 316.045C2311.13 316.045 2302.72 324.307 2302.72 334.498C2302.72 344.69 2311.13 352.952 2321.5 352.952ZM2292.98 207.453C2292.98 221.957 2281.15 233.714 2266.55 233.714C2251.95 233.714 2240.12 221.957 2240.12 207.453C2240.12 192.95 2251.95 181.192 2266.55 181.192C2281.15 181.192 2292.98 192.95 2292.98 207.453Z" fill="url(#paint0_linear)"/>
<path d="M2486.46 201.184C2486.46 198.736 2487.69 197.512 2490.14 197.512H2506.66C2509.1 197.512 2510.33 198.736 2510.33 201.184V247.255H2560.8V201.184C2560.8 198.736 2562.03 197.512 2564.47 197.512H2580.99C2583.44 197.512 2584.67 198.736 2584.67 201.184V322.329C2584.67 324.776 2583.44 326 2580.99 326H2564.47C2562.03 326 2560.8 324.776 2560.8 322.329V269.649H2510.33V322.329C2510.33 324.776 2509.1 326 2506.66 326H2490.14C2487.69 326 2486.46 324.776 2486.46 322.329V201.184ZM2673.61 318.658C2670.43 321.35 2666.88 323.553 2662.96 325.266C2659.17 326.979 2654.15 327.836 2647.91 327.836C2642.16 327.836 2636.65 326.918 2631.39 325.082C2626.13 323.247 2621.48 320.493 2617.44 316.822C2613.4 313.029 2610.16 308.318 2607.71 302.689C2605.39 297.06 2604.23 290.452 2604.23 282.865C2604.23 275.767 2605.39 269.465 2607.71 263.959C2610.16 258.33 2613.4 253.619 2617.44 249.825C2621.48 245.909 2626.13 242.973 2631.39 241.015C2636.78 238.934 2642.47 237.894 2648.46 237.894C2654.34 237.894 2659.17 238.69 2662.96 240.28C2666.76 241.749 2670.25 243.89 2673.43 246.705V243.401C2673.43 240.953 2674.65 239.73 2677.1 239.73H2692.52C2694.96 239.73 2696.19 240.953 2696.19 243.401V322.329C2696.19 324.776 2694.96 326 2692.52 326H2679.48C2678.26 326 2677.28 325.694 2676.55 325.082C2675.81 324.47 2675.14 323.186 2674.53 321.228L2673.61 318.658ZM2673.43 277.358C2673.43 274.544 2673.06 272.096 2672.33 270.016C2671.59 267.936 2670.25 265.978 2668.29 264.142C2666.21 262.185 2663.82 260.716 2661.13 259.737C2658.44 258.636 2655.25 258.085 2651.58 258.085C2648.4 258.085 2645.34 258.697 2642.41 259.921C2639.59 261.022 2637.08 262.613 2634.88 264.693C2632.68 266.773 2630.9 269.404 2629.56 272.586C2628.33 275.645 2627.72 279.071 2627.72 282.865C2627.72 286.781 2628.33 290.268 2629.56 293.327C2630.78 296.387 2632.43 298.956 2634.51 301.037C2636.72 303.117 2639.22 304.769 2642.04 305.993C2644.98 307.094 2648.04 307.645 2651.22 307.645C2655.01 307.645 2658.44 306.972 2661.5 305.626C2664.56 304.279 2667.06 302.383 2669.02 299.935C2670.61 297.855 2671.71 295.897 2672.33 294.062C2673.06 292.226 2673.43 289.84 2673.43 286.903V277.358ZM2797.44 307.828C2798.05 308.44 2798.36 309.113 2798.36 309.847C2798.36 310.581 2797.99 311.316 2797.26 312.05C2791.63 318.046 2786 322.207 2780.37 324.532C2774.74 326.734 2768.32 327.836 2761.1 327.836C2754.86 327.836 2748.92 326.918 2743.29 325.082C2737.66 323.124 2732.65 320.31 2728.24 316.639C2723.96 312.845 2720.53 308.134 2717.96 302.505C2715.39 296.876 2714.11 290.329 2714.11 282.865C2714.11 276.135 2715.33 270.016 2717.78 264.51C2720.35 258.881 2723.78 254.108 2728.06 250.192C2732.46 246.277 2737.54 243.278 2743.29 241.198C2749.17 238.996 2755.41 237.894 2762.02 237.894C2769.85 237.894 2776.46 239.179 2781.84 241.749C2787.35 244.196 2791.81 247.194 2795.24 250.743C2796.22 251.722 2796.71 252.64 2796.71 253.496C2796.71 254.231 2796.34 255.026 2795.61 255.883L2786.61 267.079C2785.88 267.813 2785.14 268.181 2784.41 268.181C2783.55 268.181 2782.76 267.813 2782.02 267.079C2778.84 263.898 2775.72 261.634 2772.66 260.288C2769.73 258.819 2766.05 258.085 2761.65 258.085C2758.34 258.085 2755.22 258.697 2752.29 259.921C2749.47 261.022 2746.96 262.674 2744.76 264.877C2742.56 266.957 2740.78 269.588 2739.44 272.769C2738.22 275.829 2737.6 279.255 2737.6 283.048C2737.6 286.72 2738.22 290.085 2739.44 293.144C2740.66 296.203 2742.31 298.834 2744.39 301.037C2746.6 303.117 2749.17 304.769 2752.1 305.993C2755.04 307.094 2758.16 307.645 2761.47 307.645C2765.38 307.645 2769.05 306.91 2772.48 305.442C2776.03 303.851 2779.39 301.343 2782.57 297.916C2783.31 297.182 2784.04 296.815 2784.78 296.815C2785.51 296.815 2786.24 297.182 2786.98 297.916L2797.44 307.828ZM2813.36 197.512C2813.36 195.065 2814.58 193.841 2817.03 193.841H2832.45C2834.9 193.841 2836.12 195.065 2836.12 197.512V262.858L2855.94 242.3C2857.41 240.586 2859.06 239.73 2860.9 239.73H2883.66C2885.13 239.73 2885.86 240.342 2885.86 241.565C2885.86 242.3 2885.62 242.911 2885.13 243.401L2856.13 273.137L2892.1 322.512C2892.47 323.124 2892.65 323.675 2892.65 324.164C2892.65 325.388 2891.92 326 2890.45 326H2867.87C2866.04 326 2864.57 325.143 2863.47 323.43L2839.42 290.391L2836.12 293.695V322.329C2836.12 324.776 2834.9 326 2832.45 326H2817.03C2814.58 326 2813.36 324.776 2813.36 322.329V197.512ZM2958.9 259.921H2945.87C2943.42 259.921 2942.2 258.697 2942.2 256.25V243.401C2942.2 240.953 2943.42 239.73 2945.87 239.73H2958.9V213.665C2958.9 211.218 2960.12 209.994 2962.57 209.994H2977.99C2980.44 209.994 2981.66 211.218 2981.66 213.665V239.73H3000.38C3002.83 239.73 3004.05 240.953 3004.05 243.401V256.25C3004.05 258.697 3002.83 259.921 3000.38 259.921H2981.66V295.897C2981.66 303.729 2984.9 307.645 2991.39 307.645C2993.22 307.645 2994.88 307.522 2996.34 307.278C2997.94 306.91 2999.22 306.727 3000.2 306.727C3001.42 306.727 3002.04 307.4 3002.04 308.746V324.164C3002.04 325.143 3001.85 325.755 3001.48 326C3001.12 326.367 3000.38 326.673 2999.28 326.918C2997.57 327.163 2995.55 327.346 2993.22 327.468C2991.02 327.713 2988.76 327.836 2986.43 327.836C2978.11 327.836 2971.44 325.939 2966.43 322.145C2961.41 318.352 2958.9 312.233 2958.9 303.79V259.921ZM3020.93 197.512C3020.93 195.065 3022.16 193.841 3024.6 193.841H3040.02C3042.47 193.841 3043.69 195.065 3043.69 197.512V250.743C3047.98 246.705 3052.75 243.584 3058.01 241.382C3063.27 239.057 3068.9 237.894 3074.9 237.894C3084.2 237.894 3091.36 240.219 3096.37 244.869C3101.51 249.519 3104.08 255.638 3104.08 263.225V322.329C3104.08 324.776 3102.86 326 3100.41 326H3084.99C3082.55 326 3081.32 324.776 3081.32 322.329V270.75C3081.32 262.307 3077.04 258.085 3068.47 258.085C3064.43 258.085 3060.76 259.248 3057.46 261.573C3054.28 263.775 3051.65 266.467 3049.57 269.649C3047.61 272.708 3046.14 275.767 3045.16 278.827C3044.18 281.764 3043.69 285.741 3043.69 290.758V322.329C3043.69 324.776 3042.47 326 3040.02 326H3024.6C3022.16 326 3020.93 324.776 3020.93 322.329V197.512ZM3203.15 307.278C3203.76 307.889 3204.07 308.562 3204.07 309.297C3204.07 310.031 3203.7 310.765 3202.97 311.499C3200.03 314.436 3197.16 316.945 3194.34 319.025C3191.65 320.983 3188.77 322.635 3185.71 323.981C3182.78 325.327 3179.6 326.306 3176.17 326.918C3172.74 327.53 3168.95 327.836 3164.79 327.836C3158.79 327.836 3153.04 326.857 3147.53 324.899C3142.15 322.941 3137.32 320.065 3133.03 316.272C3128.87 312.478 3125.51 307.767 3122.94 302.138C3120.49 296.509 3119.27 290.085 3119.27 282.865C3119.27 276.012 3120.49 269.833 3122.94 264.326C3125.39 258.819 3128.63 254.108 3132.67 250.192C3136.83 246.277 3141.6 243.278 3146.98 241.198C3152.37 238.996 3158.06 237.894 3164.05 237.894C3171.52 237.894 3178 239.24 3183.51 241.932C3189.02 244.502 3193.55 247.929 3197.09 252.211C3200.76 256.372 3203.46 261.083 3205.17 266.345C3206.88 271.485 3207.74 276.685 3207.74 281.947V287.454C3207.74 289.901 3206.52 291.125 3204.07 291.125H3141.66C3143.25 296.876 3146.19 301.22 3150.47 304.157C3154.75 306.972 3159.83 308.379 3165.71 308.379C3170.6 308.379 3174.82 307.4 3178.37 305.442C3182.04 303.484 3185.29 300.976 3188.1 297.916C3188.96 296.815 3189.87 296.264 3190.85 296.264C3191.59 296.264 3192.38 296.693 3193.24 297.549L3203.15 307.278ZM3184.98 272.035C3183.51 267.385 3180.94 263.714 3177.27 261.022C3173.6 258.33 3169.13 256.984 3163.87 256.984C3158.24 256.984 3153.53 258.452 3149.74 261.389C3145.94 264.326 3143.25 267.875 3141.66 272.035H3184.98ZM3262.24 201.184C3262.24 198.736 3263.46 197.512 3265.91 197.512H3281.51C3283.35 197.512 3284.69 197.88 3285.55 198.614C3286.53 199.226 3287.38 200.082 3288.12 201.184L3341.9 277.909V201.184C3341.9 198.736 3343.12 197.512 3345.57 197.512H3362.09C3364.54 197.512 3365.76 198.736 3365.76 201.184V322.329C3365.76 324.776 3364.54 326 3362.09 326H3349.06C3347.22 326 3345.81 325.694 3344.84 325.082C3343.98 324.348 3343.18 323.43 3342.45 322.329L3286.1 242.85V322.329C3286.1 324.776 3284.88 326 3282.43 326H3265.91C3263.46 326 3262.24 324.776 3262.24 322.329V201.184ZM3431.09 327.836C3424.85 327.836 3418.91 326.918 3413.28 325.082C3407.77 323.247 3402.94 320.432 3398.78 316.639C3394.62 312.845 3391.32 308.195 3388.87 302.689C3386.42 297.06 3385.2 290.452 3385.2 282.865C3385.2 275.89 3386.36 269.649 3388.69 264.142C3391.13 258.513 3394.38 253.802 3398.41 250.009C3402.57 246.093 3407.41 243.095 3412.91 241.015C3418.54 238.934 3424.6 237.894 3431.09 237.894C3437.45 237.894 3443.45 238.934 3449.07 241.015C3454.7 243.095 3459.54 246.093 3463.58 250.009C3467.74 253.802 3470.98 258.513 3473.3 264.142C3475.75 269.649 3476.97 275.89 3476.97 282.865C3476.97 290.452 3475.75 297.06 3473.3 302.689C3470.86 308.195 3467.55 312.845 3463.39 316.639C3459.23 320.432 3454.34 323.247 3448.71 325.082C3443.2 326.918 3437.33 327.836 3431.09 327.836ZM3431.09 307.645C3438.06 307.645 3443.51 305.381 3447.42 300.853C3451.46 296.325 3453.48 290.391 3453.48 283.048C3453.48 279.01 3452.87 275.462 3451.64 272.402C3450.42 269.343 3448.77 266.773 3446.69 264.693C3444.73 262.49 3442.41 260.838 3439.71 259.737C3437.02 258.636 3434.15 258.085 3431.09 258.085C3428.03 258.085 3425.15 258.636 3422.46 259.737C3419.77 260.838 3417.38 262.49 3415.3 264.693C3413.34 266.773 3411.75 269.343 3410.53 272.402C3409.3 275.462 3408.69 279.01 3408.69 283.048C3408.69 290.391 3410.65 296.325 3414.57 300.853C3418.6 305.381 3424.11 307.645 3431.09 307.645ZM3495.38 243.401C3495.38 240.953 3496.61 239.73 3499.05 239.73H3514.47C3516.92 239.73 3518.14 240.953 3518.14 243.401V248.907C3521.2 245.481 3524.81 242.789 3528.97 240.831C3533.13 238.873 3538.09 237.894 3543.84 237.894C3552.41 237.894 3559.14 240.464 3564.03 245.603C3569.05 250.621 3571.56 257.167 3571.56 265.244C3571.56 267.691 3570.33 268.915 3567.89 268.915H3553.02C3552.04 268.915 3551.37 268.731 3551 268.364C3550.63 267.875 3550.33 267.079 3550.08 265.978C3549.35 260.716 3545.98 258.085 3539.99 258.085C3536.8 258.085 3534.05 258.758 3531.73 260.104C3529.52 261.45 3527.57 263.102 3525.85 265.06C3523.53 267.752 3521.63 270.995 3520.16 274.789C3518.82 278.582 3518.14 283.232 3518.14 288.739V322.329C3518.14 324.776 3516.92 326 3514.47 326H3499.05C3496.61 326 3495.38 324.776 3495.38 322.329V243.401ZM3598.8 259.921H3585.77C3583.32 259.921 3582.1 258.697 3582.1 256.25V243.401C3582.1 240.953 3583.32 239.73 3585.77 239.73H3598.8V213.665C3598.8 211.218 3600.02 209.994 3602.47 209.994H3617.89C3620.34 209.994 3621.56 211.218 3621.56 213.665V239.73H3640.28C3642.73 239.73 3643.95 240.953 3643.95 243.401V256.25C3643.95 258.697 3642.73 259.921 3640.28 259.921H3621.56V295.897C3621.56 303.729 3624.8 307.645 3631.29 307.645C3633.12 307.645 3634.78 307.522 3636.24 307.278C3637.84 306.91 3639.12 306.727 3640.1 306.727C3641.32 306.727 3641.93 307.4 3641.93 308.746V324.164C3641.93 325.143 3641.75 325.755 3641.38 326C3641.02 326.367 3640.28 326.673 3639.18 326.918C3637.47 327.163 3635.45 327.346 3633.12 327.468C3630.92 327.713 3628.66 327.836 3626.33 327.836C3618.01 327.836 3611.34 325.939 3606.33 322.145C3601.31 318.352 3598.8 312.233 3598.8 303.79V259.921ZM3660.29 197.512C3660.29 195.065 3661.52 193.841 3663.97 193.841H3679.38C3681.83 193.841 3683.06 195.065 3683.06 197.512V250.743C3687.34 246.705 3692.11 243.584 3697.37 241.382C3702.63 239.057 3708.26 237.894 3714.26 237.894C3723.56 237.894 3730.72 240.219 3735.73 244.869C3740.87 249.519 3743.44 255.638 3743.44 263.225V322.329C3743.44 324.776 3742.22 326 3739.77 326H3724.35C3721.91 326 3720.68 324.776 3720.68 322.329V270.75C3720.68 262.307 3716.4 258.085 3707.83 258.085C3703.8 258.085 3700.13 259.248 3696.82 261.573C3693.64 263.775 3691.01 266.467 3688.93 269.649C3686.97 272.708 3685.5 275.767 3684.52 278.827C3683.54 281.764 3683.06 285.741 3683.06 290.758V322.329C3683.06 324.776 3681.83 326 3679.38 326H3663.97C3661.52 326 3660.29 324.776 3660.29 322.329V197.512Z" fill="#1E3247"/>
<defs>
<linearGradient id="paint0_linear" x1="2222.5" y1="151.5" x2="2294" y2="316" gradientUnits="userSpaceOnUse">
<stop stop-color="#00708F"/>
<stop offset="1" stop-color="#1E3247"/>
</linearGradient>
</defs>
</svg>
