<svg width="716" height="64" viewBox="0 0 716 64" fill="none" xmlns="http://www.w3.org/2000/svg">
<g clip-path="url(#clip0)">
<path d="M6.84 1.44V9H5.4V5.82H2.22V9H0.78V1.44H2.22V4.44H5.4V1.44H6.84ZM9.05719 9H7.55719L10.3772 1.44H11.6972L14.5172 9H13.0172L12.4772 7.44H9.59719L9.05719 9ZM11.9972 6.12L11.0372 3.36L10.0772 6.12H11.9972ZM16.0266 5.22C16.0266 5.58 16.0866 5.912 16.2066 6.216C16.3266 6.512 16.4866 6.772 16.6866 6.996C16.8866 7.212 17.1186 7.38 17.3826 7.5C17.6546 7.62 17.9426 7.68 18.2466 7.68C18.5026 7.68 18.7346 7.644 18.9426 7.572C19.1506 7.492 19.3346 7.392 19.4946 7.272C19.6626 7.144 19.7986 7.004 19.9026 6.852C20.0146 6.692 20.1026 6.528 20.1666 6.36H21.6666C21.5786 6.72 21.4346 7.064 21.2346 7.392C21.0346 7.72 20.7866 8.008 20.4906 8.256C20.2026 8.496 19.8666 8.692 19.4826 8.844C19.1066 8.988 18.6946 9.06 18.2466 9.06C17.7506 9.06 17.2786 8.964 16.8306 8.772C16.3906 8.572 16.0026 8.3 15.6666 7.956C15.3386 7.604 15.0746 7.196 14.8746 6.732C14.6826 6.268 14.5866 5.764 14.5866 5.22C14.5866 4.684 14.6826 4.184 14.8746 3.72C15.0746 3.248 15.3386 2.84 15.6666 2.496C16.0026 2.144 16.3906 1.872 16.8306 1.68C17.2786 1.48 17.7506 1.38 18.2466 1.38C18.6786 1.38 19.0786 1.456 19.4466 1.608C19.8226 1.752 20.1546 1.948 20.4426 2.196C20.7306 2.436 20.9746 2.72 21.1746 3.048C21.3746 3.376 21.5186 3.72 21.6066 4.08H20.1066C20.0586 3.912 19.9826 3.752 19.8786 3.6C19.7746 3.44 19.6426 3.3 19.4826 3.18C19.3306 3.052 19.1506 2.952 18.9426 2.88C18.7346 2.8 18.5026 2.76 18.2466 2.76C17.9426 2.76 17.6546 2.82 17.3826 2.94C17.1186 3.06 16.8866 3.232 16.6866 3.456C16.4866 3.672 16.3266 3.932 16.2066 4.236C16.0866 4.532 16.0266 4.86 16.0266 5.22ZM26.8809 9L24.1809 5.58V9H22.7409V1.44H24.1809V4.8L26.7009 1.44H28.3809L25.5609 5.16L28.5609 9H26.8809ZM31.3167 1.44H37.1967V2.82H34.9767V9H33.5367V2.82H31.3167V1.44ZM44.2111 1.44V9H42.7711V5.82H39.5911V9H38.1511V1.44H39.5911V4.44H42.7711V1.44H44.2111ZM51.1083 7.62V9H45.7683V1.44H50.9883V2.82H47.2083V4.44H50.6883V5.82H47.2083V7.62H51.1083ZM61.0627 1.44V9H59.8027L56.4427 4.08V9H55.0027V1.44H56.2627L59.6227 6.36V1.44H61.0627ZM63.6398 5.22C63.6398 5.58 63.6998 5.912 63.8198 6.216C63.9398 6.512 64.0998 6.772 64.2998 6.996C64.4998 7.212 64.7318 7.38 64.9958 7.5C65.2678 7.62 65.5558 7.68 65.8598 7.68C66.1558 7.68 66.4398 7.62 66.7118 7.5C66.9838 7.38 67.2198 7.212 67.4198 6.996C67.6198 6.772 67.7798 6.512 67.8998 6.216C68.0198 5.912 68.0798 5.58 68.0798 5.22C68.0798 4.86 68.0198 4.532 67.8998 4.236C67.7798 3.932 67.6198 3.672 67.4198 3.456C67.2198 3.232 66.9838 3.06 66.7118 2.94C66.4398 2.82 66.1558 2.76 65.8598 2.76C65.5558 2.76 65.2678 2.82 64.9958 2.94C64.7318 3.06 64.4998 3.232 64.2998 3.456C64.0998 3.672 63.9398 3.932 63.8198 4.236C63.6998 4.532 63.6398 4.86 63.6398 5.22ZM69.5198 5.22C69.5198 5.764 69.4198 6.268 69.2198 6.732C69.0278 7.196 68.7638 7.604 68.4278 7.956C68.0998 8.3 67.7118 8.572 67.2638 8.772C66.8238 8.964 66.3558 9.06 65.8598 9.06C65.3638 9.06 64.8918 8.964 64.4438 8.772C64.0038 8.572 63.6158 8.3 63.2798 7.956C62.9518 7.604 62.6878 7.196 62.4878 6.732C62.2958 6.268 62.1998 5.764 62.1998 5.22C62.1998 4.684 62.2958 4.184 62.4878 3.72C62.6878 3.248 62.9518 2.84 63.2798 2.496C63.6158 2.144 64.0038 1.872 64.4438 1.68C64.8918 1.48 65.3638 1.38 65.8598 1.38C66.3558 1.38 66.8238 1.48 67.2638 1.68C67.7118 1.872 68.0998 2.144 68.4278 2.496C68.7638 2.84 69.0278 3.248 69.2198 3.72C69.4198 4.184 69.5198 4.684 69.5198 5.22ZM73.1789 6.24H72.0989V9H70.6589V1.44H73.6589C74.0189 1.44 74.3509 1.504 74.6549 1.632C74.9669 1.752 75.2349 1.92 75.4589 2.136C75.6829 2.352 75.8589 2.604 75.9869 2.892C76.1149 3.172 76.1789 3.468 76.1789 3.78C76.1789 4.204 76.0949 4.556 75.9269 4.836C75.7589 5.116 75.5709 5.344 75.3629 5.52C75.1229 5.728 74.8549 5.888 74.5589 6L76.3589 9H74.7389L73.1789 6.24ZM72.0989 4.86H73.6589C73.9629 4.86 74.2189 4.76 74.4269 4.56C74.6349 4.352 74.7389 4.112 74.7389 3.84C74.7389 3.568 74.6349 3.332 74.4269 3.132C74.2189 2.924 73.9629 2.82 73.6589 2.82H72.0989V4.86ZM76.6566 1.44H82.5366V2.82H80.3166V9H78.8766V2.82H76.6566V1.44ZM89.5509 1.44V9H88.1109V5.82H84.9309V9H83.4909V1.44H84.9309V4.44H88.1109V1.44H89.5509ZM91.5281 1.2C91.7361 1.2 91.9161 1.28 92.0681 1.44C92.2281 1.6 92.3081 1.8 92.3081 2.04C92.3081 2.392 92.2521 2.688 92.1401 2.928C92.0281 3.16 91.9041 3.348 91.7681 3.492C91.6081 3.66 91.4281 3.796 91.2281 3.9L90.9881 3.6C91.0761 3.544 91.1601 3.472 91.2401 3.384C91.3041 3.312 91.3641 3.224 91.4201 3.12C91.4761 3.016 91.5121 2.896 91.5281 2.76C91.3201 2.76 91.1361 2.684 90.9761 2.532C90.8241 2.372 90.7481 2.188 90.7481 1.98C90.7481 1.772 90.8241 1.592 90.9761 1.44C91.1361 1.28 91.3201 1.2 91.5281 1.2ZM93.2105 3.552C93.2105 3.264 93.2705 2.988 93.3905 2.724C93.5185 2.46 93.6945 2.232 93.9185 2.04C94.1505 1.84 94.4265 1.68 94.7465 1.56C95.0745 1.44 95.4425 1.38 95.8505 1.38C96.2265 1.38 96.5665 1.44 96.8705 1.56C97.1825 1.68 97.4505 1.848 97.6745 2.064C97.8985 2.28 98.0705 2.536 98.1905 2.832C98.3105 3.12 98.3705 3.436 98.3705 3.78H96.9905C96.9905 3.444 96.8905 3.18 96.6905 2.988C96.4905 2.796 96.2105 2.7 95.8505 2.7C95.4905 2.7 95.2105 2.788 95.0105 2.964C94.8105 3.14 94.7105 3.332 94.7105 3.54C94.7105 3.764 94.8065 3.936 94.9985 4.056C95.1905 4.176 95.4305 4.284 95.7185 4.38C96.0065 4.476 96.3185 4.576 96.6545 4.68C96.9985 4.784 97.3145 4.924 97.6025 5.1C97.8905 5.276 98.1305 5.508 98.3225 5.796C98.5145 6.076 98.6105 6.444 98.6105 6.9C98.6105 7.172 98.5425 7.436 98.4065 7.692C98.2785 7.948 98.0945 8.18 97.8545 8.388C97.6145 8.588 97.3225 8.752 96.9785 8.88C96.6425 9 96.2665 9.06 95.8505 9.06C95.4265 9.06 95.0465 9 94.7105 8.88C94.3825 8.76 94.1025 8.592 93.8705 8.376C93.6385 8.152 93.4585 7.892 93.3305 7.596C93.2105 7.292 93.1505 6.96 93.1505 6.6H94.5905C94.5905 6.936 94.7025 7.212 94.9265 7.428C95.1505 7.636 95.4585 7.74 95.8505 7.74C96.2745 7.74 96.5905 7.652 96.7985 7.476C97.0065 7.292 97.1105 7.08 97.1105 6.84C97.1105 6.608 97.0145 6.428 96.8225 6.3C96.6305 6.172 96.3905 6.06 96.1025 5.964C95.8145 5.86 95.4985 5.76 95.1545 5.664C94.8185 5.568 94.5065 5.436 94.2185 5.268C93.9305 5.1 93.6905 4.884 93.4985 4.62C93.3065 4.348 93.2105 3.992 93.2105 3.552ZM110.12 1.44V9H108.68V4.8L106.76 9H105.8L103.88 4.8V9H102.44V1.44H103.7L106.28 7.02L108.86 1.44H110.12ZM113.115 9H111.675V1.44H113.115V9ZM114.375 3.552C114.375 3.264 114.435 2.988 114.555 2.724C114.683 2.46 114.859 2.232 115.083 2.04C115.315 1.84 115.591 1.68 115.911 1.56C116.239 1.44 116.607 1.38 117.015 1.38C117.391 1.38 117.731 1.44 118.035 1.56C118.347 1.68 118.615 1.848 118.839 2.064C119.063 2.28 119.235 2.536 119.355 2.832C119.475 3.12 119.535 3.436 119.535 3.78H118.155C118.155 3.444 118.055 3.18 117.855 2.988C117.655 2.796 117.375 2.7 117.015 2.7C116.655 2.7 116.375 2.788 116.175 2.964C115.975 3.14 115.875 3.332 115.875 3.54C115.875 3.764 115.971 3.936 116.163 4.056C116.355 4.176 116.595 4.284 116.883 4.38C117.171 4.476 117.483 4.576 117.819 4.68C118.163 4.784 118.479 4.924 118.767 5.1C119.055 5.276 119.295 5.508 119.487 5.796C119.679 6.076 119.775 6.444 119.775 6.9C119.775 7.172 119.707 7.436 119.571 7.692C119.443 7.948 119.259 8.18 119.019 8.388C118.779 8.588 118.487 8.752 118.143 8.88C117.807 9 117.431 9.06 117.015 9.06C116.591 9.06 116.211 9 115.875 8.88C115.547 8.76 115.267 8.592 115.035 8.376C114.803 8.152 114.623 7.892 114.495 7.596C114.375 7.292 114.315 6.96 114.315 6.6H115.755C115.755 6.936 115.867 7.212 116.091 7.428C116.315 7.636 116.623 7.74 117.015 7.74C117.439 7.74 117.755 7.652 117.963 7.476C118.171 7.292 118.275 7.08 118.275 6.84C118.275 6.608 118.179 6.428 117.987 6.3C117.795 6.172 117.555 6.06 117.267 5.964C116.979 5.86 116.663 5.76 116.319 5.664C115.983 5.568 115.671 5.436 115.383 5.268C115.095 5.1 114.855 4.884 114.663 4.62C114.471 4.348 114.375 3.992 114.375 3.552ZM120.609 3.552C120.609 3.264 120.669 2.988 120.789 2.724C120.917 2.46 121.093 2.232 121.317 2.04C121.549 1.84 121.825 1.68 122.145 1.56C122.473 1.44 122.841 1.38 123.249 1.38C123.625 1.38 123.965 1.44 124.269 1.56C124.581 1.68 124.849 1.848 125.073 2.064C125.297 2.28 125.469 2.536 125.589 2.832C125.709 3.12 125.769 3.436 125.769 3.78H124.389C124.389 3.444 124.289 3.18 124.089 2.988C123.889 2.796 123.609 2.7 123.249 2.7C122.889 2.7 122.609 2.788 122.409 2.964C122.209 3.14 122.109 3.332 122.109 3.54C122.109 3.764 122.205 3.936 122.397 4.056C122.589 4.176 122.829 4.284 123.117 4.38C123.405 4.476 123.717 4.576 124.053 4.68C124.397 4.784 124.713 4.924 125.001 5.1C125.289 5.276 125.529 5.508 125.721 5.796C125.913 6.076 126.009 6.444 126.009 6.9C126.009 7.172 125.941 7.436 125.805 7.692C125.677 7.948 125.493 8.18 125.253 8.388C125.013 8.588 124.721 8.752 124.377 8.88C124.041 9 123.665 9.06 123.249 9.06C122.825 9.06 122.445 9 122.109 8.88C121.781 8.76 121.501 8.592 121.269 8.376C121.037 8.152 120.857 7.892 120.729 7.596C120.609 7.292 120.549 6.96 120.549 6.6H121.989C121.989 6.936 122.101 7.212 122.325 7.428C122.549 7.636 122.857 7.74 123.249 7.74C123.673 7.74 123.989 7.652 124.197 7.476C124.405 7.292 124.509 7.08 124.509 6.84C124.509 6.608 124.413 6.428 124.221 6.3C124.029 6.172 123.789 6.06 123.501 5.964C123.213 5.86 122.897 5.76 122.553 5.664C122.217 5.568 121.905 5.436 121.617 5.268C121.329 5.1 121.089 4.884 120.897 4.62C120.705 4.348 120.609 3.992 120.609 3.552ZM128.583 9H127.143V1.44H128.583V9ZM131.163 5.22C131.163 5.58 131.223 5.912 131.343 6.216C131.463 6.512 131.623 6.772 131.823 6.996C132.023 7.212 132.255 7.38 132.519 7.5C132.791 7.62 133.079 7.68 133.383 7.68C133.679 7.68 133.963 7.62 134.235 7.5C134.507 7.38 134.743 7.212 134.943 6.996C135.143 6.772 135.303 6.512 135.423 6.216C135.543 5.912 135.603 5.58 135.603 5.22C135.603 4.86 135.543 4.532 135.423 4.236C135.303 3.932 135.143 3.672 134.943 3.456C134.743 3.232 134.507 3.06 134.235 2.94C133.963 2.82 133.679 2.76 133.383 2.76C133.079 2.76 132.791 2.82 132.519 2.94C132.255 3.06 132.023 3.232 131.823 3.456C131.623 3.672 131.463 3.932 131.343 4.236C131.223 4.532 131.163 4.86 131.163 5.22ZM137.043 5.22C137.043 5.764 136.943 6.268 136.743 6.732C136.551 7.196 136.287 7.604 135.951 7.956C135.623 8.3 135.235 8.572 134.787 8.772C134.347 8.964 133.879 9.06 133.383 9.06C132.887 9.06 132.415 8.964 131.967 8.772C131.527 8.572 131.139 8.3 130.803 7.956C130.475 7.604 130.211 7.196 130.011 6.732C129.819 6.268 129.723 5.764 129.723 5.22C129.723 4.684 129.819 4.184 130.011 3.72C130.211 3.248 130.475 2.84 130.803 2.496C131.139 2.144 131.527 1.872 131.967 1.68C132.415 1.48 132.887 1.38 133.383 1.38C133.879 1.38 134.347 1.48 134.787 1.68C135.235 1.872 135.623 2.144 135.951 2.496C136.287 2.84 136.551 3.248 136.743 3.72C136.943 4.184 137.043 4.684 137.043 5.22ZM144.242 1.44V9H142.982L139.622 4.08V9H138.182V1.44H139.442L142.802 6.36V1.44H144.242Z" fill="black"/>
<rect x="6" y="32.8649" width="706" height="12.973" fill="#FEFF8A"/>
<path d="M29.5312 25.7656H32.6484V56H28.8047V35.6094L19.4297 56H17.0391L7.6875 35.6094V56H3.84375V25.7656H6.96094L18.2344 50L29.5312 25.7656ZM47.7422 34.1562C48.9297 34.1562 50.0234 34.3594 51.0234 34.7656C52.0391 35.1562 52.9062 35.6875 53.625 36.3594C54.3438 37.0312 54.8984 37.8203 55.2891 38.7266C55.6953 39.6172 55.8984 40.5781 55.8984 41.6094V56H53.2734L52.3125 53.6094C51.8281 54.125 51.2812 54.5703 50.6719 54.9453C50.125 55.3047 49.4531 55.6094 48.6562 55.8594C47.8594 56.1094 46.9141 56.2344 45.8203 56.2344C44.7266 56.2344 43.7422 56.0703 42.8672 55.7422C41.9922 55.3984 41.2422 54.9297 40.6172 54.3359C39.9922 53.7422 39.5 53.0547 39.1406 52.2734C38.7969 51.4922 38.625 50.6562 38.625 49.7656C38.625 48.7344 38.8281 47.7969 39.2344 46.9531C39.6562 46.1094 40.375 45.375 41.3906 44.75C42.4219 44.125 43.8281 43.6484 45.6094 43.3203C47.3906 42.9766 49.625 42.8047 52.3125 42.8047V41.6094C52.3125 40.5156 51.8828 39.5625 51.0234 38.75C50.1797 37.9375 49.0859 37.5312 47.7422 37.5312C46.3984 37.5312 45.4062 37.8125 44.7656 38.375C44.125 38.9219 43.6797 39.6797 43.4297 40.6484H39.5859C39.7109 39.7578 39.9844 38.9219 40.4062 38.1406C40.8281 37.3438 41.3828 36.6484 42.0703 36.0547C42.7578 35.4609 43.5703 35 44.5078 34.6719C45.4453 34.3281 46.5234 34.1562 47.7422 34.1562ZM45.8203 52.8828C46.7734 52.8828 47.6484 52.7344 48.4453 52.4375C49.2578 52.125 49.9453 51.7344 50.5078 51.2656C51.0703 50.7812 51.5078 50.2422 51.8203 49.6484C52.1484 49.0547 52.3125 48.4531 52.3125 47.8438V46.1562C50.1406 46.1562 48.3984 46.25 47.0859 46.4375C45.7734 46.6094 44.75 46.8672 44.0156 47.2109C43.2969 47.5391 42.8203 47.9375 42.5859 48.4062C42.3516 48.8594 42.2344 49.3906 42.2344 50C42.2344 50.7344 42.5547 51.3984 43.1953 51.9922C43.8516 52.5859 44.7266 52.8828 45.8203 52.8828ZM65.7422 56H62.1328V25.7656H65.7422V56ZM74.8594 56L65.7422 44.7266L73.8984 34.3906H77.9766L69.8203 44.4688L79.1719 56H74.8594ZM99.1172 50.2344C98.7578 51 98.3047 51.7578 97.7578 52.5078C97.2109 53.2422 96.5703 53.8828 95.8359 54.4297C95.1016 54.9609 94.2656 55.3984 93.3281 55.7422C92.4062 56.0703 91.375 56.2344 90.2344 56.2344C88.8594 56.2344 87.5547 55.9688 86.3203 55.4375C85.0859 54.8906 84.0078 54.1328 83.0859 53.1641C82.1797 52.1797 81.4609 51.0156 80.9297 49.6719C80.4141 48.3281 80.1562 46.8359 80.1562 45.1953C80.1562 43.5703 80.4141 42.0859 80.9297 40.7422C81.4609 39.3984 82.1719 38.2422 83.0625 37.2734C83.9688 36.2891 85.0234 35.5234 86.2266 34.9766C87.4297 34.4297 88.6875 34.1562 90 34.1562C91.3125 34.1562 92.5469 34.4141 93.7031 34.9297C94.875 35.4453 95.8906 36.1797 96.75 37.1328C97.625 38.0703 98.3125 39.2031 98.8125 40.5312C99.3281 41.8594 99.5859 43.3359 99.5859 44.9609C99.5859 45.2734 99.5703 45.5469 99.5391 45.7812C99.5078 46 99.4766 46.1875 99.4453 46.3438C99.4141 46.5312 99.3828 46.7109 99.3516 46.8828H84C84.0625 47.6484 84.2734 48.3984 84.6328 49.1328C85.0078 49.8672 85.4688 50.5078 86.0156 51.0547C86.5781 51.6016 87.2266 52.0469 87.9609 52.3906C88.7109 52.7188 89.4688 52.8828 90.2344 52.8828C90.9062 52.8828 91.5 52.7891 92.0156 52.6016C92.5469 52.3984 93.0312 52.1719 93.4688 51.9219C93.9062 51.6719 94.2656 51.3984 94.5469 51.1016C94.8438 50.7891 95.0859 50.5 95.2734 50.2344H99.1172ZM90 37.5312C89.2656 37.5312 88.5625 37.6875 87.8906 38C87.2344 38.3125 86.6328 38.7422 86.0859 39.2891C85.5547 39.8359 85.1016 40.4922 84.7266 41.2578C84.3672 42.0234 84.125 42.8594 84 43.7656H95.7422C95.4922 41.8438 94.8281 40.3281 93.75 39.2188C92.6875 38.0938 91.4375 37.5312 90 37.5312ZM118.289 56H114.68V34.3906H118.289V56ZM114.211 28.2969C114.211 27.625 114.422 27.0781 114.844 26.6562C115.281 26.2188 115.82 26 116.461 26C117.133 26 117.68 26.2188 118.102 26.6562C118.539 27.0781 118.758 27.625 118.758 28.2969C118.758 28.9375 118.539 29.4766 118.102 29.9141C117.68 30.3516 117.133 30.5703 116.461 30.5703C115.82 30.5703 115.281 30.3516 114.844 29.9141C114.422 29.4766 114.211 28.9375 114.211 28.2969ZM126.68 28.6484H129.797V34.3906H134.602V37.7656H129.797V49.0391C129.797 50.2578 130.125 51.2031 130.781 51.875C131.438 52.5469 132.312 52.8828 133.406 52.8828C133.719 52.8828 134.008 52.8516 134.273 52.7891C134.398 52.7578 134.508 52.7109 134.602 52.6484V55.7656C134.445 55.8594 134.273 55.9375 134.086 56C133.664 56.1562 133.117 56.2344 132.445 56.2344C131.617 56.2344 130.828 56.0625 130.078 55.7188C129.328 55.3594 128.664 54.8672 128.086 54.2422C127.508 53.6172 127.047 52.8672 126.703 51.9922C126.375 51.1172 126.211 50.1328 126.211 49.0391V37.7656H122.367V34.3906H124.055C125.82 34.3906 126.695 33.5156 126.68 31.7656V28.6484ZM167.742 50.2344C167.383 51 166.93 51.7578 166.383 52.5078C165.836 53.2422 165.195 53.8828 164.461 54.4297C163.727 54.9609 162.891 55.3984 161.953 55.7422C161.031 56.0703 160 56.2344 158.859 56.2344C157.484 56.2344 156.18 55.9688 154.945 55.4375C153.711 54.8906 152.633 54.1328 151.711 53.1641C150.805 52.1797 150.086 51.0156 149.555 49.6719C149.039 48.3281 148.781 46.8359 148.781 45.1953C148.781 43.5703 149.039 42.0859 149.555 40.7422C150.086 39.3984 150.797 38.2422 151.688 37.2734C152.594 36.2891 153.648 35.5234 154.852 34.9766C156.055 34.4297 157.312 34.1562 158.625 34.1562C159.938 34.1562 161.172 34.4141 162.328 34.9297C163.5 35.4453 164.516 36.1797 165.375 37.1328C166.25 38.0703 166.938 39.2031 167.438 40.5312C167.953 41.8594 168.211 43.3359 168.211 44.9609C168.211 45.2734 168.195 45.5469 168.164 45.7812C168.133 46 168.102 46.1875 168.07 46.3438C168.039 46.5312 168.008 46.7109 167.977 46.8828H152.625C152.688 47.6484 152.898 48.3984 153.258 49.1328C153.633 49.8672 154.094 50.5078 154.641 51.0547C155.203 51.6016 155.852 52.0469 156.586 52.3906C157.336 52.7188 158.094 52.8828 158.859 52.8828C159.531 52.8828 160.125 52.7891 160.641 52.6016C161.172 52.3984 161.656 52.1719 162.094 51.9219C162.531 51.6719 162.891 51.3984 163.172 51.1016C163.469 50.7891 163.711 50.5 163.898 50.2344H167.742ZM158.625 37.5312C157.891 37.5312 157.188 37.6875 156.516 38C155.859 38.3125 155.258 38.7422 154.711 39.2891C154.18 39.8359 153.727 40.4922 153.352 41.2578C152.992 42.0234 152.75 42.8594 152.625 43.7656H164.367C164.117 41.8438 163.453 40.3281 162.375 39.2188C161.312 38.0938 160.062 37.5312 158.625 37.5312ZM181.148 34.1562C182.336 34.1562 183.43 34.3594 184.43 34.7656C185.445 35.1562 186.312 35.6875 187.031 36.3594C187.75 37.0312 188.305 37.8203 188.695 38.7266C189.102 39.6172 189.305 40.5781 189.305 41.6094V56H186.68L185.719 53.6094C185.234 54.125 184.688 54.5703 184.078 54.9453C183.531 55.3047 182.859 55.6094 182.062 55.8594C181.266 56.1094 180.32 56.2344 179.227 56.2344C178.133 56.2344 177.148 56.0703 176.273 55.7422C175.398 55.3984 174.648 54.9297 174.023 54.3359C173.398 53.7422 172.906 53.0547 172.547 52.2734C172.203 51.4922 172.031 50.6562 172.031 49.7656C172.031 48.7344 172.234 47.7969 172.641 46.9531C173.062 46.1094 173.781 45.375 174.797 44.75C175.828 44.125 177.234 43.6484 179.016 43.3203C180.797 42.9766 183.031 42.8047 185.719 42.8047V41.6094C185.719 40.5156 185.289 39.5625 184.43 38.75C183.586 37.9375 182.492 37.5312 181.148 37.5312C179.805 37.5312 178.812 37.8125 178.172 38.375C177.531 38.9219 177.086 39.6797 176.836 40.6484H172.992C173.117 39.7578 173.391 38.9219 173.812 38.1406C174.234 37.3438 174.789 36.6484 175.477 36.0547C176.164 35.4609 176.977 35 177.914 34.6719C178.852 34.3281 179.93 34.1562 181.148 34.1562ZM179.227 52.8828C180.18 52.8828 181.055 52.7344 181.852 52.4375C182.664 52.125 183.352 51.7344 183.914 51.2656C184.477 50.7812 184.914 50.2422 185.227 49.6484C185.555 49.0547 185.719 48.4531 185.719 47.8438V46.1562C183.547 46.1562 181.805 46.25 180.492 46.4375C179.18 46.6094 178.156 46.8672 177.422 47.2109C176.703 47.5391 176.227 47.9375 175.992 48.4062C175.758 48.8594 175.641 49.3906 175.641 50C175.641 50.7344 175.961 51.3984 176.602 51.9922C177.258 52.5859 178.133 52.8828 179.227 52.8828ZM209.461 49.7656C209.461 50.6562 209.281 51.4922 208.922 52.2734C208.578 53.0547 208.086 53.7422 207.445 54.3359C206.805 54.9297 206.031 55.3984 205.125 55.7422C204.219 56.0703 203.188 56.2344 202.031 56.2344C199.625 56.2344 197.734 55.5938 196.359 54.3125C194.984 53.0312 194.234 51.4375 194.109 49.5312H197.719C197.844 50.4844 198.258 51.2812 198.961 51.9219C199.664 52.5625 200.688 52.8828 202.031 52.8828C203.25 52.8828 204.195 52.5703 204.867 51.9453C205.539 51.3203 205.875 50.5938 205.875 49.7656C205.875 48.9688 205.594 48.3672 205.031 47.9609C204.469 47.5547 203.773 47.2344 202.945 47C202.117 46.7656 201.211 46.5469 200.227 46.3438C199.258 46.125 198.352 45.8125 197.508 45.4062C196.68 44.9844 195.984 44.3906 195.422 43.625C194.859 42.8438 194.578 41.7656 194.578 40.3906C194.578 39.5625 194.75 38.7734 195.094 38.0234C195.453 37.2734 195.945 36.6094 196.57 36.0312C197.195 35.4531 197.945 35 198.82 34.6719C199.711 34.3281 200.703 34.1562 201.797 34.1562C204.094 34.1562 205.875 34.7578 207.141 35.9609C208.406 37.1641 209.102 38.7266 209.227 40.6484H205.617C205.492 39.6953 205.125 38.9375 204.516 38.375C203.906 37.8125 203 37.5312 201.797 37.5312C200.703 37.5312 199.828 37.8281 199.172 38.4219C198.516 39 198.188 39.6562 198.188 40.3906C198.188 41.1875 198.469 41.7891 199.031 42.1953C199.594 42.6016 200.289 42.9297 201.117 43.1797C201.945 43.4141 202.844 43.6328 203.812 43.8359C204.797 44.0391 205.703 44.3516 206.531 44.7734C207.375 45.1797 208.07 45.7812 208.617 46.5781C209.18 47.3594 209.461 48.4219 209.461 49.7656ZM211.594 34.3906H215.438L221.93 50.9609L228.398 34.3906H232.242L222.891 57.9219C222.031 60.0938 221.125 61.6328 220.172 62.5391C219.234 63.4609 218.062 63.9219 216.656 63.9219C216.469 63.9219 216.289 63.9141 216.117 63.8984C215.961 63.8828 215.805 63.8594 215.648 63.8281C215.492 63.7969 215.344 63.75 215.203 63.6875V60.8047C216.297 60.8047 217.109 60.5625 217.641 60.0781C218.188 59.5938 218.656 58.875 219.047 57.9219L220.008 55.5312L211.594 34.3906ZM255.281 37.7656H250.477V56H246.891V37.7656H244.242V34.3906H246.891V32.7266C246.891 31.6328 247.055 30.6484 247.383 29.7734C247.727 28.8828 248.188 28.1328 248.766 27.5234C249.344 26.8984 250.008 26.4141 250.758 26.0703C251.508 25.7109 252.297 25.5312 253.125 25.5312C253.484 25.5312 253.797 25.5547 254.062 25.6016C254.328 25.6484 254.562 25.7031 254.766 25.7656C254.953 25.8594 255.125 25.9375 255.281 26V29.1172C255.188 29.0859 255.078 29.0547 254.953 29.0234C254.859 28.9922 254.727 28.9609 254.555 28.9297C254.398 28.8984 254.242 28.8828 254.086 28.8828C252.992 28.8828 252.117 29.2188 251.461 29.8906C250.805 30.5625 250.477 31.5078 250.477 32.7266V34.3906H255.281V37.7656ZM261.539 45.1953C261.539 46.3516 261.711 47.4062 262.055 48.3594C262.414 49.2969 262.898 50.1016 263.508 50.7734C264.117 51.4453 264.812 51.9688 265.594 52.3438C266.391 52.7031 267.203 52.8828 268.031 52.8828C268.859 52.8828 269.664 52.7031 270.445 52.3438C271.227 51.9688 271.914 51.4453 272.508 50.7734C273.102 50.1016 273.578 49.2969 273.938 48.3594C274.312 47.4062 274.5 46.3516 274.5 45.1953C274.5 44.0391 274.312 42.9922 273.938 42.0547C273.578 41.1172 273.102 40.3125 272.508 39.6406C271.914 38.9688 271.227 38.4531 270.445 38.0938C269.664 37.7188 268.859 37.5312 268.031 37.5312C267.203 37.5312 266.391 37.7188 265.594 38.0938C264.812 38.4531 264.117 38.9688 263.508 39.6406C262.898 40.3125 262.414 41.1172 262.055 42.0547C261.711 42.9922 261.539 44.0391 261.539 45.1953ZM278.109 45.1953C278.109 46.8203 277.844 48.3125 277.312 49.6719C276.781 51.0156 276.062 52.1797 275.156 53.1641C274.25 54.1328 273.18 54.8906 271.945 55.4375C270.711 55.9688 269.406 56.2344 268.031 56.2344C266.656 56.2344 265.352 55.9688 264.117 55.4375C262.883 54.8906 261.805 54.1328 260.883 53.1641C259.977 52.1797 259.258 51.0156 258.727 49.6719C258.211 48.3281 257.953 46.8359 257.953 45.1953C257.953 43.5703 258.211 42.0859 258.727 40.7422C259.258 39.3984 259.977 38.2422 260.883 37.2734C261.805 36.2891 262.883 35.5234 264.117 34.9766C265.352 34.4297 266.656 34.1562 268.031 34.1562C269.406 34.1562 270.711 34.4297 271.945 34.9766C273.18 35.5234 274.25 36.2891 275.156 37.2734C276.062 38.2422 276.781 39.3984 277.312 40.7422C277.844 42.0859 278.109 43.5703 278.109 45.1953ZM293.227 37.7656H292.266C290.562 37.7656 289.18 38.3125 288.117 39.4062C287.055 40.4844 286.523 41.9375 286.523 43.7656V56H282.914V34.3906H285.562L286.523 36.8047C286.977 36.3203 287.5 35.8906 288.094 35.5156C288.641 35.1562 289.297 34.8438 290.062 34.5781C290.828 34.2969 291.727 34.1562 292.758 34.1562H293.227V37.7656ZM315.773 34.1562C316.961 34.1562 318.055 34.3594 319.055 34.7656C320.07 35.1562 320.938 35.6875 321.656 36.3594C322.375 37.0312 322.93 37.8203 323.32 38.7266C323.727 39.6172 323.93 40.5781 323.93 41.6094V56H321.305L320.344 53.6094C319.859 54.125 319.312 54.5703 318.703 54.9453C318.156 55.3047 317.484 55.6094 316.688 55.8594C315.891 56.1094 314.945 56.2344 313.852 56.2344C312.758 56.2344 311.773 56.0703 310.898 55.7422C310.023 55.3984 309.273 54.9297 308.648 54.3359C308.023 53.7422 307.531 53.0547 307.172 52.2734C306.828 51.4922 306.656 50.6562 306.656 49.7656C306.656 48.7344 306.859 47.7969 307.266 46.9531C307.688 46.1094 308.406 45.375 309.422 44.75C310.453 44.125 311.859 43.6484 313.641 43.3203C315.422 42.9766 317.656 42.8047 320.344 42.8047V41.6094C320.344 40.5156 319.914 39.5625 319.055 38.75C318.211 37.9375 317.117 37.5312 315.773 37.5312C314.43 37.5312 313.438 37.8125 312.797 38.375C312.156 38.9219 311.711 39.6797 311.461 40.6484H307.617C307.742 39.7578 308.016 38.9219 308.438 38.1406C308.859 37.3438 309.414 36.6484 310.102 36.0547C310.789 35.4609 311.602 35 312.539 34.6719C313.477 34.3281 314.555 34.1562 315.773 34.1562ZM313.852 52.8828C314.805 52.8828 315.68 52.7344 316.477 52.4375C317.289 52.125 317.977 51.7344 318.539 51.2656C319.102 50.7812 319.539 50.2422 319.852 49.6484C320.18 49.0547 320.344 48.4531 320.344 47.8438V46.1562C318.172 46.1562 316.43 46.25 315.117 46.4375C313.805 46.6094 312.781 46.8672 312.047 47.2109C311.328 47.5391 310.852 47.9375 310.617 48.4062C310.383 48.8594 310.266 49.3906 310.266 50C310.266 50.7344 310.586 51.3984 311.227 51.9922C311.883 52.5859 312.758 52.8828 313.852 52.8828ZM339.773 34.1562C340.93 34.1562 342.008 34.3906 343.008 34.8594C344.023 35.3281 344.914 35.9688 345.68 36.7812C346.445 37.5938 347.047 38.5781 347.484 39.7344C347.938 40.875 348.164 42.1406 348.164 43.5312V56H344.578V43.5312C344.578 42.6406 344.43 41.8281 344.133 41.0938C343.852 40.3438 343.469 39.7031 342.984 39.1719C342.5 38.6406 341.938 38.2344 341.297 37.9531C340.672 37.6719 340 37.5312 339.281 37.5312C337.578 37.5312 336.195 38.0781 335.133 39.1719C334.07 40.25 333.539 41.7031 333.539 43.5312V56H329.93V34.3906H332.578L333.539 36.8047C333.992 36.3203 334.516 35.8906 335.109 35.5156C335.656 35.1562 336.312 34.8438 337.078 34.5781C337.844 34.2969 338.742 34.1562 339.773 34.1562ZM351.516 34.3906H355.359L361.852 50.9609L368.32 34.3906H372.164L362.812 57.9219C361.953 60.0938 361.047 61.6328 360.094 62.5391C359.156 63.4609 357.984 63.9219 356.578 63.9219C356.391 63.9219 356.211 63.9141 356.039 63.8984C355.883 63.8828 355.727 63.8594 355.57 63.8281C355.414 63.7969 355.266 63.75 355.125 63.6875V60.8047C356.219 60.8047 357.031 60.5625 357.562 60.0781C358.109 59.5938 358.578 58.875 358.969 57.9219L359.93 55.5312L351.516 34.3906ZM379.125 45.1953C379.125 46.3516 379.312 47.4062 379.688 48.3594C380.062 49.2969 380.547 50.1016 381.141 50.7734C381.75 51.4453 382.461 51.9688 383.273 52.3438C384.102 52.7031 384.961 52.8828 385.852 52.8828C386.742 52.8828 387.594 52.7031 388.406 52.3438C389.234 51.9688 389.953 51.4453 390.562 50.7734C391.172 50.1016 391.656 49.2969 392.016 48.3594C392.391 47.4062 392.578 46.3516 392.578 45.1953C392.578 44.0391 392.391 42.9922 392.016 42.0547C391.656 41.1172 391.172 40.3125 390.562 39.6406C389.953 38.9688 389.242 38.4531 388.43 38.0938C387.617 37.7188 386.758 37.5312 385.852 37.5312C384.961 37.5312 384.102 37.7188 383.273 38.0938C382.461 38.4531 381.75 38.9688 381.141 39.6406C380.547 40.3125 380.062 41.1172 379.688 42.0547C379.312 42.9922 379.125 44.0391 379.125 45.1953ZM378.656 56H376.008V25.7656H379.617V37.0391C380.07 36.4922 380.617 36.0156 381.258 35.6094C381.805 35.25 382.477 34.9219 383.273 34.625C384.07 34.3125 385.008 34.1562 386.086 34.1562C387.461 34.1562 388.766 34.4297 390 34.9766C391.234 35.5234 392.305 36.2891 393.211 37.2734C394.133 38.2422 394.859 39.3984 395.391 40.7422C395.922 42.0859 396.188 43.5703 396.188 45.1953C396.188 46.8203 395.922 48.3125 395.391 49.6719C394.859 51.0156 394.133 52.1797 393.211 53.1641C392.305 54.1328 391.234 54.8906 390 55.4375C388.781 55.9688 387.477 56.2344 386.086 56.2344C384.992 56.2344 384.047 56.1094 383.25 55.8594C382.453 55.5938 381.789 55.2891 381.258 54.9453C380.617 54.5547 380.07 54.1094 379.617 53.6094L378.656 56ZM403.148 45.1953C403.148 46.3516 403.32 47.4062 403.664 48.3594C404.023 49.2969 404.508 50.1016 405.117 50.7734C405.727 51.4453 406.422 51.9688 407.203 52.3438C408 52.7031 408.812 52.8828 409.641 52.8828C410.469 52.8828 411.273 52.7031 412.055 52.3438C412.836 51.9688 413.523 51.4453 414.117 50.7734C414.711 50.1016 415.188 49.2969 415.547 48.3594C415.922 47.4062 416.109 46.3516 416.109 45.1953C416.109 44.0391 415.922 42.9922 415.547 42.0547C415.188 41.1172 414.711 40.3125 414.117 39.6406C413.523 38.9688 412.836 38.4531 412.055 38.0938C411.273 37.7188 410.469 37.5312 409.641 37.5312C408.812 37.5312 408 37.7188 407.203 38.0938C406.422 38.4531 405.727 38.9688 405.117 39.6406C404.508 40.3125 404.023 41.1172 403.664 42.0547C403.32 42.9922 403.148 44.0391 403.148 45.1953ZM419.719 45.1953C419.719 46.8203 419.453 48.3125 418.922 49.6719C418.391 51.0156 417.672 52.1797 416.766 53.1641C415.859 54.1328 414.789 54.8906 413.555 55.4375C412.32 55.9688 411.016 56.2344 409.641 56.2344C408.266 56.2344 406.961 55.9688 405.727 55.4375C404.492 54.8906 403.414 54.1328 402.492 53.1641C401.586 52.1797 400.867 51.0156 400.336 49.6719C399.82 48.3281 399.562 46.8359 399.562 45.1953C399.562 43.5703 399.82 42.0859 400.336 40.7422C400.867 39.3984 401.586 38.2422 402.492 37.2734C403.414 36.2891 404.492 35.5234 405.727 34.9766C406.961 34.4297 408.266 34.1562 409.641 34.1562C411.016 34.1562 412.32 34.4297 413.555 34.9766C414.789 35.5234 415.859 36.2891 416.766 37.2734C417.672 38.2422 418.391 39.3984 418.922 40.7422C419.453 42.0859 419.719 43.5703 419.719 45.1953ZM440.133 45.1953C440.133 44.0391 439.945 42.9922 439.57 42.0547C439.211 41.1172 438.727 40.3125 438.117 39.6406C437.508 38.9688 436.789 38.4531 435.961 38.0938C435.148 37.7188 434.297 37.5312 433.406 37.5312C432.516 37.5312 431.656 37.7188 430.828 38.0938C430.016 38.4531 429.305 38.9688 428.695 39.6406C428.086 40.3125 427.594 41.1172 427.219 42.0547C426.859 42.9922 426.68 44.0391 426.68 45.1953C426.68 46.3516 426.859 47.4062 427.219 48.3594C427.594 49.2969 428.086 50.1016 428.695 50.7734C429.305 51.4453 430.016 51.9688 430.828 52.3438C431.656 52.7031 432.516 52.8828 433.406 52.8828C434.297 52.8828 435.148 52.7031 435.961 52.3438C436.789 51.9688 437.508 51.4453 438.117 50.7734C438.727 50.1016 439.211 49.2969 439.57 48.3594C439.945 47.4062 440.133 46.3516 440.133 45.1953ZM439.641 53.6094C439.156 54.125 438.617 54.5703 438.023 54.9453C437.477 55.3047 436.797 55.6094 435.984 55.8594C435.188 56.1094 434.25 56.2344 433.172 56.2344C431.797 56.2344 430.492 55.9688 429.258 55.4375C428.023 54.8906 426.945 54.1328 426.023 53.1641C425.117 52.1797 424.398 51.0156 423.867 49.6719C423.352 48.3281 423.094 46.8359 423.094 45.1953C423.094 43.5703 423.352 42.0859 423.867 40.7422C424.398 39.3984 425.117 38.2422 426.023 37.2734C426.945 36.2891 428.023 35.5234 429.258 34.9766C430.492 34.4297 431.797 34.1562 433.172 34.1562C434.266 34.1562 435.211 34.3125 436.008 34.625C436.805 34.9219 437.477 35.25 438.023 35.6094C438.633 36.0312 439.172 36.5078 439.641 37.0391V25.7656H443.25V56H440.602L439.641 53.6094ZM447.094 34.3906H450.938L457.43 50.9609L463.898 34.3906H467.742L458.391 57.9219C457.531 60.0938 456.625 61.6328 455.672 62.5391C454.734 63.4609 453.562 63.9219 452.156 63.9219C451.969 63.9219 451.789 63.9141 451.617 63.8984C451.461 63.8828 451.305 63.8594 451.148 63.8281C450.992 63.7969 450.844 63.75 450.703 63.6875V60.8047C451.797 60.8047 452.609 60.5625 453.141 60.0781C453.688 59.5938 454.156 58.875 454.547 57.9219L455.508 55.5312L447.094 34.3906ZM483.82 28.6484H486.938V34.3906H491.742V37.7656H486.938V49.0391C486.938 50.2578 487.266 51.2031 487.922 51.875C488.578 52.5469 489.453 52.8828 490.547 52.8828C490.859 52.8828 491.148 52.8516 491.414 52.7891C491.539 52.7578 491.648 52.7109 491.742 52.6484V55.7656C491.586 55.8594 491.414 55.9375 491.227 56C490.805 56.1562 490.258 56.2344 489.586 56.2344C488.758 56.2344 487.969 56.0625 487.219 55.7188C486.469 55.3594 485.805 54.8672 485.227 54.2422C484.648 53.6172 484.188 52.8672 483.844 51.9922C483.516 51.1172 483.352 50.1328 483.352 49.0391V37.7656H479.508V34.3906H481.195C482.961 34.3906 483.836 33.5156 483.82 31.7656V28.6484ZM498.727 45.1953C498.727 46.3516 498.898 47.4062 499.242 48.3594C499.602 49.2969 500.086 50.1016 500.695 50.7734C501.305 51.4453 502 51.9688 502.781 52.3438C503.578 52.7031 504.391 52.8828 505.219 52.8828C506.047 52.8828 506.852 52.7031 507.633 52.3438C508.414 51.9688 509.102 51.4453 509.695 50.7734C510.289 50.1016 510.766 49.2969 511.125 48.3594C511.5 47.4062 511.688 46.3516 511.688 45.1953C511.688 44.0391 511.5 42.9922 511.125 42.0547C510.766 41.1172 510.289 40.3125 509.695 39.6406C509.102 38.9688 508.414 38.4531 507.633 38.0938C506.852 37.7188 506.047 37.5312 505.219 37.5312C504.391 37.5312 503.578 37.7188 502.781 38.0938C502 38.4531 501.305 38.9688 500.695 39.6406C500.086 40.3125 499.602 41.1172 499.242 42.0547C498.898 42.9922 498.727 44.0391 498.727 45.1953ZM515.297 45.1953C515.297 46.8203 515.031 48.3125 514.5 49.6719C513.969 51.0156 513.25 52.1797 512.344 53.1641C511.438 54.1328 510.367 54.8906 509.133 55.4375C507.898 55.9688 506.594 56.2344 505.219 56.2344C503.844 56.2344 502.539 55.9688 501.305 55.4375C500.07 54.8906 498.992 54.1328 498.07 53.1641C497.164 52.1797 496.445 51.0156 495.914 49.6719C495.398 48.3281 495.141 46.8359 495.141 45.1953C495.141 43.5703 495.398 42.0859 495.914 40.7422C496.445 39.3984 497.164 38.2422 498.07 37.2734C498.992 36.2891 500.07 35.5234 501.305 34.9766C502.539 34.4297 503.844 34.1562 505.219 34.1562C506.594 34.1562 507.898 34.4297 509.133 34.9766C510.367 35.5234 511.438 36.2891 512.344 37.2734C513.25 38.2422 513.969 39.3984 514.5 40.7422C515.031 42.0859 515.297 43.5703 515.297 45.1953ZM546.023 45.1953C546.023 44.0391 545.836 42.9922 545.461 42.0547C545.102 41.1172 544.617 40.3125 544.008 39.6406C543.398 38.9688 542.68 38.4531 541.852 38.0938C541.039 37.7188 540.188 37.5312 539.297 37.5312C538.406 37.5312 537.547 37.7188 536.719 38.0938C535.906 38.4531 535.195 38.9688 534.586 39.6406C533.977 40.3125 533.484 41.1172 533.109 42.0547C532.75 42.9922 532.57 44.0391 532.57 45.1953C532.57 46.3516 532.75 47.4062 533.109 48.3594C533.484 49.2969 533.977 50.1016 534.586 50.7734C535.195 51.4453 535.906 51.9688 536.719 52.3438C537.547 52.7031 538.406 52.8828 539.297 52.8828C540.188 52.8828 541.039 52.7031 541.852 52.3438C542.68 51.9688 543.398 51.4453 544.008 50.7734C544.617 50.1016 545.102 49.2969 545.461 48.3594C545.836 47.4062 546.023 46.3516 546.023 45.1953ZM545.531 53.6094C545.047 54.125 544.508 54.5703 543.914 54.9453C543.367 55.3047 542.688 55.6094 541.875 55.8594C541.078 56.1094 540.141 56.2344 539.062 56.2344C537.688 56.2344 536.383 55.9688 535.148 55.4375C533.914 54.8906 532.836 54.1328 531.914 53.1641C531.008 52.1797 530.289 51.0156 529.758 49.6719C529.242 48.3281 528.984 46.8359 528.984 45.1953C528.984 43.5703 529.242 42.0859 529.758 40.7422C530.289 39.3984 531.008 38.2422 531.914 37.2734C532.836 36.2891 533.914 35.5234 535.148 34.9766C536.383 34.4297 537.688 34.1562 539.062 34.1562C540.156 34.1562 541.102 34.3125 541.898 34.625C542.695 34.9219 543.367 35.25 543.914 35.6094C544.523 36.0312 545.062 36.5078 545.531 37.0391V25.7656H549.141V56H546.492L545.531 53.6094ZM565.945 37.7656H564.984C563.281 37.7656 561.898 38.3125 560.836 39.4062C559.773 40.4844 559.242 41.9375 559.242 43.7656V56H555.633V34.3906H558.281L559.242 36.8047C559.695 36.3203 560.219 35.8906 560.812 35.5156C561.359 35.1562 562.016 34.8438 562.781 34.5781C563.547 34.2969 564.445 34.1562 565.477 34.1562H565.945V37.7656ZM587.32 50.2344C586.961 51 586.508 51.7578 585.961 52.5078C585.414 53.2422 584.773 53.8828 584.039 54.4297C583.305 54.9609 582.469 55.3984 581.531 55.7422C580.609 56.0703 579.578 56.2344 578.438 56.2344C577.062 56.2344 575.758 55.9688 574.523 55.4375C573.289 54.8906 572.211 54.1328 571.289 53.1641C570.383 52.1797 569.664 51.0156 569.133 49.6719C568.617 48.3281 568.359 46.8359 568.359 45.1953C568.359 43.5703 568.617 42.0859 569.133 40.7422C569.664 39.3984 570.375 38.2422 571.266 37.2734C572.172 36.2891 573.227 35.5234 574.43 34.9766C575.633 34.4297 576.891 34.1562 578.203 34.1562C579.516 34.1562 580.75 34.4141 581.906 34.9297C583.078 35.4453 584.094 36.1797 584.953 37.1328C585.828 38.0703 586.516 39.2031 587.016 40.5312C587.531 41.8594 587.789 43.3359 587.789 44.9609C587.789 45.2734 587.773 45.5469 587.742 45.7812C587.711 46 587.68 46.1875 587.648 46.3438C587.617 46.5312 587.586 46.7109 587.555 46.8828H572.203C572.266 47.6484 572.477 48.3984 572.836 49.1328C573.211 49.8672 573.672 50.5078 574.219 51.0547C574.781 51.6016 575.43 52.0469 576.164 52.3906C576.914 52.7188 577.672 52.8828 578.438 52.8828C579.109 52.8828 579.703 52.7891 580.219 52.6016C580.75 52.3984 581.234 52.1719 581.672 51.9219C582.109 51.6719 582.469 51.3984 582.75 51.1016C583.047 50.7891 583.289 50.5 583.477 50.2344H587.32ZM578.203 37.5312C577.469 37.5312 576.766 37.6875 576.094 38C575.438 38.3125 574.836 38.7422 574.289 39.2891C573.758 39.8359 573.305 40.4922 572.93 41.2578C572.57 42.0234 572.328 42.8594 572.203 43.7656H583.945C583.695 41.8438 583.031 40.3281 581.953 39.2188C580.891 38.0938 579.641 37.5312 578.203 37.5312ZM600.727 34.1562C601.914 34.1562 603.008 34.3594 604.008 34.7656C605.023 35.1562 605.891 35.6875 606.609 36.3594C607.328 37.0312 607.883 37.8203 608.273 38.7266C608.68 39.6172 608.883 40.5781 608.883 41.6094V56H606.258L605.297 53.6094C604.812 54.125 604.266 54.5703 603.656 54.9453C603.109 55.3047 602.438 55.6094 601.641 55.8594C600.844 56.1094 599.898 56.2344 598.805 56.2344C597.711 56.2344 596.727 56.0703 595.852 55.7422C594.977 55.3984 594.227 54.9297 593.602 54.3359C592.977 53.7422 592.484 53.0547 592.125 52.2734C591.781 51.4922 591.609 50.6562 591.609 49.7656C591.609 48.7344 591.812 47.7969 592.219 46.9531C592.641 46.1094 593.359 45.375 594.375 44.75C595.406 44.125 596.812 43.6484 598.594 43.3203C600.375 42.9766 602.609 42.8047 605.297 42.8047V41.6094C605.297 40.5156 604.867 39.5625 604.008 38.75C603.164 37.9375 602.07 37.5312 600.727 37.5312C599.383 37.5312 598.391 37.8125 597.75 38.375C597.109 38.9219 596.664 39.6797 596.414 40.6484H592.57C592.695 39.7578 592.969 38.9219 593.391 38.1406C593.812 37.3438 594.367 36.6484 595.055 36.0547C595.742 35.4609 596.555 35 597.492 34.6719C598.43 34.3281 599.508 34.1562 600.727 34.1562ZM598.805 52.8828C599.758 52.8828 600.633 52.7344 601.43 52.4375C602.242 52.125 602.93 51.7344 603.492 51.2656C604.055 50.7812 604.492 50.2422 604.805 49.6484C605.133 49.0547 605.297 48.4531 605.297 47.8438V46.1562C603.125 46.1562 601.383 46.25 600.07 46.4375C598.758 46.6094 597.734 46.8672 597 47.2109C596.281 47.5391 595.805 47.9375 595.57 48.4062C595.336 48.8594 595.219 49.3906 595.219 50C595.219 50.7344 595.539 51.3984 596.18 51.9922C596.836 52.5859 597.711 52.8828 598.805 52.8828ZM636.234 34.1562C637.188 34.1562 638.102 34.3594 638.977 34.7656C639.852 35.1562 640.625 35.7422 641.297 36.5234C641.969 37.2891 642.492 38.2266 642.867 39.3359C643.258 40.4297 643.453 41.6641 643.453 43.0391V56H639.844V43.0391C639.844 41.2109 639.43 39.8359 638.602 38.9141C637.773 37.9922 636.75 37.5312 635.531 37.5312C634.312 37.5312 633.242 38.0234 632.32 39.0078C631.414 39.9922 630.961 41.3359 630.961 43.0391V56H627.375V43.0391C627.375 41.2109 626.953 39.8359 626.109 38.9141C625.281 37.9922 624.258 37.5312 623.039 37.5312C622.461 37.5312 621.891 37.6641 621.328 37.9297C620.781 38.1953 620.297 38.5781 619.875 39.0781C619.453 39.5781 619.117 40.1641 618.867 40.8359C618.617 41.5078 618.492 42.2422 618.492 43.0391V56H614.883V34.3906H617.531L618.492 36.8047C618.852 36.3203 619.281 35.8906 619.781 35.5156C620.234 35.1562 620.781 34.8438 621.422 34.5781C622.062 34.2969 622.844 34.1562 623.766 34.1562C624.859 34.1562 625.781 34.3594 626.531 34.7656C627.281 35.1562 627.898 35.5938 628.383 36.0781C628.961 36.6562 629.422 37.2969 629.766 38C630.188 37.2969 630.703 36.6562 631.312 36.0781C631.859 35.5938 632.523 35.1562 633.305 34.7656C634.102 34.3594 635.078 34.1562 636.234 34.1562ZM663.094 45.1953C663.094 46.3516 663.281 47.4062 663.656 48.3594C664.031 49.2969 664.516 50.1016 665.109 50.7734C665.719 51.4453 666.43 51.9688 667.242 52.3438C668.07 52.7031 668.93 52.8828 669.82 52.8828C670.711 52.8828 671.562 52.7031 672.375 52.3438C673.203 51.9688 673.922 51.4453 674.531 50.7734C675.141 50.1016 675.625 49.2969 675.984 48.3594C676.359 47.4062 676.547 46.3516 676.547 45.1953C676.547 44.0391 676.359 42.9922 675.984 42.0547C675.625 41.1172 675.141 40.3125 674.531 39.6406C673.922 38.9688 673.211 38.4531 672.398 38.0938C671.586 37.7188 670.727 37.5312 669.82 37.5312C668.93 37.5312 668.07 37.7188 667.242 38.0938C666.43 38.4531 665.719 38.9688 665.109 39.6406C664.516 40.3125 664.031 41.1172 663.656 42.0547C663.281 42.9922 663.094 44.0391 663.094 45.1953ZM662.625 56H659.977V25.7656H663.586V37.0391C664.039 36.4922 664.586 36.0156 665.227 35.6094C665.773 35.25 666.445 34.9219 667.242 34.625C668.039 34.3125 668.977 34.1562 670.055 34.1562C671.43 34.1562 672.734 34.4297 673.969 34.9766C675.203 35.5234 676.273 36.2891 677.18 37.2734C678.102 38.2422 678.828 39.3984 679.359 40.7422C679.891 42.0859 680.156 43.5703 680.156 45.1953C680.156 46.8203 679.891 48.3125 679.359 49.6719C678.828 51.0156 678.102 52.1797 677.18 53.1641C676.273 54.1328 675.203 54.8906 673.969 55.4375C672.75 55.9688 671.445 56.2344 670.055 56.2344C668.961 56.2344 668.016 56.1094 667.219 55.8594C666.422 55.5938 665.758 55.2891 665.227 54.9453C664.586 54.5547 664.039 54.1094 663.586 53.6094L662.625 56ZM688.57 56H684.961V34.3906H688.57V56ZM684.492 28.2969C684.492 27.625 684.703 27.0781 685.125 26.6562C685.562 26.2188 686.102 26 686.742 26C687.414 26 687.961 26.2188 688.383 26.6562C688.82 27.0781 689.039 27.625 689.039 28.2969C689.039 28.9375 688.82 29.4766 688.383 29.9141C687.961 30.3516 687.414 30.5703 686.742 30.5703C686.102 30.5703 685.562 30.3516 685.125 29.9141C684.703 29.4766 684.492 28.9375 684.492 28.2969ZM709.453 52.3906C709.031 52.9375 708.531 53.4219 707.953 53.8438C707.438 54.2031 706.789 54.5312 706.008 54.8281C705.227 55.125 704.297 55.2734 703.219 55.2734C701.844 55.2734 700.555 55.0234 699.352 54.5234C698.148 54.0078 697.102 53.2891 696.211 52.3672C695.336 51.4297 694.641 50.3125 694.125 49.0156C693.625 47.7188 693.375 46.2891 693.375 44.7266C693.375 43.1641 693.625 41.7344 694.125 40.4375C694.641 39.125 695.336 38.0078 696.211 37.0859C697.102 36.1641 698.141 35.4453 699.328 34.9297C700.531 34.4141 701.828 34.1562 703.219 34.1562C704.312 34.1562 705.25 34.2969 706.031 34.5781C706.812 34.8438 707.453 35.1562 707.953 35.5156C708.531 35.9062 709.031 36.3359 709.453 36.8047L710.414 34.3906H713.039V55.2734C713.039 56.5234 712.805 57.6875 712.336 58.7656C711.883 59.8594 711.234 60.8047 710.391 61.6016C709.562 62.4141 708.555 63.0391 707.367 63.4766C706.195 63.9297 704.891 64.1562 703.453 64.1562C702.203 64.1562 701.078 63.9844 700.078 63.6406C699.094 63.3125 698.234 62.8516 697.5 62.2578C696.766 61.6641 696.148 60.9766 695.648 60.1953C695.148 59.4141 694.789 58.5781 694.57 57.6875H698.156C698.516 58.5156 699.094 59.2422 699.891 59.8672C700.688 60.4922 701.875 60.8047 703.453 60.8047C705.281 60.8047 706.734 60.2734 707.812 59.2109C708.906 58.1641 709.453 56.8516 709.453 55.2734V52.3906ZM696.961 44.7266C696.961 45.8203 697.125 46.8047 697.453 47.6797C697.797 48.5547 698.266 49.3047 698.859 49.9297C699.453 50.5547 700.141 51.0469 700.922 51.4062C701.703 51.75 702.547 51.9219 703.453 51.9219C704.344 51.9219 705.18 51.75 705.961 51.4062C706.742 51.0469 707.43 50.5547 708.023 49.9297C708.617 49.3047 709.078 48.5547 709.406 47.6797C709.75 46.7891 709.922 45.8047 709.922 44.7266C709.922 43.6328 709.75 42.6484 709.406 41.7734C709.078 40.8828 708.617 40.1328 708.023 39.5234C707.43 38.8984 706.742 38.4141 705.961 38.0703C705.18 37.7109 704.344 37.5312 703.453 37.5312C702.562 37.5312 701.719 37.7109 700.922 38.0703C700.141 38.4141 699.453 38.8984 698.859 39.5234C698.266 40.1328 697.797 40.8828 697.453 41.7734C697.125 42.6484 696.961 43.6328 696.961 44.7266Z" fill="black"/>
</g>
<defs>
<clipPath id="clip0">
<rect width="716" height="64" fill="white"/>
</clipPath>
</defs>
</svg>
